<svg width="76" height="103" viewBox="0 0 76 103" fill="none" xmlns="http://www.w3.org/2000/svg">
<rect x="4" width="67" height="103" rx="16" fill="#F03B14"/>
<g clip-path="url(#clip0_36_336)">
<path d="M34.3553 13.2471L38.4018 4L42.192 13.3566L49.469 6.36103L49.3908 16.4556L58.7911 12.778L54.854 22.072L64.9486 22.2753L57.7529 29.3553L67 33.4018L57.6434 37.192L64.639 44.469L54.5444 44.3908L58.222 53.7911L48.928 49.854L48.7247 59.9486L41.6447 52.7529L37.5982 62L33.808 52.6434L26.531 59.639L26.6092 49.5444L17.2089 53.222L21.146 43.928L11.0546 43.7247L18.2471 36.6447L9 32.5982L18.3566 28.808L11.361 21.531L21.4556 21.6092L17.778 12.2089L27.072 16.146L27.2753 6.05456L34.3553 13.2471Z" fill="#FDAEFF"/>
<path d="M47.5566 33.6591C47.5566 34.4747 48.2239 35.1421 49.0396 35.1421H52.0055C52.8211 35.1421 53.4884 34.4747 53.4884 33.6591C53.4884 32.8435 52.8211 32.1762 52.0055 32.1762H49.0396C48.2239 32.1762 47.5566 32.8435 47.5566 33.6591ZM45.4657 40.8069C45.3492 40.9588 45.2644 41.1325 45.2162 41.3178C45.168 41.503 45.1574 41.696 45.1851 41.8854C45.2127 42.0748 45.2781 42.2567 45.3772 42.4204C45.4763 42.5841 45.6072 42.7263 45.7622 42.8386C46.5482 43.417 47.3787 44.0398 48.1646 44.633C48.8171 45.1223 49.7366 44.9889 50.2111 44.3364C50.2111 44.3216 50.2259 44.3216 50.2259 44.3067C50.342 44.1533 50.4264 43.9784 50.4743 43.7921C50.5223 43.6058 50.5328 43.4119 50.5052 43.2215C50.4776 43.0312 50.4125 42.8482 50.3136 42.6832C50.2148 42.5181 50.0842 42.3744 49.9293 42.2602C49.1434 41.6671 48.3129 41.0442 47.5418 40.4659C47.3861 40.3508 47.2092 40.2675 47.0212 40.2209C46.8333 40.1742 46.638 40.1651 46.4465 40.194C46.2551 40.223 46.0712 40.2894 45.9054 40.3895C45.7397 40.4895 45.5953 40.6213 45.4805 40.7773C45.4805 40.7921 45.4657 40.8069 45.4657 40.8069ZM50.2408 22.9967C50.2408 22.9818 50.2259 22.9818 50.2259 22.967C50.1118 22.8122 49.968 22.6816 49.803 22.5827C49.638 22.4839 49.455 22.4188 49.2647 22.3912C49.0743 22.3636 48.8803 22.3741 48.6941 22.422C48.5078 22.4699 48.3329 22.5544 48.1795 22.6704C47.3935 23.2636 46.5482 23.8864 45.7771 24.4796C45.1246 24.969 45.0059 25.8884 45.4953 26.5261C45.4953 26.5409 45.5101 26.5409 45.5101 26.5558C45.9995 27.2083 46.9041 27.3417 47.5566 26.8523C48.3426 26.274 49.173 25.6363 49.959 25.0431C50.5967 24.5686 50.7153 23.6492 50.2408 22.9967ZM32.7271 29.2102H26.7953C25.164 29.2102 23.8293 30.5449 23.8293 32.1762V35.1421C23.8293 36.7733 25.164 38.108 26.7953 38.108H28.2782V42.5568C28.2782 43.3725 28.9455 44.0398 29.7612 44.0398C30.5768 44.0398 31.2441 43.3725 31.2441 42.5568V38.108H32.7271L40.1418 42.5568V24.7614L32.7271 29.2102ZM43.8492 33.6591C43.8492 31.6868 42.9891 29.9072 41.6248 28.6912V38.6122C42.9891 37.411 43.8492 35.6314 43.8492 33.6591Z" fill="#F03B14"/>
</g>
<path d="M21.3949 76V65.8182H25.2131C25.9953 65.8182 26.6515 65.964 27.1818 66.2557C27.7154 66.5473 28.1181 66.9484 28.3899 67.4588C28.665 67.9659 28.8026 68.5426 28.8026 69.1889C28.8026 69.8419 28.665 70.4219 28.3899 70.929C28.1148 71.4361 27.7088 71.8355 27.1719 72.1271C26.6349 72.4155 25.9737 72.5597 25.1882 72.5597H22.6577V71.0433H24.9396C25.397 71.0433 25.7715 70.9638 26.0632 70.8047C26.3549 70.6456 26.5703 70.4268 26.7095 70.1484C26.852 69.87 26.9233 69.5502 26.9233 69.1889C26.9233 68.8277 26.852 68.5095 26.7095 68.2344C26.5703 67.9593 26.3532 67.7455 26.0582 67.593C25.7666 67.4373 25.3904 67.3594 24.9297 67.3594H23.2393V76H21.3949ZM33.5964 76.1491C32.8308 76.1491 32.1696 75.9901 31.6127 75.6719C31.0592 75.3504 30.6333 74.8963 30.335 74.3097C30.0368 73.7197 29.8876 73.0253 29.8876 72.2266C29.8876 71.4411 30.0368 70.7517 30.335 70.1584C30.6367 69.5618 31.0576 69.0978 31.5978 68.7663C32.1381 68.4316 32.7728 68.2642 33.502 68.2642C33.9726 68.2642 34.4167 68.3404 34.8343 68.4929C35.2553 68.642 35.6265 68.8741 35.948 69.1889C36.2728 69.5038 36.528 69.9048 36.7136 70.392C36.8992 70.8759 36.992 71.4527 36.992 72.1222V72.674H30.7328V71.4609H35.2669C35.2636 71.1162 35.189 70.8097 35.0431 70.5412C34.8973 70.2694 34.6935 70.0556 34.4316 69.8999C34.1731 69.7441 33.8715 69.6662 33.5268 69.6662C33.1589 69.6662 32.8358 69.7557 32.5574 69.9347C32.2789 70.1103 32.0618 70.3423 31.9061 70.6307C31.7536 70.9157 31.6757 71.2289 31.6724 71.5703V72.6293C31.6724 73.0734 31.7536 73.4545 31.916 73.7727C32.0784 74.0876 32.3055 74.3295 32.5971 74.4986C32.8888 74.6643 33.2302 74.7472 33.6213 74.7472C33.8831 74.7472 34.1201 74.7107 34.3322 74.6378C34.5443 74.5616 34.7283 74.4505 34.8841 74.3047C35.0398 74.1589 35.1575 73.9782 35.237 73.7628L36.9174 73.9517C36.8114 74.3958 36.6092 74.7836 36.3109 75.1151C36.0159 75.4432 35.6381 75.6984 35.1774 75.8807C34.7167 76.0597 34.1897 76.1491 33.5964 76.1491ZM41.3484 76.1342C40.7485 76.1342 40.2115 75.9801 39.7376 75.6719C39.2636 75.3636 38.8891 74.9162 38.614 74.3295C38.3389 73.7429 38.2013 73.0303 38.2013 72.1918C38.2013 71.3433 38.3406 70.6274 38.619 70.044C38.9007 69.4574 39.2802 69.0149 39.7575 68.7166C40.2347 68.415 40.7667 68.2642 41.3533 68.2642C41.8008 68.2642 42.1687 68.3404 42.457 68.4929C42.7454 68.642 42.9741 68.8227 43.1431 69.0348C43.3121 69.2436 43.4431 69.4408 43.5359 69.6264H43.6104V65.8182H45.4151V76H43.6452V74.7969H43.5359C43.4431 74.9825 43.3088 75.1797 43.1332 75.3885C42.9575 75.594 42.7255 75.7696 42.4371 75.9155C42.1488 76.0613 41.7859 76.1342 41.3484 76.1342ZM41.8505 74.6577C42.2317 74.6577 42.5565 74.5549 42.8249 74.3494C43.0934 74.1406 43.2972 73.8506 43.4364 73.4794C43.5756 73.1082 43.6452 72.6757 43.6452 72.1818C43.6452 71.688 43.5756 71.2588 43.4364 70.8942C43.3005 70.5296 43.0984 70.2462 42.8299 70.044C42.5647 69.8419 42.2383 69.7408 41.8505 69.7408C41.4495 69.7408 41.1147 69.8452 40.8462 70.054C40.5778 70.2628 40.3756 70.5511 40.2397 70.919C40.1038 71.2869 40.0359 71.7079 40.0359 72.1818C40.0359 72.6591 40.1038 73.085 40.2397 73.4595C40.3789 73.8307 40.5827 74.1241 40.8512 74.3395C41.123 74.5516 41.4561 74.6577 41.8505 74.6577ZM47.3329 76V68.3636H49.1326V76H47.3329ZM48.2377 67.2798C47.9527 67.2798 47.7074 67.1854 47.502 66.9964C47.2965 66.8042 47.1937 66.5739 47.1937 66.3054C47.1937 66.0336 47.2965 65.8033 47.502 65.6143C47.7074 65.4221 47.9527 65.326 48.2377 65.326C48.5261 65.326 48.7714 65.4221 48.9735 65.6143C49.179 65.8033 49.2818 66.0336 49.2818 66.3054C49.2818 66.5739 49.179 66.8042 48.9735 66.9964C48.7714 67.1854 48.5261 67.2798 48.2377 67.2798ZM50.9833 76V68.3636H52.7283V69.6364H52.8079C52.9471 69.1955 53.1857 68.8558 53.5238 68.6172C53.8652 68.3752 54.2546 68.2543 54.6921 68.2543C54.7915 68.2543 54.9026 68.2592 55.0252 68.2692C55.1512 68.2758 55.2556 68.2874 55.3384 68.304V69.9595C55.2622 69.933 55.1412 69.9098 54.9755 69.8899C54.8131 69.8667 54.6557 69.8551 54.5032 69.8551C54.1751 69.8551 53.8801 69.9264 53.6183 70.0689C53.3597 70.2081 53.1559 70.402 53.0067 70.6506C52.8576 70.8991 52.783 71.1858 52.783 71.5107V76H50.9833ZM17.7818 85.6172C17.7354 85.183 17.5398 84.8449 17.1951 84.603C16.8538 84.361 16.4096 84.2401 15.8627 84.2401C15.4783 84.2401 15.1485 84.2981 14.8734 84.4141C14.5983 84.5301 14.3878 84.6875 14.242 84.8864C14.0962 85.0852 14.0216 85.3123 14.0183 85.5675C14.0183 85.7796 14.0663 85.9635 14.1625 86.1193C14.2619 86.2751 14.3961 86.4077 14.5652 86.517C14.7342 86.6231 14.9215 86.7126 15.127 86.7855C15.3324 86.8584 15.5396 86.9197 15.7484 86.9695L16.7029 87.2081C17.0874 87.2976 17.457 87.4186 17.8116 87.571C18.1696 87.7235 18.4894 87.9157 18.7711 88.1477C19.0562 88.3797 19.2815 88.6598 19.4473 88.9879C19.613 89.3161 19.6958 89.7005 19.6958 90.1413C19.6958 90.7379 19.5434 91.2633 19.2385 91.7173C18.9335 92.1681 18.4927 92.5211 17.916 92.7763C17.3426 93.0282 16.6483 93.1541 15.8329 93.1541C15.0408 93.1541 14.353 93.0315 13.7697 92.7862C13.1897 92.541 12.7356 92.183 12.4075 91.7124C12.0827 91.2417 11.907 90.6683 11.8805 89.9922H13.6951C13.7217 90.3468 13.831 90.6418 14.0233 90.8771C14.2155 91.1125 14.4657 91.2881 14.774 91.4041C15.0855 91.5201 15.4335 91.5781 15.818 91.5781C16.219 91.5781 16.5704 91.5185 16.872 91.3991C17.1769 91.2765 17.4155 91.1075 17.5879 90.892C17.7602 90.6733 17.8481 90.4181 17.8514 90.1264C17.8481 89.8613 17.7702 89.6425 17.6177 89.4702C17.4653 89.2945 17.2515 89.1487 16.9764 89.0327C16.7046 88.9134 16.3864 88.8073 16.0218 88.7145L14.8635 88.4162C14.0249 88.2008 13.362 87.8743 12.8748 87.4368C12.3909 86.996 12.149 86.411 12.149 85.6818C12.149 85.0819 12.3114 84.5566 12.6362 84.1058C12.9643 83.6551 13.4101 83.3054 13.9735 83.0568C14.537 82.8049 15.175 82.679 15.8876 82.679C16.6101 82.679 17.2432 82.8049 17.7868 83.0568C18.3336 83.3054 18.7628 83.6518 19.0744 84.0959C19.3859 84.5367 19.5467 85.0438 19.5566 85.6172H17.7818ZM24.5916 93.1491C23.8459 93.1491 23.1996 92.9851 22.6527 92.657C22.1058 92.3288 21.6816 91.8698 21.38 91.2798C21.0817 90.6899 20.9325 90.0005 20.9325 89.2116C20.9325 88.4228 21.0817 87.7318 21.38 87.1385C21.6816 86.5452 22.1058 86.0845 22.6527 85.7564C23.1996 85.4283 23.8459 85.2642 24.5916 85.2642C25.3374 85.2642 25.9837 85.4283 26.5305 85.7564C27.0774 86.0845 27.5 86.5452 27.7983 87.1385C28.0999 87.7318 28.2507 88.4228 28.2507 89.2116C28.2507 90.0005 28.0999 90.6899 27.7983 91.2798C27.5 91.8698 27.0774 92.3288 26.5305 92.657C25.9837 92.9851 25.3374 93.1491 24.5916 93.1491ZM24.6016 91.7074C25.0059 91.7074 25.344 91.5964 25.6158 91.3743C25.8875 91.1489 26.0897 90.8473 26.2223 90.4695C26.3582 90.0916 26.4261 89.6707 26.4261 89.2067C26.4261 88.7393 26.3582 88.3168 26.2223 87.9389C26.0897 87.5578 25.8875 87.2545 25.6158 87.0291C25.344 86.8037 25.0059 86.6911 24.6016 86.6911C24.1873 86.6911 23.8426 86.8037 23.5675 87.0291C23.2957 87.2545 23.0919 87.5578 22.956 87.9389C22.8234 88.3168 22.7571 88.7393 22.7571 89.2067C22.7571 89.6707 22.8234 90.0916 22.956 90.4695C23.0919 90.8473 23.2957 91.1489 23.5675 91.3743C23.8426 91.5964 24.1873 91.7074 24.6016 91.7074ZM33.1092 93.1491C32.3469 93.1491 31.6923 92.9818 31.1454 92.647C30.6019 92.3123 30.1826 91.8499 29.8876 91.2599C29.5959 90.6667 29.4501 89.9839 29.4501 89.2116C29.4501 88.4361 29.5993 87.7517 29.8975 87.1584C30.1958 86.5618 30.6168 86.0978 31.1603 85.7663C31.7072 85.4316 32.3535 85.2642 33.0993 85.2642C33.719 85.2642 34.2676 85.3786 34.7449 85.6072C35.2254 85.8326 35.6083 86.1525 35.8933 86.5668C36.1783 86.9777 36.3407 87.4583 36.3805 88.0085H34.6603C34.5907 87.6406 34.425 87.334 34.1632 87.0888C33.9047 86.8402 33.5583 86.7159 33.1241 86.7159C32.7562 86.7159 32.4331 86.8153 32.1547 87.0142C31.8762 87.2098 31.6592 87.4915 31.5034 87.8594C31.3509 88.2273 31.2747 88.6681 31.2747 89.1818C31.2747 89.7022 31.3509 90.1496 31.5034 90.5241C31.6558 90.8954 31.8696 91.1821 32.1447 91.3842C32.4231 91.5831 32.7496 91.6825 33.1241 91.6825C33.3893 91.6825 33.6262 91.6328 33.835 91.5334C34.0472 91.4306 34.2245 91.2831 34.367 91.0909C34.5095 90.8987 34.6073 90.665 34.6603 90.3899H36.3805C36.3374 90.9302 36.1783 91.4091 35.9032 91.8267C35.6281 92.241 35.2536 92.5658 34.7797 92.8011C34.3057 93.0331 33.7489 93.1491 33.1092 93.1491ZM41.1893 93.1491C40.4435 93.1491 39.7972 92.9851 39.2504 92.657C38.7035 92.3288 38.2792 91.8698 37.9776 91.2798C37.6793 90.6899 37.5302 90.0005 37.5302 89.2116C37.5302 88.4228 37.6793 87.7318 37.9776 87.1385C38.2792 86.5452 38.7035 86.0845 39.2504 85.7564C39.7972 85.4283 40.4435 85.2642 41.1893 85.2642C41.935 85.2642 42.5813 85.4283 43.1282 85.7564C43.6751 86.0845 44.0977 86.5452 44.396 87.1385C44.6976 87.7318 44.8484 88.4228 44.8484 89.2116C44.8484 90.0005 44.6976 90.6899 44.396 91.2798C44.0977 91.8698 43.6751 92.3288 43.1282 92.657C42.5813 92.9851 41.935 93.1491 41.1893 93.1491ZM41.1992 91.7074C41.6036 91.7074 41.9416 91.5964 42.2134 91.3743C42.4852 91.1489 42.6874 90.8473 42.82 90.4695C42.9558 90.0916 43.0238 89.6707 43.0238 89.2067C43.0238 88.7393 42.9558 88.3168 42.82 87.9389C42.6874 87.5578 42.4852 87.2545 42.2134 87.0291C41.9416 86.8037 41.6036 86.6911 41.1992 86.6911C40.7849 86.6911 40.4402 86.8037 40.1651 87.0291C39.8933 87.2545 39.6895 87.5578 39.5536 87.9389C39.421 88.3168 39.3548 88.7393 39.3548 89.2067C39.3548 89.6707 39.421 90.0916 39.5536 90.4695C39.6895 90.8473 39.8933 91.1489 40.1651 91.3743C40.4402 91.5964 40.7849 91.7074 41.1992 91.7074ZM46.3759 93V85.3636H48.1209V86.6364H48.2005C48.3397 86.1955 48.5783 85.8558 48.9164 85.6172C49.2578 85.3752 49.6472 85.2543 50.0847 85.2543C50.1841 85.2543 50.2952 85.2592 50.4178 85.2692C50.5437 85.2758 50.6481 85.2874 50.731 85.304V86.9595C50.6548 86.933 50.5338 86.9098 50.3681 86.8899C50.2057 86.8667 50.0482 86.8551 49.8958 86.8551C49.5676 86.8551 49.2727 86.9264 49.0108 87.0689C48.7523 87.2081 48.5485 87.402 48.3993 87.6506C48.2502 87.8991 48.1756 88.1858 48.1756 88.5107V93H46.3759ZM51.9267 93V85.3636H53.6717V86.6364H53.7512C53.8904 86.1955 54.1291 85.8558 54.4672 85.6172C54.8085 85.3752 55.198 85.2543 55.6355 85.2543C55.7349 85.2543 55.8459 85.2592 55.9686 85.2692C56.0945 85.2758 56.1989 85.2874 56.2818 85.304V86.9595C56.2056 86.933 56.0846 86.9098 55.9189 86.8899C55.7565 86.8667 55.599 86.8551 55.4466 86.8551C55.1184 86.8551 54.8234 86.9264 54.5616 87.0689C54.3031 87.2081 54.0993 87.402 53.9501 87.6506C53.801 87.8991 53.7264 88.1858 53.7264 88.5107V93H51.9267ZM60.494 93.1491C59.7482 93.1491 59.1019 92.9851 58.555 92.657C58.0082 92.3288 57.5839 91.8698 57.2823 91.2798C56.984 90.6899 56.8349 90.0005 56.8349 89.2116C56.8349 88.4228 56.984 87.7318 57.2823 87.1385C57.5839 86.5452 58.0082 86.0845 58.555 85.7564C59.1019 85.4283 59.7482 85.2642 60.494 85.2642C61.2397 85.2642 61.886 85.4283 62.4329 85.7564C62.9798 86.0845 63.4023 86.5452 63.7006 87.1385C64.0022 87.7318 64.1531 88.4228 64.1531 89.2116C64.1531 90.0005 64.0022 90.6899 63.7006 91.2798C63.4023 91.8698 62.9798 92.3288 62.4329 92.657C61.886 92.9851 61.2397 93.1491 60.494 93.1491ZM60.5039 91.7074C60.9083 91.7074 61.2463 91.5964 61.5181 91.3743C61.7899 91.1489 61.9921 90.8473 62.1246 90.4695C62.2605 90.0916 62.3285 89.6707 62.3285 89.2067C62.3285 88.7393 62.2605 88.3168 62.1246 87.9389C61.9921 87.5578 61.7899 87.2545 61.5181 87.0291C61.2463 86.8037 60.9083 86.6911 60.5039 86.6911C60.0896 86.6911 59.7449 86.8037 59.4698 87.0291C59.198 87.2545 58.9942 87.5578 58.8583 87.9389C58.7257 88.3168 58.6594 88.7393 58.6594 89.2067C58.6594 89.6707 58.7257 90.0916 58.8583 90.4695C58.9942 90.8473 59.198 91.1489 59.4698 91.3743C59.7449 91.5964 60.0896 91.7074 60.5039 91.7074Z" fill="#FEDDFF"/>
<defs>
<clipPath id="clip0_36_336">
<rect width="58" height="58" fill="white" transform="translate(9 4)"/>
</clipPath>
</defs>
</svg>
