<svg width="42" height="42" viewBox="0 0 42 42" fill="none" xmlns="http://www.w3.org/2000/svg">
<g clip-path="url(#clip0_179_414)">
<path d="M18.3607 6.69618L21.291 0L24.0356 6.77543L29.3051 1.70971L29.2485 9.01957L36.0556 6.3565L33.2046 13.0866L40.5145 13.2338L35.3038 18.3607L42 21.291L35.2246 24.0356L40.2903 29.3051L32.9804 29.2485L35.6435 36.0556L28.9134 33.2046L28.7662 40.5145L23.6393 35.3038L20.709 42L17.9644 35.2246L12.6949 40.2903L12.7515 32.9804L5.94436 35.6435L8.79538 28.9134L1.48779 28.7662L6.69618 23.6393L0 20.709L6.77543 17.9644L1.70971 12.6949L9.01957 12.7515L6.3565 5.94436L13.0866 8.79538L13.2338 1.48779L18.3607 6.69618Z" fill="#FDAEFF"/>
<path d="M27.9203 21.4773C27.9203 22.0679 28.4036 22.5512 28.9942 22.5512H31.1419C31.7326 22.5512 32.2158 22.0679 32.2158 21.4773C32.2158 20.8867 31.7326 20.4034 31.1419 20.4034H28.9942C28.4036 20.4034 27.9203 20.8867 27.9203 21.4773ZM26.4062 26.6533C26.3219 26.7633 26.2605 26.8891 26.2256 27.0232C26.1907 27.1574 26.183 27.2971 26.203 27.4343C26.2231 27.5714 26.2703 27.7031 26.3421 27.8217C26.4139 27.9402 26.5087 28.0432 26.621 28.1245C27.1901 28.5433 27.7915 28.9943 28.3606 29.4239C28.8331 29.7783 29.4989 29.6816 29.8426 29.2091C29.8426 29.1984 29.8533 29.1984 29.8533 29.1876C29.9373 29.0766 29.9985 28.9499 30.0332 28.815C30.0679 28.6801 30.0755 28.5397 30.0555 28.4018C30.0355 28.264 29.9884 28.1314 29.9168 28.012C29.8452 27.8925 29.7506 27.7884 29.6385 27.7057C29.0694 27.2762 28.468 26.8251 27.9096 26.4063C27.7968 26.323 27.6687 26.2627 27.5327 26.2289C27.3966 26.1951 27.2551 26.1885 27.1165 26.2095C26.9778 26.2304 26.8447 26.2785 26.7247 26.351C26.6046 26.4235 26.5 26.5189 26.4169 26.6318C26.4169 26.6426 26.4062 26.6533 26.4062 26.6533ZM29.864 13.7562C29.864 13.7455 29.8533 13.7455 29.8533 13.7347C29.7706 13.6226 29.6665 13.528 29.5471 13.4565C29.4276 13.3849 29.295 13.3377 29.1572 13.3178C29.0194 13.2978 28.8789 13.3054 28.744 13.3401C28.6091 13.3748 28.4825 13.4359 28.3714 13.52C27.8022 13.9495 27.1901 14.4005 26.6317 14.8301C26.1592 15.1845 26.0733 15.8503 26.4277 16.312C26.4277 16.3228 26.4384 16.3228 26.4384 16.3335C26.7928 16.806 27.4478 16.9026 27.9203 16.5483C28.4895 16.1295 29.0909 15.6677 29.66 15.2381C30.1218 14.8945 30.2077 14.2287 29.864 13.7562ZM17.1817 18.2557H12.8863C11.705 18.2557 10.7385 19.2222 10.7385 20.4034V22.5512C10.7385 23.7324 11.705 24.6989 12.8863 24.6989H13.9601V27.9205C13.9601 28.5111 14.4434 28.9943 15.034 28.9943C15.6246 28.9943 16.1078 28.5111 16.1078 27.9205V24.6989H17.1817L22.551 27.9205V15.0341L17.1817 18.2557ZM25.2357 21.4773C25.2357 20.0491 24.6128 18.7604 23.6249 17.8799V25.064C24.6128 24.1942 25.2357 22.9055 25.2357 21.4773Z" fill="#F03B14"/>
</g>
<defs>
<clipPath id="clip0_179_414">
<rect width="42" height="42" rx="21" fill="white"/>
</clipPath>
</defs>
</svg>
