<svg width="58" height="58" viewBox="0 0 58 58" fill="none" xmlns="http://www.w3.org/2000/svg">
<g clip-path="url(#clip0_36_337)">
<path d="M25.3553 9.2471L29.4018 0L33.192 9.35655L40.469 2.36103L40.3908 12.4556L49.7911 8.77802L45.854 18.072L55.9486 18.2753L48.7529 25.3553L58 29.4018L48.6434 33.192L55.639 40.469L45.5444 40.3908L49.222 49.7911L39.928 45.854L39.7247 55.9486L32.6447 48.7529L28.5982 58L24.808 48.6434L17.531 55.639L17.6092 45.5444L8.20887 49.222L12.146 39.928L2.05456 39.7247L9.2471 32.6447L0 28.5982L9.35655 24.808L2.36103 17.531L12.4556 17.6092L8.77802 8.20887L18.072 12.146L18.2753 2.05456L25.3553 9.2471Z" fill="#F03B14"/>
<path d="M39.6931 28.7955C39.6931 29.6111 40.3604 30.2784 41.176 30.2784H44.142C44.9576 30.2784 45.6249 29.6111 45.6249 28.7955C45.6249 27.9798 44.9576 27.3125 44.142 27.3125H41.176C40.3604 27.3125 39.6931 27.9798 39.6931 28.7955ZM37.6021 35.9433C37.4857 36.0952 37.4009 36.2689 37.3527 36.4541C37.3045 36.6393 37.2939 36.8323 37.3216 37.0217C37.3492 37.2111 37.4145 37.393 37.5137 37.5568C37.6128 37.7205 37.7437 37.8627 37.8987 37.975C38.6847 38.5533 39.5151 39.1761 40.3011 39.7693C40.9536 40.2587 41.873 40.1252 42.3476 39.4727C42.3476 39.4579 42.3624 39.4579 42.3624 39.4431C42.4785 39.2897 42.5629 39.1148 42.6108 38.9285C42.6588 38.7422 42.6692 38.5482 42.6416 38.3579C42.6141 38.1675 42.549 37.9845 42.4501 37.8195C42.3513 37.6545 42.2206 37.5107 42.0658 37.3966C41.2799 36.8034 40.4494 36.1806 39.6783 35.6022C39.5225 35.4871 39.3456 35.4039 39.1577 35.3572C38.9698 35.3106 38.7745 35.3015 38.583 35.3304C38.3916 35.3593 38.2077 35.4257 38.0419 35.5258C37.8761 35.6259 37.7317 35.7577 37.617 35.9136C37.617 35.9285 37.6021 35.9433 37.6021 35.9433ZM42.3772 18.133C42.3772 18.1182 42.3624 18.1182 42.3624 18.1034C42.2483 17.9485 42.1045 17.8179 41.9395 17.7191C41.7745 17.6202 41.5915 17.5551 41.4011 17.5275C41.2108 17.4999 41.0168 17.5104 40.8305 17.5584C40.6443 17.6063 40.4693 17.6907 40.3159 17.8068C39.53 18.4 38.6847 19.0228 37.9135 19.616C37.261 20.1053 37.1424 21.0248 37.6318 21.6625C37.6318 21.6773 37.6466 21.6773 37.6466 21.6921C38.136 22.3446 39.0406 22.4781 39.6931 21.9887C40.4791 21.4103 41.3095 20.7727 42.0955 20.1795C42.7332 19.705 42.8518 18.7855 42.3772 18.133ZM24.8635 24.3466H18.9317C17.3005 24.3466 15.9658 25.6813 15.9658 27.3125V30.2784C15.9658 31.9097 17.3005 33.2443 18.9317 33.2443H20.4147V37.6932C20.4147 38.5088 21.082 39.1761 21.8976 39.1761C22.7133 39.1761 23.3806 38.5088 23.3806 37.6932V33.2443H24.8635L32.2783 37.6932V19.8977L24.8635 24.3466ZM35.9857 28.7955C35.9857 26.8231 35.1256 25.0436 33.7613 23.8276V33.7485C35.1256 32.5473 35.9857 30.7678 35.9857 28.7955Z" fill="#FDAEFF"/>
</g>
<defs>
<clipPath id="clip0_36_337">
<rect width="58" height="58" fill="white"/>
</clipPath>
</defs>
</svg>
