<svg width="27" height="31" viewBox="0 0 27 31" fill="none" xmlns="http://www.w3.org/2000/svg">
<path d="M13.1772 30.3541C3.16675 24.5416 1.22925 20.6666 1.22925 7.10409C5.298 7.10409 9.43908 5.505 11.9191 2.76796C12.4642 2.16734 12.8065 1.41946 13.048 0.645752H13.9522C14.1937 1.41946 14.536 2.16734 15.0811 2.76796C17.5611 5.505 21.7022 7.10409 25.7709 7.10409C25.7709 20.6666 23.8334 24.5416 13.823 30.3541H13.1772Z" stroke="white" stroke-width="1.29167"/>
<path d="M13.3682 9.6875H13.6318L13.8255 10.3876C14.1265 11.4774 14.7767 12.4384 15.6764 13.1232C16.5761 13.808 17.6755 14.1787 18.8062 14.1786H19.3125V14.393L18.841 14.7185C17.9359 15.3431 17.2536 16.2403 16.8935 17.2794C16.5335 18.3185 16.5143 19.4454 16.839 20.4962L17.0921 21.3125H16.8209C15.8833 20.5473 14.7102 20.1293 13.5 20.1293C12.2898 20.1293 11.1167 20.5473 10.1791 21.3125H9.90787L10.1597 20.4962C10.4844 19.4454 10.4653 18.3185 10.1052 17.2794C9.74509 16.2403 9.06283 15.3431 8.15767 14.7185L7.6875 14.393V14.1786H8.19383C9.32447 14.1787 10.4239 13.808 11.3236 13.1232C12.2233 12.4384 12.8735 11.4774 13.1745 10.3876L13.3682 9.6875Z" stroke="white" stroke-width="1.29167"/>
</svg>
