<svg width="37" height="38" viewBox="0 0 37 38" fill="none" xmlns="http://www.w3.org/2000/svg">
<path fill-rule="evenodd" clip-rule="evenodd" d="M16.5301 0C17.3045 0 18.1367 0.0289479 18.3756 0.0651327C18.6144 0.108554 19.1861 0.202635 19.642 0.282242C20.0979 0.354611 20.8651 0.535535 21.3427 0.680275C21.8203 0.825014 22.5658 1.09278 23.0072 1.26647C23.4487 1.44739 24.0783 1.74411 24.4184 1.92503C24.7586 2.10596 25.4099 2.49675 25.8658 2.80071C26.3217 3.10466 26.9731 3.58953 27.3132 3.87178C27.6533 4.15402 28.254 4.72574 28.652 5.13825C29.0501 5.55075 29.6363 6.23826 29.9547 6.65801C30.2731 7.08499 30.6856 7.68566 30.8738 7.99685C31.0547 8.31527 31.3876 8.93041 31.6047 9.36463C31.8218 9.80609 32.133 10.5153 32.2922 10.9568C32.4515 11.3982 32.683 12.1581 32.8061 12.6575C32.9291 13.1568 33.0738 13.9022 33.1317 14.322C33.1896 14.7417 33.262 15.4871 33.2909 15.9865C33.3126 16.5075 33.2982 17.3036 33.2548 17.8681C33.2041 18.4036 33.1173 19.1201 33.0594 19.4602C33.0015 19.8003 32.9363 20.1477 32.9219 20.2418C32.8929 20.3576 32.9219 20.401 33.0159 20.401C33.0811 20.401 33.3344 20.4517 33.5732 20.5096C33.812 20.5675 34.2679 20.7484 34.5864 20.9004C34.9699 21.0885 35.3173 21.3273 35.5995 21.6023C35.8456 21.8412 36.1713 22.2537 36.3377 22.5359C36.5042 22.8181 36.7068 23.2668 36.7936 23.5491C36.8732 23.8313 36.9673 24.3017 36.989 24.5984C37.018 24.9748 36.989 25.3366 36.9094 25.7564C36.8371 26.1182 36.6706 26.6103 36.5042 26.9505C36.3377 27.2834 36.041 27.7248 35.8022 27.9926C35.5706 28.2459 35.1074 28.6946 34.7673 28.9768C34.4271 29.2663 33.7975 29.7656 33.3561 30.0913C32.9146 30.4242 32.01 31.0611 31.3297 31.5097C30.6494 31.9584 29.5494 32.6604 28.8692 33.0657C28.1889 33.471 27.1178 34.1006 26.481 34.4624C25.8441 34.8243 24.5053 35.548 23.5138 36.0835C21.9434 36.9158 21.6611 37.046 21.3789 37.046C21.1473 37.046 20.9881 36.9881 20.8216 36.8651C20.6914 36.7638 20.5322 36.5829 20.4743 36.4671C20.4164 36.3513 20.3657 36.1125 20.3657 35.9388C20.3657 35.6999 20.4887 35.4032 20.9374 34.5493C21.2486 33.9486 21.6322 33.2394 21.7842 32.9571C22.0592 32.465 22.0664 32.4578 21.8855 32.5084C21.7842 32.5374 21.2776 32.6749 20.7638 32.8052C20.2499 32.9427 19.4321 33.1091 18.9545 33.1815C18.3394 33.2756 17.6591 33.3117 16.6387 33.3117C15.64 33.3117 14.9308 33.2756 14.359 33.1887C13.9031 33.1164 13.1215 32.9644 12.6222 32.8413C12.1228 32.7183 11.3629 32.4867 10.9215 32.3275C10.48 32.1683 9.7708 31.8571 9.32934 31.64C8.89513 31.4229 8.27999 31.09 7.96156 30.9091C7.65037 30.7209 7.0497 30.3084 6.62272 29.99C6.20298 29.6716 5.51546 29.0854 5.10296 28.6873C4.69045 28.2893 4.1332 27.7031 3.86544 27.3847C3.59767 27.0662 3.1345 26.4511 2.83779 26.0097C2.54107 25.5682 2.15028 24.9386 1.96211 24.5984C1.78119 24.2583 1.48447 23.6432 1.31079 23.2234C1.1371 22.8037 0.883806 22.1379 0.760778 21.7398C0.630512 21.3418 0.464062 20.7556 0.391693 20.4372C0.319323 20.1188 0.196294 19.4819 0.123925 19.026C0.0298443 18.4036 -0.00634055 17.7957 0.000896414 16.6016C0.000896414 15.2989 0.0370812 14.8358 0.167347 14.0687C0.25419 13.5476 0.384456 12.8818 0.464062 12.5851C0.536432 12.2884 0.739067 11.6515 0.89828 11.1739C1.06473 10.6962 1.41934 9.84951 1.69435 9.29226C1.96935 8.73502 2.41804 7.93895 2.70028 7.51921C2.97529 7.09946 3.41674 6.49879 3.67727 6.18037C3.93057 5.86194 4.49505 5.25404 4.92927 4.82706C5.35625 4.40007 5.94245 3.87178 6.21745 3.64743C6.49245 3.42308 7.06417 3.01058 7.48392 2.73557C7.90366 2.45333 8.69973 2.00464 9.25698 1.72963C9.81422 1.45463 10.6899 1.08554 11.211 0.911858C11.732 0.730933 12.4123 0.528298 12.7307 0.455929C13.0491 0.383559 13.7149 0.253294 14.2143 0.16645C14.9163 0.0506588 15.4373 0.00723697 16.5301 0V0ZM14.0696 1.44016C13.809 1.49081 13.2735 1.60661 12.8755 1.70069C12.4774 1.802 11.9057 1.96845 11.609 2.06977C11.3123 2.17109 10.7261 2.40991 10.3063 2.59083C9.88659 2.77899 9.20632 3.13361 8.78657 3.37966C8.36683 3.63296 7.73721 4.0527 7.37536 4.32047C7.02075 4.58824 6.40561 5.11653 6.00758 5.49286C5.60955 5.86918 5.04506 6.46985 4.74111 6.8317C4.44439 7.19354 3.97399 7.82316 3.70622 8.2429C3.43122 8.66265 3.06937 9.27779 2.89568 9.61793C2.722 9.95806 2.42528 10.6166 2.24436 11.0798C2.06343 11.5502 1.81737 12.3173 1.69435 12.7805C1.57855 13.2509 1.42658 13.9601 1.36868 14.3581C1.31079 14.7562 1.23842 15.5233 1.21671 16.0588C1.18776 16.6305 1.20223 17.4266 1.25289 17.9766C1.30355 18.4904 1.41934 19.3082 1.52066 19.7859C1.61474 20.2635 1.83909 21.0813 2.01277 21.5951C2.18646 22.1089 2.49041 22.876 2.69305 23.2958C2.89568 23.7155 3.22858 24.3307 3.43122 24.6708C3.64109 25.011 4.03912 25.5971 4.3286 25.9735C4.61084 26.3498 5.15362 26.9794 5.52994 27.3774C5.90626 27.7682 6.50693 28.3255 6.86878 28.615C7.22339 28.9044 7.79511 29.3242 8.13525 29.5485C8.47538 29.7729 9.15566 30.1637 9.65501 30.417C10.1544 30.6703 10.8853 30.9959 11.2833 31.1479C11.6814 31.2926 12.3833 31.5097 12.8393 31.6255C13.2952 31.7341 14.0261 31.8861 14.4676 31.9512C15.0031 32.0308 15.7196 32.0742 16.6387 32.0742C17.6157 32.0815 18.2453 32.0453 18.8098 31.9512C19.2512 31.8788 19.8157 31.7775 20.0762 31.7196C20.3368 31.6545 20.771 31.5459 21.0532 31.4591C21.3355 31.3795 21.8855 31.1841 22.2835 31.0321L23.0072 30.7499C23.673 29.5992 24.3026 28.5643 24.8309 27.7103C25.3665 26.8564 26.1119 25.7129 26.481 25.1774C26.8573 24.6419 27.4869 23.7951 27.8849 23.2958C28.2757 22.7964 28.8764 22.1306 29.2093 21.8122C29.535 21.4865 29.9909 21.1247 30.208 21.0017C30.4251 20.8786 30.8304 20.6977 31.0981 20.6036C31.5541 20.4517 31.5975 20.4155 31.6554 20.1839C31.6916 20.0464 31.7712 19.6701 31.8291 19.3516C31.887 19.0332 31.9738 18.3312 32.0172 17.7957C32.0607 17.2602 32.0751 16.4641 32.0534 16.0226C32.0245 15.5812 31.9593 14.8864 31.9014 14.4667C31.8435 14.0469 31.6988 13.3305 31.583 12.8746C31.4672 12.4186 31.2718 11.7673 31.1488 11.4272C31.0258 11.087 30.7218 10.3923 30.4685 9.87122C30.2152 9.35016 29.8317 8.66988 29.629 8.35146C29.4192 8.03303 29.0501 7.51197 28.8113 7.19354C28.5652 6.87512 28.008 6.25274 27.5665 5.81128C27.1323 5.36983 26.5461 4.82706 26.2638 4.60995C25.9816 4.39284 25.4461 4.00928 25.0697 3.75599C24.6934 3.50993 24.0059 3.11913 23.55 2.88755C23.0941 2.65597 22.3921 2.35201 21.994 2.20004C21.596 2.0553 20.9736 1.85266 20.619 1.75858C20.2644 1.6645 19.5769 1.51976 19.0992 1.43292C18.5492 1.34608 17.7676 1.28094 16.9643 1.25923C16.2696 1.24476 15.4373 1.25923 15.1189 1.29542C14.8005 1.3316 14.3301 1.39673 14.0696 1.44016ZM30.7508 22.1162C30.5481 22.2392 30.1501 22.5866 29.8606 22.8905C29.5784 23.1945 29.0863 23.759 28.7751 24.1498C28.4711 24.5333 27.8849 25.3221 27.4869 25.9011C27.0816 26.4801 26.3941 27.5222 25.9599 28.2169C25.5184 28.9117 24.773 30.1637 24.2882 31.0032C23.8105 31.8426 23.0579 33.1887 22.6237 34.0065C22.1822 34.8243 21.8421 35.4973 21.871 35.5118C21.9 35.519 22.573 35.1861 23.3691 34.7591C24.1651 34.3322 25.4171 33.6446 26.1553 33.2249C26.8935 32.8052 28.0007 32.1538 28.6159 31.7775C29.231 31.4012 30.3093 30.7064 31.0041 30.236C31.6988 29.7656 32.6613 29.0781 33.139 28.709C33.6166 28.34 34.2679 27.7755 34.5936 27.457C35.0133 27.0445 35.2377 26.7478 35.4041 26.4077C35.5272 26.1472 35.6719 25.6912 35.7226 25.3945C35.7949 24.9603 35.7949 24.7504 35.7226 24.3451C35.6719 24.0629 35.5272 23.6287 35.3969 23.3754C35.2666 23.1221 34.9989 22.753 34.8035 22.5576C34.5936 22.3477 34.2173 22.0872 33.8988 21.9352C33.3995 21.6964 33.2982 21.6675 32.6324 21.653C32.0896 21.6385 31.8074 21.6602 31.5106 21.7616C31.2935 21.8339 30.9462 21.9931 30.7508 22.1162ZM16.617 2.45333C17.044 2.45333 17.4058 2.48952 17.5144 2.54741C17.6229 2.59083 17.7532 2.7211 17.8038 2.83689C17.8617 2.94544 17.8834 3.10466 17.8617 3.19874C17.8328 3.28558 17.7459 3.43032 17.6591 3.5244C17.5144 3.67638 17.4492 3.69085 16.6387 3.69085C15.8281 3.69085 15.763 3.67638 15.6183 3.5244C15.5314 3.43032 15.4446 3.28558 15.4156 3.19874C15.3939 3.10466 15.4156 2.94544 15.4663 2.84413C15.5097 2.73557 15.6327 2.61254 15.7341 2.55465C15.8499 2.49675 16.1755 2.46057 16.6242 2.45333H16.617ZM12.6005 3.11189C12.7814 3.10466 12.8755 3.15532 13.0202 3.34348C13.1649 3.5244 13.2011 3.62572 13.1649 3.79217C13.136 3.9152 13.0636 4.05994 12.9913 4.12507C12.9261 4.1902 12.5715 4.35665 12.2169 4.48692C11.8623 4.61718 11.4787 4.72574 11.3702 4.72574C11.2616 4.73298 11.1024 4.66061 10.9938 4.55205C10.8563 4.42179 10.7984 4.29876 10.7984 4.11783C10.7984 3.94897 10.8539 3.81147 10.9649 3.70533C11.059 3.62572 11.4064 3.45203 11.7465 3.33624C12.0866 3.21321 12.4702 3.11189 12.6005 3.11189ZM20.648 3.10466C20.7638 3.10466 21.1473 3.20598 21.5019 3.33624C21.8493 3.45927 22.2039 3.64019 22.298 3.73427C22.3848 3.82835 22.4572 3.98757 22.4572 4.10336C22.4572 4.21191 22.4065 4.37113 22.3486 4.46521C22.2908 4.55205 22.1532 4.66061 22.0447 4.69679C21.8782 4.76192 21.7118 4.72574 21.0894 4.50139C20.5756 4.31323 20.2933 4.16849 20.1993 4.04546C20.1269 3.94415 20.069 3.77046 20.069 3.6619C20.0762 3.55335 20.1558 3.37966 20.2499 3.28558C20.3585 3.16979 20.5032 3.10466 20.648 3.10466ZM8.35236 5.27575C8.46815 5.27575 8.62012 5.3047 8.69249 5.34088C8.75763 5.36983 8.85894 5.49286 8.9096 5.60865C8.9675 5.72444 8.99644 5.89813 8.97473 5.99944C8.95302 6.108 8.69973 6.383 8.33064 6.70143C7.99774 6.99091 7.6359 7.2442 7.51287 7.26591C7.33918 7.30933 7.2451 7.27315 7.06418 7.12841C6.88325 6.98367 6.82536 6.88235 6.82536 6.70867C6.82536 6.5784 6.86878 6.40471 6.91944 6.32511C6.97733 6.2455 7.27405 5.97773 7.578 5.73168C7.98327 5.40601 8.20038 5.27575 8.35236 5.27575ZM24.8816 5.27575C25.0842 5.27575 25.229 5.35535 25.627 5.68102C25.8948 5.90536 26.1842 6.16589 26.2783 6.25997C26.3796 6.36853 26.4375 6.52051 26.4375 6.67248C26.4375 6.79551 26.3941 6.95472 26.3435 7.01986C26.2928 7.08499 26.1842 7.17183 26.0974 7.21525C26.0033 7.26591 25.8658 7.3021 25.7862 7.3021C25.7066 7.3021 25.4678 7.1646 25.2651 6.99815C25.0553 6.82446 24.7441 6.55669 24.5776 6.39748C24.3388 6.17313 24.2737 6.05734 24.2737 5.86918C24.2737 5.7172 24.3388 5.56523 24.4474 5.45667C24.5704 5.33364 24.7007 5.27575 24.8816 5.27575ZM5.19704 8.74949C5.32007 8.74949 5.48652 8.81462 5.5806 8.89423C5.66744 8.97384 5.75428 9.11134 5.78323 9.20542C5.80494 9.29226 5.79047 9.42976 5.76152 9.50937C5.73257 9.58898 5.56612 9.90017 5.39967 10.1969C5.23322 10.4936 5.03782 10.7903 4.96546 10.8627C4.89309 10.9278 4.77006 10.9857 4.69045 11.0002C4.61084 11.0147 4.45887 11.0002 4.35031 10.9712C4.22005 10.9423 4.10426 10.8337 4.03189 10.689C3.96675 10.5587 3.93781 10.3778 3.95952 10.291C3.98123 10.1969 4.16939 9.84951 4.37202 9.50937C4.57466 9.17647 4.799 8.86528 4.86414 8.8291C4.92927 8.78568 5.07401 8.74949 5.19704 8.74949ZM28.0514 8.75673C28.1599 8.74949 28.3047 8.77844 28.3698 8.81462C28.4422 8.84357 28.6376 9.09686 28.804 9.37187C28.9705 9.64687 29.1586 9.99425 29.2238 10.1462C29.3178 10.3706 29.3178 10.4502 29.2382 10.6528C29.1731 10.7976 29.0573 10.9133 28.9126 10.9785C28.7606 11.0364 28.6231 11.0436 28.5145 11.0002C28.4277 10.964 28.3047 10.8772 28.2395 10.8048C28.1744 10.7252 27.9718 10.4068 27.7908 10.0883C27.6027 9.7699 27.4507 9.45148 27.4507 9.38634C27.4507 9.31397 27.5014 9.162 27.5593 9.04621C27.6172 8.93042 27.7112 8.82186 27.7619 8.80015C27.8053 8.77844 27.9356 8.75673 28.0441 8.75673H28.0514ZM12.2386 9.26332C12.4919 9.25608 12.9334 9.2995 13.2156 9.3574C13.5051 9.40805 13.9538 9.53832 14.2143 9.64687C14.4748 9.74819 14.8584 9.94359 15.0755 10.0739C15.2854 10.1969 15.6617 10.5008 15.915 10.7397C16.161 10.9785 16.4216 11.2535 16.6025 11.5357L17.0222 11.0726C17.2466 10.8193 17.6301 10.4719 17.869 10.3054C18.1078 10.1318 18.4624 9.91464 18.665 9.81332C18.8604 9.71201 19.2729 9.56003 19.5697 9.46595C20.0111 9.32845 20.2716 9.29226 20.9809 9.2995C21.7625 9.2995 21.9144 9.32121 22.4644 9.51661C22.8046 9.6324 23.2605 9.84951 23.4776 9.99425C23.6947 10.139 24.0493 10.4285 24.2664 10.6456C24.4836 10.8554 24.7875 11.2245 24.9395 11.4634C25.0915 11.7022 25.3158 12.1292 25.4316 12.4042C25.5401 12.6864 25.6921 13.1858 25.7645 13.5259C25.8586 13.9963 25.873 14.3581 25.8441 15.0818C25.8224 15.7259 25.7573 16.1819 25.6559 16.5292C25.5763 16.8115 25.3665 17.3325 25.1855 17.6871C25.0119 18.049 24.6138 18.6786 24.3099 19.0984C23.9697 19.5615 23.2316 20.3721 22.4355 21.1681C21.7118 21.8846 20.3295 23.1872 19.3525 24.0557C18.3756 24.9169 17.4492 25.6912 17.29 25.7708C17.0657 25.8866 16.892 25.9156 16.5229 25.8939C16.1538 25.8721 15.9801 25.8215 15.792 25.684C15.6472 25.5827 14.8077 24.8517 13.9176 24.0557C13.0274 23.2596 11.9274 22.2537 11.4642 21.8195C11.0083 21.3925 10.357 20.7411 10.0241 20.3721C9.69119 20.0102 9.22803 19.4674 9.00368 19.1707C8.77934 18.874 8.4392 18.3674 8.25827 18.049C8.07735 17.7306 7.82406 17.1806 7.70827 16.8187C7.58524 16.4641 7.45497 15.8562 7.41155 15.4799C7.35365 14.9878 7.35365 14.597 7.41155 14.1048C7.45497 13.7285 7.58524 13.1279 7.70827 12.766C7.83129 12.4114 8.01945 11.9555 8.13525 11.7528C8.25104 11.5574 8.48986 11.2101 8.66354 10.9929C8.83723 10.7758 9.18461 10.4357 9.44514 10.2403C9.69843 10.0449 10.1037 9.79885 10.3425 9.68306C10.5813 9.5745 11.0011 9.437 11.2833 9.37911C11.5583 9.31397 11.9925 9.26332 12.2386 9.26332ZM10.6392 10.9423C10.4077 11.0726 10.0313 11.3693 9.80698 11.6081C9.58264 11.8469 9.3004 12.2377 9.17013 12.4765C9.0471 12.7153 8.87342 13.1568 8.78657 13.4535C8.68526 13.8371 8.6346 14.2134 8.6346 14.7562C8.6346 15.241 8.67078 15.6825 8.75039 15.9865C8.81552 16.247 8.97473 16.6884 9.105 16.9634C9.23526 17.2457 9.48132 17.6799 9.65501 17.9404C9.8287 18.201 10.1761 18.6569 10.4221 18.9536C10.6682 19.2503 11.3267 19.9378 11.8768 20.4806C12.4268 21.0234 13.6788 22.1885 14.663 23.0714C15.8571 24.1353 16.5157 24.6708 16.617 24.6708C16.7328 24.6708 17.3551 24.1642 18.5927 23.0714C19.5841 22.1885 20.9374 20.9221 21.596 20.2635C22.2546 19.6049 23.0144 18.7727 23.275 18.4108C23.5427 18.0562 23.8901 17.499 24.0493 17.1806C24.2085 16.8621 24.4112 16.3411 24.4908 16.0226C24.5849 15.6536 24.6355 15.2121 24.6355 14.8141C24.6355 14.4595 24.5849 13.9384 24.5197 13.6562C24.4546 13.3667 24.2954 12.889 24.1579 12.6068C23.9842 12.2377 23.7671 11.9265 23.4197 11.5791C23.152 11.3114 22.7612 11.0002 22.5513 10.8916C22.3486 10.7903 21.9868 10.6528 21.7552 10.5949C21.5309 10.537 21.1618 10.4864 20.9447 10.4864C20.7276 10.4864 20.3368 10.537 20.0762 10.6022C19.8157 10.66 19.396 10.8265 19.1354 10.9568C18.8749 11.0943 18.4696 11.391 18.2236 11.6226C17.9775 11.8541 17.6229 12.2884 17.4347 12.5851C17.2466 12.8818 17.0367 13.1713 16.9716 13.2219C16.9064 13.2726 16.7472 13.3088 16.617 13.3088C16.4722 13.3088 16.3275 13.2509 16.2189 13.1423C16.1321 13.0482 15.9439 12.7805 15.8064 12.5561C15.6689 12.3246 15.3143 11.912 15.0248 11.637C14.6702 11.2969 14.3373 11.0581 13.9755 10.8916C13.6932 10.7541 13.2807 10.6094 13.0709 10.566C12.8682 10.5225 12.5064 10.4864 12.2748 10.4936C12.0504 10.4936 11.6814 10.5443 11.4642 10.6022C11.2471 10.66 10.8708 10.8193 10.6392 10.9423ZM3.37332 13.0917C3.50359 13.0917 3.6628 13.1351 3.72793 13.1858C3.79307 13.2364 3.87991 13.345 3.92333 13.439C3.9957 13.5621 3.98123 13.7719 3.86544 14.416C3.77136 14.9226 3.67004 15.2772 3.59043 15.3568C3.5253 15.422 3.3878 15.5016 3.28648 15.5233C3.18516 15.545 3.02595 15.5233 2.92463 15.4871C2.82331 15.4437 2.70028 15.3351 2.64239 15.2483C2.57726 15.1325 2.56278 14.9516 2.58449 14.6476C2.61344 14.4088 2.67134 14.0325 2.71476 13.8154C2.76542 13.5838 2.87397 13.345 2.96805 13.2581C3.07661 13.1496 3.22135 13.0917 3.37332 13.0917ZM29.8823 13.0917C29.9981 13.0844 30.1718 13.1423 30.2659 13.2147C30.3744 13.3015 30.4685 13.4897 30.5337 13.7792C30.5916 14.018 30.6567 14.416 30.6784 14.6693C30.7146 15.0963 30.7073 15.1253 30.4975 15.3351C30.3165 15.5161 30.2369 15.545 30.0415 15.5161C29.9185 15.4943 29.7521 15.422 29.6797 15.3496C29.5928 15.27 29.4988 14.9516 29.4047 14.4305C29.2817 13.7575 29.2744 13.6055 29.354 13.4246C29.4047 13.3088 29.4988 13.193 29.5567 13.1568C29.6146 13.1206 29.7665 13.0917 29.8823 13.0917ZM3.1924 17.7957C3.28648 17.7957 3.43846 17.8681 3.53977 17.9621C3.68451 18.0924 3.74964 18.2661 3.86544 18.903C3.97399 19.4674 3.98846 19.728 3.93781 19.8582C3.90162 19.9595 3.79307 20.0898 3.70622 20.1477C3.61214 20.2056 3.48188 20.2563 3.41674 20.2563C3.34437 20.2563 3.1924 20.2056 3.06937 20.1477C2.91739 20.0681 2.83055 19.9596 2.77989 19.7714C2.74371 19.6194 2.67134 19.2503 2.62791 18.9536C2.57726 18.6569 2.56278 18.324 2.58449 18.2154C2.61344 18.0996 2.722 17.9694 2.83779 17.9043C2.94634 17.8464 3.10555 17.8029 3.19964 17.7957H3.1924ZM30.0633 17.7957C30.1356 17.7957 30.2804 17.8391 30.3817 17.8898C30.483 17.9332 30.606 18.0779 30.6494 18.1937C30.7146 18.3674 30.7073 18.5628 30.5915 19.1635C30.4758 19.8003 30.4251 19.9378 30.2514 20.0826C30.1429 20.1767 29.9764 20.2563 29.8751 20.2563C29.7738 20.2563 29.6001 20.1622 29.4771 20.0392C29.3613 19.9234 29.2599 19.7497 29.2672 19.6628C29.2672 19.5688 29.3251 19.1852 29.4047 18.8089C29.5132 18.2444 29.5711 18.0924 29.7304 17.9621C29.8317 17.8681 29.9836 17.7957 30.0633 17.7957ZM4.59637 22.2899C4.66874 22.2826 4.83519 22.3912 4.95822 22.5214C5.08848 22.6589 5.32007 22.9846 5.46481 23.2451C5.61678 23.5129 5.75428 23.8313 5.77599 23.9471C5.80494 24.1208 5.76876 24.2076 5.60231 24.3813C5.45757 24.5333 5.32007 24.5984 5.16809 24.5984C5.01611 24.5984 4.87861 24.5333 4.74111 24.3886C4.63255 24.28 4.40821 23.9254 4.24176 23.6142C4.07531 23.303 3.93057 22.9774 3.93057 22.8978C3.93057 22.8181 3.98123 22.6806 4.04636 22.5866C4.11149 22.4925 4.23452 22.3912 4.32136 22.355C4.40097 22.3188 4.53124 22.2899 4.59637 22.2899ZM33.385 23.4767C33.4863 23.4984 33.6383 23.5997 33.7252 23.6938C33.8265 23.8024 33.8916 23.9688 33.8916 24.1136C33.8916 24.309 33.7758 24.4537 33.11 25.1267C32.4442 25.7853 32.2922 25.9011 32.0968 25.9011C31.9666 25.9011 31.8146 25.8794 31.7495 25.8504C31.6843 25.8143 31.583 25.7057 31.5324 25.5971C31.4745 25.4814 31.4455 25.3077 31.4672 25.1991C31.4889 25.0688 31.7567 24.7504 32.2126 24.3017C32.5962 23.9182 32.9797 23.5636 33.0594 23.5201C33.139 23.4767 33.2837 23.4622 33.385 23.4767ZM7.3826 26.0458C7.49116 26.0458 7.7155 26.1327 7.87471 26.2485C8.03393 26.3643 8.35236 26.632 8.5767 26.8491C8.88789 27.1386 8.99644 27.2906 8.99644 27.4426C8.99644 27.5656 8.91684 27.7176 8.78657 27.8551C8.64183 28.0071 8.50433 28.0722 8.35236 28.0722C8.1859 28.0722 7.99774 27.9636 7.6359 27.6669C7.36813 27.4426 7.07865 27.182 6.98457 27.088C6.88325 26.9722 6.82536 26.8274 6.82536 26.661C6.83018 26.4873 6.89049 26.3426 7.00628 26.2268C7.1076 26.1182 7.26681 26.0458 7.3826 26.0458ZM11.3485 28.5788C11.3846 28.5788 11.7465 28.6946 12.1445 28.8321C12.5787 28.9913 12.9334 29.1577 13.0274 29.2663C13.1215 29.3676 13.1939 29.5268 13.1939 29.6281C13.1939 29.7295 13.0998 29.9031 12.984 30.0262C12.8537 30.1564 12.6945 30.2433 12.586 30.2433C12.4847 30.2433 12.1156 30.142 11.761 30.0117C11.4136 29.8887 11.059 29.7077 10.9649 29.6137C10.8636 29.5123 10.8057 29.3604 10.8057 29.2156C10.8057 29.0854 10.8491 28.9261 10.8998 28.861C10.9504 28.8031 11.0517 28.709 11.1314 28.6656C11.211 28.6222 11.305 28.5788 11.3485 28.5788ZM21.8565 28.586C21.9506 28.5788 22.1171 28.6729 22.2401 28.7959C22.3704 28.9261 22.4572 29.0926 22.4572 29.2156C22.4644 29.3242 22.4065 29.4834 22.3342 29.5775C22.2618 29.6716 21.9217 29.8452 21.5309 29.99C21.169 30.1275 20.7855 30.2433 20.6841 30.2433C20.5828 30.2433 20.4091 30.1492 20.2861 30.0262C20.1631 29.9031 20.069 29.7295 20.069 29.6281C20.069 29.5268 20.1414 29.3676 20.2282 29.2663C20.3223 29.1722 20.6841 28.9768 21.046 28.8393C21.4006 28.709 21.7697 28.5932 21.8565 28.586ZM16.7183 29.6209C17.3986 29.6281 17.4637 29.6426 17.6374 29.8091C17.7749 29.9393 17.8328 30.0624 17.8328 30.2433C17.8328 30.4242 17.7749 30.5472 17.6374 30.6775C17.4637 30.8512 17.4058 30.8584 16.6459 30.8584C16.1828 30.8584 15.7702 30.8222 15.6906 30.7788C15.611 30.7354 15.5025 30.5834 15.4446 30.4531C15.365 30.2433 15.365 30.1781 15.4446 29.9972C15.5025 29.8814 15.64 29.7439 15.763 29.7005C15.886 29.6498 16.2985 29.6137 16.7183 29.6209Z" fill="white"/>
</svg>
