<svg width="35" height="35" viewBox="0 0 35 35" fill="none" xmlns="http://www.w3.org/2000/svg">
<path d="M28.1641 13.1249C28.1646 11.0506 27.5601 9.02117 26.4247 7.28519C25.2893 5.54921 23.6723 4.18205 21.7716 3.35117C19.871 2.52028 17.7693 2.26173 15.724 2.60719C13.6786 2.95265 11.7784 3.88713 10.2561 5.29616C8.73385 6.70519 7.65553 8.5276 7.15327 10.5402C6.65101 12.5528 6.74661 14.6681 7.42836 16.6272C8.11011 18.5863 9.34842 20.304 10.9916 21.57C12.6348 22.836 14.6115 23.5952 16.6797 23.7548V27.6171H12.0313C11.8137 27.6171 11.605 27.7035 11.4512 27.8574C11.2974 28.0112 11.2109 28.2198 11.2109 28.4374C11.2109 28.655 11.2974 28.8636 11.4512 29.0175C11.605 29.1713 11.8137 29.2577 12.0313 29.2577H16.6797V32.8124C16.6797 33.03 16.7661 33.2386 16.92 33.3925C17.0738 33.5463 17.2824 33.6327 17.5 33.6327C17.7176 33.6327 17.9262 33.5463 18.0801 33.3925C18.2339 33.2386 18.3203 33.03 18.3203 32.8124V29.2577H22.9688C23.1863 29.2577 23.395 29.1713 23.5488 29.0175C23.7026 28.8636 23.7891 28.655 23.7891 28.4374C23.7891 28.2198 23.7026 28.0112 23.5488 27.8574C23.395 27.7035 23.1863 27.6171 22.9688 27.6171H18.3203V23.7548C20.9971 23.5454 23.4968 22.3351 25.3211 20.365C27.1455 18.395 28.1606 15.8099 28.1641 13.1249ZM8.47656 13.1249C8.47656 11.3402 9.00578 9.59565 9.99729 8.11175C10.9888 6.62785 12.3981 5.4713 14.0469 4.78833C15.6957 4.10537 17.51 3.92668 19.2604 4.27485C21.0108 4.62302 22.6186 5.48242 23.8805 6.74437C25.1425 8.00632 26.0019 9.61414 26.3501 11.3645C26.6982 13.1149 26.5195 14.9292 25.8366 16.578C25.1536 18.2268 23.9971 19.6361 22.5132 20.6276C21.0293 21.6191 19.2847 22.1483 17.5 22.1483C15.1077 22.1454 12.8143 21.1938 11.1227 19.5022C9.43107 17.8106 8.47946 15.5172 8.47656 13.1249Z" fill="white"/>
</svg>
