<svg width="33" height="25" viewBox="0 0 33 25" fill="none" xmlns="http://www.w3.org/2000/svg">
<path d="M4.4 23.2105V24.3158H6.6V23.2105H4.4ZM15.4 23.2105V24.3158H17.6V23.2105H15.4ZM6.6 23.2105V22.1053H4.4V23.2105H6.6ZM15.4 22.1053V23.2105H17.6V22.1053H15.4ZM11 17.6842C12.167 17.6842 13.2861 18.15 14.1113 18.9791C14.9364 19.8082 15.4 20.9327 15.4 22.1053H17.6C17.6 20.3465 16.9046 18.6597 15.6669 17.416C14.4292 16.1724 12.7504 15.4737 11 15.4737V17.6842ZM6.6 22.1053C6.6 20.9327 7.06357 19.8082 7.88873 18.9791C8.71389 18.15 9.83305 17.6842 11 17.6842V15.4737C9.24957 15.4737 7.57084 16.1724 6.3331 17.416C5.09536 18.6597 4.4 20.3465 4.4 22.1053H6.6ZM11 4.42105C9.83305 4.42105 8.71389 4.88684 7.88873 5.71595C7.06357 6.54506 6.6 7.66957 6.6 8.84211H8.8C8.8 8.25584 9.03179 7.69358 9.44437 7.27903C9.85695 6.86447 10.4165 6.63158 11 6.63158V4.42105ZM15.4 8.84211C15.4 7.66957 14.9364 6.54506 14.1113 5.71595C13.2861 4.88684 12.167 4.42105 11 4.42105V6.63158C11.5835 6.63158 12.1431 6.86447 12.5556 7.27903C12.9682 7.69358 13.2 8.25584 13.2 8.84211H15.4ZM11 13.2632C12.167 13.2632 13.2861 12.7974 14.1113 11.9683C14.9364 11.1392 15.4 10.0146 15.4 8.84211H13.2C13.2 9.42837 12.9682 9.99063 12.5556 10.4052C12.1431 10.8197 11.5835 11.0526 11 11.0526V13.2632ZM11 11.0526C10.4165 11.0526 9.85695 10.8197 9.44437 10.4052C9.03179 9.99063 8.8 9.42837 8.8 8.84211H6.6C6.6 10.0146 7.06357 11.1392 7.88873 11.9683C8.71389 12.7974 9.83305 13.2632 11 13.2632V11.0526ZM3.3 2.21053H29.7V0H3.3V2.21053ZM30.8 3.31579V21H33V3.31579H30.8ZM29.7 22.1053H3.3V24.3158H29.7V22.1053ZM2.2 21V3.31579H0V21H2.2ZM3.3 22.1053C3.00826 22.1053 2.72847 21.9888 2.52218 21.7815C2.31589 21.5743 2.2 21.2931 2.2 21H0C0 21.8794 0.347678 22.7228 0.966548 23.3446C1.58542 23.9664 2.42479 24.3158 3.3 24.3158V22.1053ZM30.8 21C30.8 21.2931 30.6841 21.5743 30.4778 21.7815C30.2715 21.9888 29.9917 22.1053 29.7 22.1053V24.3158C30.5752 24.3158 31.4146 23.9664 32.0335 23.3446C32.6523 22.7228 33 21.8794 33 21H30.8ZM29.7 2.21053C29.9917 2.21053 30.2715 2.32697 30.4778 2.53425C30.6841 2.74153 30.8 3.02266 30.8 3.31579H33C33 2.43639 32.6523 1.593 32.0335 0.971172C31.4146 0.349341 30.5752 0 29.7 0V2.21053ZM3.3 0C2.42479 0 1.58542 0.349341 0.966548 0.971172C0.347678 1.593 0 2.43639 0 3.31579H2.2C2.2 3.02266 2.31589 2.74153 2.52218 2.53425C2.72847 2.32697 3.00826 2.21053 3.3 2.21053V0ZM19.8 8.84211H26.4V6.63158H19.8V8.84211ZM19.8 15.4737H26.4V13.2632H19.8V15.4737Z" fill="white"/>
</svg>
