<svg width="35" height="35" viewBox="0 0 35 35" fill="none" xmlns="http://www.w3.org/2000/svg">
<path fill-rule="evenodd" clip-rule="evenodd" d="M15.6172 0C16.3488 0 17.1351 0.0273491 17.3607 0.0615355C17.5863 0.102559 18.1265 0.191444 18.5572 0.266654C18.988 0.335026 19.7127 0.505958 20.164 0.642704C20.6152 0.779449 21.3195 1.03243 21.7365 1.19652C22.1536 1.36745 22.7485 1.64778 23.0698 1.81871C23.3912 1.98965 24.0065 2.35886 24.4373 2.64602C24.868 2.93319 25.4834 3.39129 25.8047 3.65794C26.1261 3.92459 26.6936 4.46474 27.0696 4.85446C27.4457 5.24419 27.9995 5.89373 28.3003 6.29029C28.6012 6.69369 28.9909 7.26118 29.1687 7.55519C29.3396 7.85603 29.6541 8.43719 29.8592 8.84743C30.0643 9.2645 30.3583 9.93456 30.5088 10.3516C30.6592 10.7687 30.878 11.4866 30.9942 11.9584C31.1104 12.4302 31.2472 13.1344 31.3019 13.531C31.3566 13.9275 31.425 14.6318 31.4523 15.1035C31.4728 15.5958 31.4591 16.3479 31.4181 16.8812C31.3703 17.3872 31.2882 18.0641 31.2335 18.3854C31.1788 18.7068 31.1173 19.035 31.1036 19.1239C31.0763 19.2332 31.1036 19.2743 31.1925 19.2743C31.254 19.2743 31.4933 19.3221 31.719 19.3768C31.9446 19.4315 32.3753 19.6025 32.6762 19.746C33.0386 19.9238 33.3667 20.1494 33.6334 20.4093C33.8659 20.6349 34.1735 21.0246 34.3308 21.2913C34.4881 21.5579 34.6795 21.9818 34.7615 22.2485C34.8368 22.5151 34.9256 22.9596 34.9462 23.2399C34.9735 23.5954 34.9462 23.9373 34.8709 24.3339C34.8026 24.6757 34.6453 25.1407 34.4881 25.462C34.3308 25.7765 34.0505 26.1936 33.8248 26.4466C33.606 26.6859 33.1685 27.1098 32.8471 27.3764C32.5258 27.6499 31.9309 28.1217 31.5138 28.4294C31.0968 28.7439 30.2421 29.3456 29.5994 29.7695C28.9567 30.1934 27.9174 30.8566 27.2747 31.2395C26.632 31.6224 25.6201 32.2172 25.0184 32.5591C24.4167 32.901 23.1519 33.5847 22.2151 34.0906C20.7315 34.8769 20.4648 35 20.1982 35C19.9794 35 19.8289 34.9453 19.6717 34.8291C19.5486 34.7333 19.3982 34.5624 19.3435 34.453C19.2888 34.3436 19.2409 34.118 19.2409 33.9539C19.2409 33.7283 19.3572 33.4479 19.7811 32.6411C20.0751 32.0736 20.4375 31.4036 20.581 31.1369C20.8409 30.672 20.8477 30.6652 20.6768 30.713C20.581 30.7404 20.1024 30.8703 19.617 30.9934C19.1315 31.1233 18.3589 31.2805 17.9077 31.3489C17.3265 31.4378 16.6838 31.472 15.7197 31.472C14.7762 31.472 14.1061 31.4378 13.566 31.3557C13.1352 31.2874 12.3968 31.1438 11.9251 31.0275C11.4533 30.9113 10.7354 30.6925 10.3183 30.5421C9.90122 30.3917 9.23117 30.0977 8.81409 29.8926C8.40386 29.6874 7.82269 29.3729 7.52185 29.202C7.22785 29.0242 6.66035 28.6345 6.25695 28.3337C5.86039 28.0328 5.21085 27.479 4.82113 27.1029C4.4314 26.7269 3.90493 26.1731 3.65195 25.8722C3.39897 25.5714 2.96139 24.9902 2.68106 24.5732C2.40073 24.1561 2.03152 23.5612 1.85375 23.2399C1.68282 22.9185 1.40249 22.3374 1.23839 21.9408C1.0743 21.5442 0.834994 20.9152 0.718761 20.5392C0.59569 20.1631 0.438432 19.6093 0.37006 19.3085C0.301687 19.0076 0.185453 18.4059 0.117081 17.9752C0.028196 17.3872 -0.00599037 16.8129 0.000846906 15.6847C0.000846906 14.454 0.0350333 14.0164 0.158104 13.2917C0.240151 12.7994 0.363222 12.1703 0.438432 11.89C0.506805 11.6097 0.698249 11.008 0.848669 10.5567C1.00593 10.1055 1.34095 9.30553 1.60077 8.77906C1.86059 8.25259 2.2845 7.50049 2.55115 7.10393C2.81097 6.70736 3.22804 6.13987 3.47418 5.83903C3.71349 5.53819 4.24679 4.96386 4.65703 4.56046C5.06043 4.15706 5.61425 3.65794 5.87406 3.44599C6.13388 3.23403 6.67403 2.84431 7.07059 2.58449C7.46715 2.31784 8.21925 1.89392 8.74572 1.63411C9.27219 1.37429 10.0995 1.02559 10.5918 0.861496C11.0841 0.690565 11.7268 0.499121 12.0276 0.430748C12.3285 0.362375 12.9575 0.239305 13.4293 0.157257C14.0925 0.0478609 14.5848 0.00683727 15.6172 0V0ZM13.2925 1.36062C13.0464 1.40848 12.5404 1.51787 12.1644 1.60676C11.7883 1.70248 11.2482 1.85974 10.9678 1.95546C10.6875 2.05118 10.1337 2.27681 9.73712 2.44774C9.34056 2.62551 8.69786 2.96054 8.3013 3.19301C7.90473 3.43231 7.30989 3.82887 6.96803 4.08185C6.633 4.33483 6.05183 4.83395 5.67578 5.18949C5.29973 5.54503 4.76643 6.11252 4.47926 6.45439C4.19893 6.79625 3.75451 7.39109 3.50153 7.78765C3.24171 8.18422 2.89985 8.76538 2.73576 9.08673C2.57166 9.40809 2.29133 10.0303 2.1204 10.4679C1.94947 10.9123 1.717 11.637 1.60077 12.0746C1.49137 12.519 1.34779 13.1891 1.29309 13.5651C1.23839 13.9412 1.17002 14.6659 1.14951 15.1719C1.12216 15.7121 1.13583 16.4642 1.1837 16.9838C1.23156 17.4692 1.34095 18.2418 1.43667 18.6931C1.52556 19.1444 1.73751 19.917 1.90161 20.4024C2.0657 20.8879 2.35287 21.6126 2.54431 22.0092C2.73576 22.4057 3.05027 22.9869 3.24171 23.3083C3.44 23.6296 3.81605 24.1834 4.08954 24.539C4.35619 24.8945 4.86899 25.4894 5.22452 25.8654C5.58006 26.2346 6.14756 26.7611 6.48942 27.0346C6.82445 27.3081 7.36459 27.7046 7.68594 27.9166C8.00729 28.1285 8.65 28.4978 9.12177 28.7371C9.59354 28.9764 10.2841 29.284 10.6602 29.4276C11.0362 29.5644 11.6994 29.7695 12.1302 29.8789C12.5609 29.9814 13.2515 30.125 13.6686 30.1866C14.1745 30.2618 14.8514 30.3028 15.7197 30.3028C16.6428 30.3096 17.2376 30.2754 17.7709 30.1866C18.188 30.1182 18.7213 30.0225 18.9674 29.9678C19.2136 29.9062 19.6238 29.8037 19.8905 29.7216C20.1571 29.6464 20.6768 29.4618 21.0528 29.3182L21.7365 29.0516C22.3656 27.9644 22.9604 26.9867 23.4595 26.1799C23.9655 25.3731 24.6697 24.2928 25.0184 23.7869C25.374 23.2809 25.9688 22.481 26.3449 22.0092C26.7141 21.5374 27.2816 20.9084 27.5961 20.6075C27.9038 20.2999 28.3345 19.958 28.5396 19.8418C28.7447 19.7255 29.1276 19.5546 29.3806 19.4657C29.8114 19.3221 29.8524 19.2879 29.9071 19.0692C29.9413 18.9392 30.0165 18.5837 30.0712 18.2829C30.1259 17.982 30.2079 17.3188 30.2489 16.8129C30.29 16.3069 30.3036 15.5548 30.2831 15.1377C30.2558 14.7206 30.1942 14.0643 30.1395 13.6677C30.0848 13.2711 29.9481 12.5943 29.8387 12.1635C29.7293 11.7328 29.5447 11.1174 29.4285 10.7961C29.3122 10.4747 29.0251 9.81832 28.7858 9.32604C28.5465 8.83376 28.1841 8.19105 27.9926 7.89021C27.7944 7.58937 27.4457 7.09709 27.22 6.79625C26.9876 6.49541 26.4611 5.9074 26.044 5.49033C25.6338 5.07326 25.08 4.56046 24.8133 4.35534C24.5467 4.15022 24.0407 3.78785 23.6852 3.54854C23.3296 3.31608 22.6801 2.94686 22.2493 2.72807C21.8186 2.50928 21.1554 2.22211 20.7793 2.07853C20.4033 1.94179 19.8153 1.75034 19.4802 1.66146C19.1452 1.57257 18.4957 1.43583 18.0444 1.35378C17.5248 1.27173 16.7864 1.2102 16.0274 1.18969C15.371 1.17601 14.5848 1.18969 14.2839 1.22387C13.9831 1.25806 13.5386 1.31959 13.2925 1.36062ZM29.0524 20.8947C28.861 21.0109 28.4849 21.3391 28.2114 21.6263C27.9448 21.9135 27.4798 22.4468 27.1858 22.816C26.8987 23.1784 26.3449 23.9236 25.9688 24.4706C25.5859 25.0176 24.9364 26.0021 24.5261 26.6585C24.1091 27.3149 23.4048 28.4978 22.9467 29.2909C22.4955 30.084 21.7844 31.3557 21.3742 32.1283C20.9571 32.901 20.6357 33.5368 20.6631 33.5505C20.6904 33.5573 21.3263 33.2428 22.0784 32.8394C22.8305 32.436 24.0134 31.7865 24.7108 31.3899C25.4082 30.9934 26.4543 30.378 27.0354 30.0225C27.6166 29.6669 28.6353 29.0105 29.2917 28.5661C29.9481 28.1217 30.8575 27.4722 31.3087 27.1235C31.76 26.7748 32.3753 26.2415 32.683 25.9406C33.0796 25.5509 33.2915 25.2706 33.4488 24.9492C33.565 24.7031 33.7018 24.2723 33.7496 23.992C33.818 23.5818 33.818 23.3835 33.7496 23.0006C33.7018 22.7339 33.565 22.3237 33.442 22.0844C33.3189 21.8451 33.0659 21.4964 32.8813 21.3118C32.683 21.1135 32.3275 20.8674 32.0266 20.7238C31.5549 20.4981 31.4591 20.4708 30.8301 20.4571C30.3173 20.4434 30.0507 20.464 29.7703 20.5597C29.5652 20.6281 29.237 20.7785 29.0524 20.8947ZM15.6992 2.31784C16.1026 2.31784 16.4445 2.35202 16.547 2.40672C16.6496 2.44774 16.7727 2.57081 16.8205 2.68021C16.8752 2.78277 16.8958 2.93319 16.8752 3.02207C16.8479 3.10412 16.7658 3.24087 16.6838 3.32975C16.547 3.47333 16.4855 3.48701 15.7197 3.48701C14.954 3.48701 14.8924 3.47333 14.7557 3.32975C14.6736 3.24087 14.5916 3.10412 14.5642 3.02207C14.5437 2.93319 14.5642 2.78277 14.6121 2.68705C14.6531 2.58449 14.7694 2.46826 14.8651 2.41356C14.9745 2.35886 15.2822 2.32467 15.7061 2.31784H15.6992ZM11.9045 2.94003C12.0755 2.93319 12.1644 2.98105 12.3011 3.15882C12.4378 3.32975 12.472 3.42547 12.4378 3.58273C12.4105 3.69896 12.3421 3.83571 12.2738 3.89725C12.2122 3.95878 11.8772 4.11604 11.5422 4.23911C11.2071 4.36218 10.8448 4.46474 10.7422 4.46474C10.6396 4.47158 10.4892 4.4032 10.3867 4.30064C10.2568 4.17757 10.2021 4.06134 10.2021 3.89041C10.2021 3.73087 10.2545 3.60096 10.3593 3.50068C10.4482 3.42547 10.7764 3.26138 11.0977 3.15198C11.4191 3.03575 11.7815 2.94003 11.9045 2.94003ZM19.5076 2.93319C19.617 2.93319 19.9794 3.02891 20.3144 3.15198C20.6426 3.26822 20.9776 3.43915 21.0665 3.52803C21.1485 3.61692 21.2169 3.76734 21.2169 3.87673C21.2169 3.97929 21.169 4.12971 21.1143 4.2186C21.0596 4.30064 20.9297 4.4032 20.8272 4.43739C20.6699 4.49893 20.5127 4.46474 19.9247 4.25278C19.4392 4.07501 19.1726 3.93827 19.0837 3.82204C19.0153 3.72631 18.9606 3.56222 18.9606 3.45966C18.9674 3.3571 19.0427 3.19301 19.1315 3.10412C19.2341 2.99473 19.3708 2.93319 19.5076 2.93319ZM7.89106 4.98437C8.00046 4.98437 8.14404 5.01172 8.21241 5.04591C8.27395 5.07326 8.36967 5.18949 8.41753 5.29889C8.47223 5.40828 8.49958 5.57238 8.47907 5.6681C8.45855 5.77066 8.21925 6.03047 7.87055 6.33131C7.55603 6.60481 7.21417 6.84411 7.09794 6.86462C6.93384 6.90565 6.84496 6.87146 6.67403 6.73471C6.50309 6.59797 6.4484 6.50225 6.4484 6.33815C6.4484 6.21508 6.48942 6.05099 6.53728 5.97578C6.59198 5.90057 6.87231 5.64759 7.15947 5.41512C7.54236 5.10744 7.74748 4.98437 7.89106 4.98437ZM23.5074 4.98437C23.6988 4.98437 23.8356 5.05958 24.2116 5.36726C24.4646 5.57921 24.7381 5.82536 24.827 5.91424C24.9227 6.0168 24.9774 6.16038 24.9774 6.30397C24.9774 6.4202 24.9364 6.57062 24.8885 6.63215C24.8407 6.69369 24.7381 6.77574 24.6561 6.81676C24.5672 6.86462 24.4373 6.89881 24.3621 6.89881C24.2868 6.89881 24.0612 6.7689 23.8698 6.61164C23.6715 6.44755 23.3775 6.19457 23.2202 6.04415C22.9946 5.83219 22.9331 5.7228 22.9331 5.54503C22.9331 5.40145 22.9946 5.25786 23.0972 5.1553C23.2134 5.03907 23.3365 4.98437 23.5074 4.98437ZM4.91001 8.26626C5.02624 8.26626 5.1835 8.3278 5.27238 8.40301C5.35443 8.47822 5.43648 8.60813 5.46383 8.69701C5.48434 8.77906 5.47067 8.90897 5.44332 8.98418C5.41597 9.05939 5.25871 9.35339 5.10145 9.63372C4.9442 9.91405 4.75959 10.1944 4.69122 10.2627C4.62284 10.3243 4.50661 10.379 4.4314 10.3927C4.35619 10.4063 4.21261 10.3927 4.11005 10.3653C3.98698 10.338 3.87758 10.2354 3.80921 10.0987C3.74767 9.97558 3.72032 9.80465 3.74084 9.7226C3.76135 9.63372 3.93912 9.30553 4.13056 8.98418C4.322 8.66966 4.53396 8.37566 4.59549 8.34147C4.65703 8.30045 4.79378 8.26626 4.91001 8.26626ZM26.5021 8.2731C26.6047 8.26626 26.7414 8.29361 26.803 8.3278C26.8713 8.35515 27.0559 8.59445 27.2132 8.85427C27.3705 9.11408 27.5482 9.44227 27.6098 9.58586C27.6986 9.79781 27.6986 9.87302 27.6234 10.0645C27.5619 10.2012 27.4525 10.3106 27.3158 10.3721C27.1722 10.4268 27.0423 10.4337 26.9397 10.3927C26.8577 10.3585 26.7414 10.2764 26.6799 10.208C26.6184 10.1328 26.4269 9.832 26.256 9.53116C26.0782 9.23032 25.9346 8.92948 25.9346 8.86794C25.9346 8.79957 25.9825 8.65599 26.0372 8.54659C26.0919 8.43719 26.1808 8.33463 26.2286 8.31412C26.2697 8.29361 26.3927 8.2731 26.4953 8.2731H26.5021ZM11.5627 8.75171C11.802 8.74487 12.2191 8.7859 12.4857 8.84059C12.7592 8.88845 13.1831 9.01153 13.4293 9.11408C13.6754 9.20981 14.0378 9.39441 14.2429 9.51748C14.4412 9.63372 14.7967 9.92088 15.036 10.1465C15.2685 10.3721 15.5146 10.632 15.6856 10.8986L16.0821 10.461C16.2941 10.2217 16.6564 9.89353 16.8821 9.73628C17.1077 9.57218 17.4427 9.36706 17.6342 9.27134C17.8188 9.17562 18.2085 9.03204 18.4888 8.94315C18.9059 8.81324 19.1521 8.77906 19.8221 8.7859C20.5605 8.7859 20.7041 8.80641 21.2237 8.99101C21.5451 9.10041 21.9758 9.30553 22.181 9.44227C22.3861 9.57902 22.7211 9.85251 22.9262 10.0576C23.1313 10.2559 23.4185 10.6046 23.5621 10.8302C23.7057 11.0559 23.9176 11.4593 24.027 11.7191C24.1296 11.9857 24.2732 12.4575 24.3415 12.7789C24.4304 13.2233 24.4441 13.5651 24.4167 14.2489C24.3962 14.8574 24.3347 15.2881 24.239 15.6163C24.1638 15.883 23.9655 16.3753 23.7946 16.7103C23.6305 17.0522 23.2544 17.647 22.9672 18.0436C22.6459 18.4811 21.9485 19.2469 21.1964 19.999C20.5127 20.6759 19.2067 21.9066 18.2837 22.7271C17.3607 23.5407 16.4855 24.2723 16.3351 24.3475C16.1231 24.4569 15.959 24.4843 15.6103 24.4638C15.2616 24.4432 15.0975 24.3954 14.9198 24.2655C14.783 24.1698 13.9899 23.4792 13.1489 22.7271C12.3079 21.975 11.2687 21.0246 10.8311 20.6144C10.4003 20.211 9.78499 19.5956 9.47047 19.2469C9.15596 18.9051 8.71837 18.3923 8.50641 18.1119C8.29446 17.8316 7.97311 17.353 7.80218 17.0522C7.63124 16.7513 7.39194 16.2317 7.28254 15.8898C7.16631 15.5548 7.04324 14.9805 7.00221 14.6249C6.94752 14.16 6.94752 13.7908 7.00221 13.3258C7.04324 12.9703 7.16631 12.4028 7.28254 12.0609C7.39878 11.7259 7.57655 11.2952 7.68594 11.1037C7.79534 10.9191 8.02097 10.5909 8.18506 10.3858C8.34916 10.1807 8.67735 9.85935 8.92349 9.67474C9.16279 9.49013 9.54568 9.25767 9.77131 9.14827C9.99694 9.04571 10.3935 8.9158 10.6602 8.86111C10.92 8.79957 11.3302 8.75171 11.5627 8.75171ZM10.0516 10.338C9.83285 10.461 9.47731 10.7414 9.26535 10.967C9.0534 11.1926 8.78674 11.5618 8.66367 11.7875C8.54744 12.0131 8.38334 12.4302 8.3013 12.7105C8.20557 13.0729 8.15771 13.4284 8.15771 13.9412C8.15771 14.3993 8.1919 14.8164 8.26711 15.1035C8.32865 15.3497 8.47907 15.7668 8.60214 16.0266C8.72521 16.2932 8.95767 16.7035 9.12177 16.9496C9.28586 17.1957 9.61405 17.6265 9.84652 17.9068C10.079 18.1871 10.7012 18.8367 11.2208 19.3495C11.7404 19.8623 12.9233 20.9631 13.8532 21.7972C14.9813 22.8023 15.6035 23.3083 15.6992 23.3083C15.8086 23.3083 16.3966 22.8297 17.5658 21.7972C18.5025 20.9631 19.7811 19.7666 20.4033 19.1444C21.0255 18.5222 21.7434 17.7359 21.9895 17.394C22.2425 17.059 22.5707 16.5325 22.7211 16.2317C22.8715 15.9308 23.063 15.4386 23.1382 15.1377C23.2271 14.789 23.2749 14.3719 23.2749 13.9959C23.2749 13.6609 23.2271 13.1686 23.1655 12.9019C23.104 12.6284 22.9536 12.1772 22.8237 11.9105C22.6596 11.5618 22.4545 11.2678 22.1263 10.9396C21.8733 10.6867 21.5041 10.3927 21.3058 10.2901C21.1143 10.1944 20.7725 10.0645 20.5537 10.0098C20.3417 9.95507 19.993 9.90721 19.7879 9.90721C19.5828 9.90721 19.2136 9.95507 18.9674 10.0166C18.7213 10.0713 18.3247 10.2286 18.0786 10.3516C17.8325 10.4815 17.4496 10.7619 17.2171 10.9807C16.9846 11.1995 16.6496 11.6097 16.4718 11.89C16.2941 12.1703 16.0958 12.4438 16.0343 12.4917C15.9727 12.5396 15.8223 12.5737 15.6992 12.5737C15.5625 12.5737 15.4257 12.519 15.3232 12.4165C15.2411 12.3276 15.0634 12.0746 14.9335 11.8627C14.8035 11.6439 14.4685 11.2542 14.195 10.9943C13.86 10.673 13.5455 10.4474 13.2036 10.2901C12.937 10.1602 12.5472 10.0234 12.349 9.98242C12.1575 9.94139 11.8157 9.90721 11.5969 9.91405C11.3849 9.91405 11.0362 9.96191 10.8311 10.0166C10.626 10.0713 10.2704 10.2217 10.0516 10.338ZM3.18702 12.3686C3.31009 12.3686 3.46051 12.4096 3.52204 12.4575C3.58358 12.5054 3.66563 12.6079 3.70665 12.6968C3.77502 12.813 3.76135 13.0113 3.65195 13.6198C3.56307 14.0985 3.46734 14.4335 3.39213 14.5087C3.3306 14.5702 3.20069 14.6454 3.10497 14.6659C3.00925 14.6865 2.85883 14.6659 2.76311 14.6318C2.66738 14.5907 2.55115 14.4882 2.49645 14.4061C2.43492 14.2967 2.42124 14.1258 2.44175 13.8386C2.4691 13.613 2.5238 13.2575 2.56482 13.0524C2.61269 12.8336 2.71524 12.6079 2.80413 12.5259C2.90669 12.4233 3.04343 12.3686 3.18702 12.3686ZM28.2319 12.3686C28.3413 12.3618 28.5054 12.4165 28.5943 12.4849C28.6969 12.5669 28.7858 12.7447 28.8473 13.0182C28.902 13.2438 28.9635 13.6198 28.984 13.8592C29.0182 14.2626 29.0114 14.2899 28.8131 14.4882C28.6422 14.6591 28.567 14.6865 28.3824 14.6591C28.2661 14.6386 28.1089 14.5702 28.0405 14.5019C27.9585 14.4266 27.8696 14.1258 27.7807 13.6335C27.6645 12.9977 27.6576 12.8541 27.7328 12.6831C27.7807 12.5737 27.8696 12.4643 27.9243 12.4302C27.979 12.396 28.1226 12.3686 28.2319 12.3686ZM3.01608 16.8129C3.10497 16.8129 3.24855 16.8812 3.34427 16.9701C3.48102 17.0932 3.54255 17.2573 3.65195 17.859C3.75451 18.3923 3.76818 18.6384 3.72032 18.7615C3.68614 18.8572 3.58358 18.9803 3.50153 19.035C3.41265 19.0897 3.28958 19.1375 3.22804 19.1375C3.15967 19.1375 3.01608 19.0897 2.89985 19.035C2.75627 18.9598 2.67422 18.8572 2.62636 18.6794C2.59217 18.5358 2.5238 18.1871 2.48278 17.9068C2.43492 17.6265 2.42124 17.312 2.44175 17.2094C2.4691 17.1 2.57166 16.9769 2.68106 16.9154C2.78362 16.8607 2.93404 16.8197 3.02292 16.8129H3.01608ZM28.4029 16.8129C28.4713 16.8129 28.608 16.8539 28.7037 16.9017C28.7994 16.9428 28.9157 17.0795 28.9567 17.1889C29.0182 17.353 29.0114 17.5376 28.902 18.1051C28.7926 18.7068 28.7447 18.8367 28.5807 18.9734C28.4781 19.0623 28.3208 19.1375 28.2251 19.1375C28.1294 19.1375 27.9653 19.0486 27.8491 18.9324C27.7397 18.823 27.6439 18.6589 27.6508 18.5769C27.6508 18.488 27.7055 18.1256 27.7807 17.7701C27.8832 17.2368 27.9379 17.0932 28.0884 16.9701C28.1841 16.8812 28.3277 16.8129 28.4029 16.8129ZM4.34252 21.0588C4.41089 21.052 4.56815 21.1545 4.68438 21.2776C4.80745 21.4075 5.02624 21.7152 5.16299 21.9613C5.30657 22.2143 5.43648 22.5151 5.45699 22.6245C5.48434 22.7886 5.45015 22.8707 5.2929 23.0348C5.15615 23.1784 5.02624 23.2399 4.88266 23.2399C4.73908 23.2399 4.60917 23.1784 4.47926 23.0416C4.3767 22.939 4.16475 22.604 4.00749 22.31C3.85023 22.016 3.71349 21.7083 3.71349 21.6331C3.71349 21.5579 3.76135 21.428 3.82288 21.3391C3.88442 21.2502 4.00065 21.1545 4.0827 21.1203C4.15791 21.0861 4.28098 21.0588 4.34252 21.0588ZM31.5412 22.1801C31.6369 22.2006 31.7805 22.2963 31.8625 22.3852C31.9583 22.4878 32.0198 22.645 32.0198 22.7818C32.0198 22.9664 31.9104 23.1031 31.2814 23.739C30.6523 24.3612 30.5088 24.4706 30.3242 24.4706C30.2011 24.4706 30.0575 24.4501 29.996 24.4227C29.9344 24.3886 29.8387 24.286 29.7908 24.1834C29.7361 24.074 29.7088 23.9099 29.7293 23.8074C29.7498 23.6843 30.0028 23.3835 30.4336 22.9596C30.7959 22.5972 31.1583 22.2622 31.2335 22.2211C31.3087 22.1801 31.4455 22.1664 31.5412 22.1801ZM6.97487 24.6073C7.07743 24.6073 7.28938 24.6894 7.4398 24.7988C7.59022 24.9082 7.89106 25.1612 8.10302 25.3663C8.39702 25.6398 8.49958 25.7834 8.49958 25.9269C8.49958 26.0432 8.42437 26.1868 8.3013 26.3167C8.16455 26.4602 8.03464 26.5218 7.89106 26.5218C7.7338 26.5218 7.55603 26.4192 7.21417 26.1389C6.96119 25.9269 6.6877 25.6808 6.59882 25.5919C6.50309 25.4825 6.4484 25.3458 6.4484 25.1885C6.45295 25.0244 6.50993 24.8877 6.61933 24.7783C6.71505 24.6757 6.86547 24.6073 6.97487 24.6073ZM10.7217 27.0004C10.7559 27.0004 11.0977 27.1098 11.4738 27.2397C11.884 27.3901 12.2191 27.5474 12.3079 27.6499C12.3968 27.7457 12.4652 27.8961 12.4652 27.9918C12.4652 28.0875 12.3763 28.2516 12.2669 28.3678C12.1438 28.4909 11.9934 28.573 11.8909 28.573C11.7951 28.573 11.4464 28.4772 11.1114 28.3542C10.7832 28.2379 10.4482 28.067 10.3593 27.9781C10.2636 27.8824 10.2089 27.7388 10.2089 27.6021C10.2089 27.479 10.2499 27.3286 10.2978 27.267C10.3456 27.2123 10.4414 27.1235 10.5166 27.0824C10.5918 27.0414 10.6807 27.0004 10.7217 27.0004ZM20.6494 27.0072C20.7383 27.0004 20.8956 27.0893 21.0118 27.2055C21.1349 27.3286 21.2169 27.4858 21.2169 27.6021C21.2237 27.7046 21.169 27.855 21.1007 27.9439C21.0323 28.0328 20.7109 28.1969 20.3417 28.3337C19.9999 28.4636 19.6375 28.573 19.5418 28.573C19.4461 28.573 19.282 28.4841 19.1657 28.3678C19.0495 28.2516 18.9606 28.0875 18.9606 27.9918C18.9606 27.8961 19.029 27.7457 19.111 27.6499C19.1999 27.561 19.5418 27.3764 19.8836 27.2465C20.2187 27.1235 20.5674 27.0141 20.6494 27.0072ZM15.7949 27.985C16.4377 27.9918 16.4992 28.0055 16.6633 28.1627C16.7932 28.2858 16.8479 28.402 16.8479 28.573C16.8479 28.7439 16.7932 28.8601 16.6633 28.9832C16.4992 29.1473 16.4445 29.1541 15.7266 29.1541C15.289 29.1541 14.8993 29.1199 14.8241 29.0789C14.7488 29.0379 14.6463 28.8943 14.5916 28.7712C14.5164 28.573 14.5164 28.5114 14.5916 28.3405C14.6463 28.2311 14.7762 28.1012 14.8924 28.0602C15.0087 28.0123 15.3984 27.9781 15.7949 27.985Z" fill="white"/>
</svg>
