<svg width="36" height="29" viewBox="0 0 36 29" fill="none" xmlns="http://www.w3.org/2000/svg">
<path d="M7.08182 0.357214C7.33424 0.294109 7.83908 0.17491 8.20369 0.104793C8.70152 0.013641 9.12923 -0.0144058 9.88649 0.00662927C10.4474 0.013641 11.1696 0.0767462 11.4992 0.139852C11.8287 0.202957 12.4107 0.350202 12.7963 0.469401C13.182 0.595612 13.8621 0.87608 14.3039 1.10045C14.7456 1.33184 15.3977 1.7245 15.7413 1.98393C16.0848 2.24336 16.6388 2.71314 16.9683 3.02166C17.2979 3.33719 17.6414 3.63869 17.7396 3.68777C17.8378 3.72984 17.985 3.75088 18.0691 3.72984C18.1603 3.70881 18.5389 3.40029 18.9106 3.04971C19.2892 2.69912 19.8641 2.2083 20.1937 1.96289C20.5232 1.71047 21.2034 1.30379 21.7012 1.05838C22.199 0.805963 22.9002 0.525495 23.2438 0.427331C23.5874 0.329167 24.1413 0.202957 24.4708 0.146863C24.8004 0.083758 25.1299 0.0416878 25.2071 0.0416878C25.2842 0.0346761 25.4314 0.0977813 25.5366 0.181922C25.6768 0.280086 25.7329 0.385261 25.7329 0.553542C25.7399 0.693776 25.6838 0.826998 25.5857 0.91815C25.4805 1.01631 25.2141 1.09344 24.6882 1.17758C24.2815 1.2477 23.6925 1.38092 23.384 1.47909C23.0755 1.57725 22.5076 1.81565 22.1219 2.00496C21.7363 2.19428 21.1543 2.55188 20.8247 2.8043C20.4952 3.04971 19.9202 3.54053 19.5416 3.89111C19.17 4.24169 18.7563 4.58527 18.6301 4.64837C18.4828 4.7255 18.2444 4.76757 17.9499 4.76757C17.6344 4.76757 17.4171 4.7255 17.2488 4.63435C17.1156 4.56423 16.6878 4.20664 16.3022 3.83502C15.9166 3.47041 15.4117 3.03568 15.1803 2.86039C14.9489 2.69211 14.5353 2.42567 14.2688 2.2644C13.9953 2.11014 13.5115 1.87174 13.182 1.73852C12.8524 1.6053 12.2845 1.42299 11.9199 1.33184C11.5553 1.23368 10.9242 1.1285 10.5175 1.08643C9.98466 1.03034 9.55694 1.03034 8.97497 1.08643C8.53324 1.1285 7.86011 1.24069 7.48148 1.33885C7.10986 1.43702 6.56996 1.61231 6.28949 1.73852C6.01604 1.86473 5.58131 2.08209 5.32889 2.22934C5.07647 2.36957 4.60669 2.70613 4.28415 2.96557C3.9546 3.225 3.51286 3.6457 3.2955 3.89812C3.08515 4.15054 2.77663 4.5432 2.62238 4.77458C2.46111 5.00597 2.20167 5.45472 2.0404 5.77726C1.88615 6.09278 1.66177 6.62567 1.54959 6.96925C1.4374 7.30581 1.29015 7.82467 1.23406 8.12618C1.17095 8.42067 1.10084 8.97459 1.0798 9.35322C1.05175 9.73887 1.06578 10.3419 1.11486 10.7345C1.15693 11.1202 1.27613 11.7372 1.37429 12.1018C1.47246 12.4664 1.69683 13.0834 1.87914 13.4691C2.06845 13.8547 2.38398 14.4227 2.59433 14.7312C2.88181 15.1589 4.10886 16.435 7.79 20.1302C10.4474 22.7876 12.6281 24.9543 12.6491 24.9332C12.6701 24.9122 12.6281 24.6598 12.558 24.3723C12.4808 24.0848 12.3686 23.5028 12.3055 23.0751C12.2354 22.6053 12.1863 21.8621 12.1863 21.182C12.1863 20.5649 12.2214 19.7446 12.2635 19.3589C12.3125 18.9733 12.4738 18.0758 12.6281 17.3606C12.7753 16.6454 12.9015 15.9793 12.9015 15.8741C12.9015 15.7409 12.7893 15.5446 12.5509 15.2781C12.3546 15.0537 12.1092 14.6821 11.997 14.4507C11.8848 14.2193 11.7516 13.8547 11.7025 13.6444C11.6534 13.434 11.6114 13.0063 11.6114 12.6978C11.6114 12.3753 11.6675 11.9616 11.7376 11.7162C11.8077 11.4848 11.9269 11.1763 11.997 11.036C12.0671 10.8888 12.2635 10.6223 12.4317 10.447C12.593 10.2718 12.9155 10.0334 13.1469 9.92117C13.4765 9.7599 13.6588 9.71783 14.0094 9.71783C14.2478 9.71783 14.5633 9.76691 14.7105 9.83002C14.8508 9.88611 15.0822 10.0263 15.2154 10.1315C15.3486 10.2437 15.587 10.5102 16.0217 11.1202L16.3373 10.7836C16.5125 10.6013 16.8281 10.3208 17.0384 10.1596C17.2488 9.9983 17.6274 9.75289 17.8798 9.61266C18.1323 9.47242 18.553 9.26207 18.8264 9.14287C19.0999 9.02367 19.8151 8.75723 20.4251 8.54688C21.0281 8.34354 21.7222 8.07709 21.9676 7.95789C22.206 7.83168 22.5777 7.62133 22.788 7.47409C22.9984 7.33385 23.363 7.01132 23.5874 6.76591C23.8468 6.48544 24.0852 6.13485 24.2254 5.82634C24.3516 5.55989 24.4848 5.25138 24.5339 5.1462C24.576 5.03402 24.7162 4.88677 24.8424 4.80964C24.9616 4.73251 25.179 4.66941 25.3122 4.66941C25.4525 4.66941 25.6628 4.73251 25.803 4.83068C25.9783 4.94286 26.0975 5.10413 26.2167 5.40564C26.3079 5.63702 26.4411 6.12784 26.5182 6.49245C26.6304 7.03235 26.6515 7.34087 26.6234 8.10514C26.6024 8.82735 26.5533 9.17092 26.4341 9.54254C26.343 9.80898 26.1536 10.2858 26.0064 10.5943C25.8311 10.9449 25.7329 11.2534 25.7329 11.4217C25.7329 11.5619 25.8171 11.9265 25.9152 12.228C26.0134 12.5225 26.1957 12.9572 26.3149 13.1816C26.4411 13.406 26.7356 13.8337 26.981 14.1282C27.2194 14.4227 27.4368 14.7592 27.4578 14.8714C27.4859 14.9836 27.4648 15.194 27.4228 15.3272C27.3807 15.4604 27.2755 15.6427 27.1914 15.7269C27.1002 15.811 26.8899 15.9442 26.7146 16.0213C26.5393 16.0915 26.1396 16.2177 25.8241 16.2878L25.8131 16.2902C25.256 16.414 25.2489 16.4156 25.2141 16.6594C25.193 16.7926 25.172 17.1362 25.172 17.4167C25.172 17.7673 25.1369 17.9846 25.0528 18.1319C24.9827 18.2441 24.8495 18.3773 24.7513 18.4123C24.604 18.4754 24.583 18.5245 24.597 18.7138C24.6181 18.8751 24.548 19.0644 24.3446 19.394C24.1904 19.6464 23.994 19.99 23.8959 20.1653C23.7977 20.3406 23.5663 20.614 23.377 20.7823C23.1526 20.9856 22.9002 21.1259 22.6478 21.196C22.4094 21.2591 22.1219 21.2941 21.9116 21.2661C21.6942 21.2451 21.3226 21.1118 20.9299 20.9155C20.5863 20.7402 20.0955 20.5439 19.8431 20.4808C19.5276 20.3966 19.205 20.3686 18.7914 20.3896C18.3005 20.4107 18.1182 20.4527 17.7396 20.635C17.4872 20.7613 17.1787 20.9646 17.0454 21.0908C16.9192 21.217 16.765 21.4204 16.7019 21.5325C16.6388 21.6588 16.5827 21.9883 16.5616 22.3389C16.5406 22.8087 16.5616 23.0541 16.6878 23.4958C16.772 23.8043 16.9613 24.2952 17.1015 24.5826C17.2488 24.8701 17.4521 25.2487 17.5643 25.424C17.6695 25.5993 17.9009 25.9289 18.0762 26.1603C18.2514 26.3916 18.6651 26.8614 18.9947 27.198C19.3242 27.5346 19.6959 27.8431 19.808 27.8851C19.9553 27.9272 20.0815 27.9272 20.2287 27.8781C20.355 27.829 21.6661 26.574 23.5593 24.6878C25.3894 22.8578 26.7496 21.5536 26.8548 21.5325C26.981 21.4975 27.0862 21.5325 27.2334 21.6517C27.3737 21.7639 27.4368 21.8831 27.4438 22.0374C27.4508 22.2477 27.2054 22.5142 24.2605 25.4591C21.6661 28.0604 21 28.6845 20.6985 28.8247C20.4812 28.9299 20.2077 29 20.0184 29C19.8431 29 19.5697 28.9439 19.4014 28.8668C19.2401 28.7967 18.9316 28.5933 18.7212 28.411C18.5109 28.2287 18.1042 27.822 17.8237 27.5065C17.5433 27.191 17.1226 26.6441 16.8842 26.3005C16.6528 25.9569 16.3443 25.431 16.197 25.1436C16.0498 24.8561 15.8464 24.3512 15.7413 24.0217C15.601 23.587 15.5379 23.2224 15.5099 22.6895C15.4818 22.0654 15.4959 21.8761 15.6291 21.4624C15.7062 21.189 15.8815 20.8314 16.0077 20.6561C16.1339 20.4808 16.4635 20.1933 16.7299 20.011C16.9964 19.8217 17.403 19.6043 17.6344 19.5202C17.9289 19.415 18.2725 19.3589 18.7914 19.3379C19.3944 19.3098 19.6257 19.3379 20.0885 19.4571C20.397 19.5412 20.951 19.7586 21.3156 19.9339C21.8555 20.1933 22.0237 20.2424 22.2271 20.2073C22.3603 20.1863 22.5426 20.1162 22.6268 20.0601C22.7179 20.004 22.8441 19.8567 22.9072 19.7375C22.9773 19.6183 23.1386 19.3519 23.2578 19.1416C23.4401 18.84 23.4752 18.7349 23.4191 18.6227C23.377 18.5456 23.349 18.3703 23.349 18.237C23.349 18.0758 23.4121 17.9145 23.5242 17.7813C23.6224 17.6621 23.7907 17.5569 23.9099 17.5359C24.1062 17.5008 24.1202 17.4798 24.1202 17.2063C24.1202 17.038 24.1553 16.7015 24.1904 16.4491C24.2394 16.1476 24.3236 15.9162 24.4358 15.7689C24.5339 15.6427 24.6742 15.5095 24.7513 15.4674C24.8284 15.4254 25.0738 15.3622 25.2912 15.3202C25.5156 15.2851 25.8451 15.201 26.364 15.0467L26.0134 14.612C25.8171 14.3666 25.5226 13.9038 25.3543 13.5743C25.186 13.2447 24.9616 12.7188 24.8635 12.4033C24.7653 12.0808 24.6812 11.6741 24.6812 11.4918C24.6812 11.3025 24.7162 11.029 24.7583 10.8748C24.8004 10.7205 24.9616 10.3419 25.1089 10.0334C25.2561 9.72484 25.4244 9.24805 25.4945 8.9816C25.5787 8.60297 25.5997 8.28745 25.5717 7.61432C25.5506 7.13051 25.5015 6.60464 25.4595 6.44337C25.4174 6.27509 25.3613 6.14186 25.3263 6.14186C25.2982 6.14186 25.2 6.28911 25.1019 6.47142C25.0037 6.65372 24.7864 6.98327 24.6111 7.20063C24.4358 7.41799 24.1553 7.72651 23.98 7.87375C23.8047 8.02801 23.4261 8.30848 23.1386 8.49078C22.8511 8.6801 22.4374 8.91149 22.2271 9.00264C22.0167 9.09379 21.3366 9.34621 20.7196 9.55656C20.1025 9.76691 19.3102 10.0684 18.9666 10.2367C18.6231 10.398 18.1463 10.6574 17.9149 10.8187C17.6835 10.9729 17.2418 11.3726 16.3723 12.3122H16.0007C15.6782 12.3122 15.608 12.2841 15.4047 12.0808C15.2855 11.9546 15.0681 11.6671 14.9349 11.4427C14.7947 11.2113 14.5843 10.9729 14.4441 10.8958C14.2688 10.7906 14.1216 10.7556 13.9182 10.7766C13.764 10.7976 13.5186 10.8958 13.3713 11.001C13.203 11.1272 13.0418 11.3375 12.9085 11.632C12.7893 11.8704 12.6772 12.228 12.6561 12.4173C12.6281 12.6137 12.6421 12.9572 12.6842 13.1886C12.7332 13.42 12.8384 13.7706 12.9296 13.9599C13.0137 14.1562 13.2521 14.4858 13.4414 14.6961C13.6378 14.9065 13.8341 15.1659 13.8762 15.2781C13.9182 15.3833 13.9533 15.6287 13.9533 15.818C13.9533 16.0143 13.8481 16.6664 13.7149 17.2694C13.5817 17.8794 13.4204 18.7209 13.3573 19.1486C13.2872 19.6113 13.2451 20.3686 13.2381 21.0417C13.2381 21.6588 13.2802 22.43 13.3222 22.7596C13.3643 23.0891 13.4625 23.608 13.5326 23.9165C13.6097 24.225 13.764 24.7649 13.8832 25.1085C13.9953 25.4521 14.0935 25.8447 14.0935 25.9709C14.0935 26.1182 14.0234 26.2725 13.8972 26.4127C13.792 26.5249 13.6027 26.6511 13.4765 26.6932C13.3362 26.7352 13.168 26.7282 13.0277 26.6861C12.8595 26.6371 11.359 25.1786 7.49551 21.3082C3.28849 17.0871 2.11052 15.8671 1.75994 15.3622C1.52154 15.0187 1.18498 14.4437 1.0167 14.1001C0.848415 13.7566 0.617029 13.1816 0.504842 12.838C0.385643 12.4945 0.231386 11.8634 0.147246 11.4357C0.0490819 10.9168 0 10.3839 0 9.82301C0 9.36023 0.0490819 8.6801 0.105175 8.31549C0.168281 7.95088 0.28748 7.38294 0.385643 7.05339C0.476795 6.72384 0.666111 6.19095 0.813357 5.8614C0.953591 5.53185 1.21302 5.02701 1.38832 4.73953C1.5566 4.45205 1.89316 3.96123 2.13857 3.65271C2.37697 3.3442 2.79066 2.88844 3.0571 2.64303C3.32354 2.39061 3.73022 2.04703 3.96161 1.87875C4.193 1.71047 4.60669 1.44403 4.87313 1.28276C5.13958 1.1285 5.64442 0.883092 5.995 0.742858C6.34559 0.602624 6.82939 0.427331 7.08182 0.357214Z" fill="white"/>
<path d="M27.2194 0.434343C27.2685 0.322156 27.3596 0.209969 27.4157 0.17491C27.4718 0.139852 27.584 0.111805 27.6611 0.111805C27.7383 0.111805 28.166 0.202957 28.6077 0.315144C29.0495 0.427331 29.6665 0.623659 29.975 0.756881C30.2835 0.890103 30.7533 1.11448 31.0268 1.26873C31.3002 1.42299 31.756 1.7245 32.0435 1.94186C32.3309 2.15922 32.8218 2.60096 33.1303 2.9235C33.4458 3.24603 33.8665 3.75088 34.0698 4.03836C34.2732 4.32584 34.5887 4.86574 34.778 5.23034C34.9603 5.59495 35.2127 6.18394 35.3319 6.52751C35.4582 6.87108 35.6334 7.5442 35.7316 8.021C35.8508 8.64504 35.8999 9.10781 35.8999 9.73185C35.8999 10.2086 35.8508 10.8958 35.7877 11.2604C35.7246 11.625 35.5984 12.193 35.5002 12.5225C35.4091 12.8521 35.1987 13.42 35.0375 13.7846C34.8762 14.1492 34.5256 14.7803 34.2592 15.187C33.8385 15.818 33.4318 16.2668 31.3493 18.3633C29.2318 20.4948 28.8952 20.8033 28.6989 20.8173C28.5446 20.8244 28.4184 20.7823 28.3132 20.6701C28.2221 20.579 28.152 20.4247 28.152 20.3055C28.152 20.1372 28.5026 19.7516 30.543 17.6971C32.38 15.839 33.0181 15.1589 33.3196 14.6961C33.537 14.3666 33.8244 13.8758 33.9577 13.6093C34.0909 13.3429 34.2942 12.817 34.4134 12.4524C34.5256 12.0878 34.6658 11.5479 34.7149 11.2604C34.764 10.9729 34.8061 10.2928 34.8061 9.75289C34.8061 9.21299 34.764 8.56791 34.7149 8.31549C34.6658 8.06307 34.5536 7.59329 34.4555 7.26374C34.3573 6.93419 34.161 6.41532 34.0278 6.10681C33.8875 5.79829 33.572 5.23034 33.3126 4.8447C33.0602 4.45906 32.5974 3.89111 32.2889 3.57558C31.9804 3.26707 31.4895 2.84637 31.2021 2.64303C30.9146 2.43969 30.4378 2.15221 30.1503 2.00496C29.8628 1.86473 29.4071 1.66139 29.1336 1.56323C28.8601 1.47207 28.3904 1.33184 28.0819 1.26873C27.7733 1.19862 27.4648 1.11448 27.3947 1.08643C27.3316 1.05137 27.2404 0.939185 27.2054 0.83401C27.1493 0.686764 27.1563 0.581589 27.2194 0.434343Z" fill="white"/>
</svg>
