<svg width="15" height="15" viewBox="0 0 15 15" fill="none" xmlns="http://www.w3.org/2000/svg">
<mask id="mask0_18_400" style="mask-type:luminance" maskUnits="userSpaceOnUse" x="2" y="0" width="11" height="15">
<path d="M7.5 13.75C7.5 13.75 12.1875 10 12.1875 5.9375C12.1875 3.34875 10.0887 1.25 7.5 1.25C4.91125 1.25 2.8125 3.34875 2.8125 5.9375C2.8125 10 7.5 13.75 7.5 13.75Z" fill="white" stroke="white" stroke-width="1.25" stroke-linejoin="round"/>
<path d="M7.5 7.8125C7.74623 7.8125 7.99005 7.764 8.21753 7.66977C8.44502 7.57555 8.65172 7.43744 8.82583 7.26333C8.99994 7.08922 9.13805 6.88252 9.23227 6.65503C9.3265 6.42755 9.375 6.18373 9.375 5.9375C9.375 5.69127 9.3265 5.44745 9.23227 5.21997C9.13805 4.99248 8.99994 4.78578 8.82583 4.61167C8.65172 4.43756 8.44502 4.29945 8.21753 4.20523C7.99005 4.111 7.74623 4.0625 7.5 4.0625C7.00272 4.0625 6.52581 4.26004 6.17417 4.61167C5.82254 4.96331 5.625 5.44022 5.625 5.9375C5.625 6.43478 5.82254 6.91169 6.17417 7.26333C6.52581 7.61496 7.00272 7.8125 7.5 7.8125Z" fill="black" stroke="black" stroke-width="1.25" stroke-linejoin="round"/>
</mask>
<g mask="url(#mask0_18_400)">
<path d="M0 0H15V15H0V0Z" fill="black"/>
</g>
</svg>
