<svg width="39" height="31" viewBox="0 0 39 31" fill="none" xmlns="http://www.w3.org/2000/svg">
<path d="M5.57143 7.75C5.57143 6.9173 5.73355 6.09275 6.04854 5.32344C6.36353 4.55412 6.82522 3.85511 7.40724 3.2663C7.98927 2.67749 8.68023 2.21042 9.44068 1.89176C10.2011 1.5731 11.0162 1.40909 11.8393 1.40909C12.6624 1.40909 13.4774 1.5731 14.2379 1.89176C14.9983 2.21042 15.6893 2.67749 16.2713 3.2663C16.8534 3.85511 17.315 4.55412 17.63 5.32344C17.945 6.09275 18.1071 6.9173 18.1071 7.75C18.1071 9.43171 17.4468 11.0445 16.2713 12.2337C15.0959 13.4228 13.5016 14.0909 11.8393 14.0909C10.1769 14.0909 8.58269 13.4228 7.40724 12.2337C6.23179 11.0445 5.57143 9.43171 5.57143 7.75ZM11.8393 0C9.80754 0 7.85901 0.816516 6.42234 2.26992C4.98568 3.72333 4.17857 5.69457 4.17857 7.75C4.17857 9.80543 4.98568 11.7767 6.42234 13.2301C7.85901 14.6835 9.80754 15.5 11.8393 15.5C13.871 15.5 15.8196 14.6835 17.2562 13.2301C18.6929 11.7767 19.5 9.80543 19.5 7.75C19.5 5.69457 18.6929 3.72333 17.2562 2.26992C15.8196 0.816516 13.871 0 11.8393 0ZM25.0714 9.86364C25.0714 8.74249 25.5117 7.66727 26.2953 6.8745C27.0789 6.08174 28.1418 5.63636 29.25 5.63636C30.3582 5.63636 31.4211 6.08174 32.2047 6.8745C32.9883 7.66727 33.4286 8.74249 33.4286 9.86364C33.4286 10.9848 32.9883 12.06 32.2047 12.8528C31.4211 13.6455 30.3582 14.0909 29.25 14.0909C28.1418 14.0909 27.0789 13.6455 26.2953 12.8528C25.5117 12.06 25.0714 10.9848 25.0714 9.86364ZM29.25 4.22727C27.7724 4.22727 26.3553 4.8211 25.3104 5.87813C24.2656 6.93515 23.6786 8.36878 23.6786 9.86364C23.6786 11.3585 24.2656 12.7921 25.3104 13.8491C26.3553 14.9062 27.7724 15.5 29.25 15.5C30.7276 15.5 32.1447 14.9062 33.1896 13.8491C34.2344 12.7921 34.8214 11.3585 34.8214 9.86364C34.8214 8.36878 34.2344 6.93515 33.1896 5.87813C32.1447 4.8211 30.7276 4.22727 29.25 4.22727ZM4.17857 18.3182C3.07035 18.3182 2.00751 18.7636 1.22388 19.5563C0.440241 20.3491 0 21.4243 0 22.5455C0 24.118 0.580822 26.2514 2.39432 27.9888C4.212 29.7304 7.18714 31 11.8379 31C16.4886 31 19.4666 29.7318 21.2843 27.9888C23.0977 26.2514 23.6786 24.118 23.6786 22.5455C23.6786 21.4243 23.2383 20.3491 22.4547 19.5563C21.6711 18.7636 20.6082 18.3182 19.5 18.3182H4.17857ZM1.39286 22.5455C1.39286 21.798 1.68635 21.0812 2.20877 20.5527C2.7312 20.0242 3.43975 19.7273 4.17857 19.7273H19.5C20.2388 19.7273 20.9474 20.0242 21.4698 20.5527C21.9922 21.0812 22.2857 21.798 22.2857 22.5455C22.2857 23.7911 21.8219 25.5327 20.3274 26.9658C18.837 28.3946 16.2407 29.5909 11.8393 29.5909C7.43786 29.5909 4.84157 28.3932 3.35121 26.9658C1.85668 25.5327 1.39286 23.7911 1.39286 22.5455ZM25.0199 26.1922C24.8435 26.6168 24.629 27.0395 24.3764 27.4604C25.6662 27.907 27.2694 28.1818 29.25 28.1818C33.2085 28.1818 35.6585 27.087 37.1252 25.7018C38.5766 24.3322 39 22.7343 39 21.8409C39 20.9066 38.6331 20.0106 37.9801 19.35C37.3271 18.6893 36.4414 18.3182 35.5179 18.3182H24.1716C24.5449 18.7409 24.8639 19.2144 25.116 19.7273H35.5179C36.072 19.7273 36.6034 19.95 36.9952 20.3463C37.387 20.7427 37.6071 21.2803 37.6071 21.8409C37.6071 22.358 37.3341 23.5783 36.1739 24.6732C35.0304 25.754 32.9522 26.7727 29.25 26.7727C27.502 26.7727 26.1161 26.5459 25.0199 26.1922Z" fill="white"/>
</svg>
