<svg width="24" height="30" viewBox="0 0 24 30" fill="none" xmlns="http://www.w3.org/2000/svg">
<path d="M0.578125 11.8125C0.578125 12.0238 0.662081 12.2265 0.811523 12.376C0.960966 12.5254 1.16366 12.6094 1.375 12.6094C1.58634 12.6094 1.78903 12.5254 1.93848 12.376C2.08792 12.2265 2.17188 12.0238 2.17188 11.8125C2.17188 9.20592 3.20734 6.7061 5.05047 4.86297C6.8936 3.01984 9.39342 1.98438 12 1.98438C14.6066 1.98438 17.1064 3.01984 18.9495 4.86297C20.7927 6.7061 21.8281 9.20592 21.8281 11.8125C21.8281 15.4715 20.6554 16.6017 19.4136 17.7997C18.8412 18.3509 18.2488 18.922 17.7986 19.7215C17.2926 20.6193 17.0469 21.6805 17.0469 22.9688C17.0469 24.3073 16.5152 25.591 15.5687 26.5374C14.6222 27.4839 13.3385 28.0156 12 28.0156C10.5736 28.0156 9.38492 27.4153 8.36492 26.1802C8.2983 26.0994 8.21642 26.0326 8.12396 25.9835C8.0315 25.9343 7.93028 25.9039 7.82607 25.8939C7.72186 25.8839 7.6167 25.8946 7.51659 25.9252C7.41649 25.9559 7.32341 26.006 7.24265 26.0726C7.1619 26.1392 7.09506 26.2211 7.04596 26.3135C6.99685 26.406 6.96643 26.5072 6.95644 26.6114C6.94645 26.7156 6.95708 26.8208 6.98773 26.9209C7.01838 27.021 7.06845 27.1141 7.13508 27.1948C8.45922 28.7966 10.0955 29.6094 12 29.6094C13.7606 29.6073 15.4484 28.907 16.6933 27.6621C17.9382 26.4172 18.6385 24.7293 18.6406 22.9688C18.6406 20.7588 19.4694 19.9592 20.5199 18.9459C21.8122 17.7001 23.4219 16.1475 23.4219 11.8125C23.4219 8.78323 22.2185 5.87803 20.0765 3.73601C17.9345 1.594 15.0293 0.390625 12 0.390625C8.97073 0.390625 6.06553 1.594 3.92351 3.73601C1.7815 5.87803 0.578125 8.78323 0.578125 11.8125ZM5.51078 19.6232C5.69364 19.5177 5.91088 19.4891 6.11481 19.5436C6.31874 19.5982 6.49271 19.7314 6.59852 19.9141C6.74441 20.1679 6.97009 20.3664 7.24047 20.4787C7.51085 20.5911 7.81076 20.6109 8.09358 20.5352C8.37639 20.4594 8.62626 20.2924 8.80431 20.0599C8.98236 19.8275 9.07862 19.5428 9.07812 19.25C9.07812 17.9219 8.41406 17.036 7.64375 16.0094C6.82031 14.9137 5.89062 13.6719 5.89062 11.8125C5.89062 10.1922 6.53429 8.63825 7.68002 7.49252C8.82575 6.34679 10.3797 5.70312 12 5.70312C13.6203 5.70312 15.1742 6.34679 16.32 7.49252C17.4657 8.63825 18.1094 10.1922 18.1094 11.8125C18.1094 12.0238 18.0254 12.2265 17.876 12.376C17.7265 12.5254 17.5238 12.6094 17.3125 12.6094C17.1012 12.6094 16.8985 12.5254 16.749 12.376C16.5996 12.2265 16.5156 12.0238 16.5156 11.8125C16.5156 10.6149 16.0399 9.46631 15.193 8.61947C14.3462 7.77263 13.1976 7.29688 12 7.29688C10.8024 7.29688 9.65382 7.77263 8.80697 8.61947C7.96013 9.46631 7.48438 10.6149 7.48438 11.8125C7.48438 13.1406 8.14844 14.0265 8.91875 15.0531C9.74219 16.1488 10.6719 17.3906 10.6719 19.25C10.6717 19.8931 10.4595 20.5182 10.0679 21.0284C9.67637 21.5385 9.12746 21.9053 8.50628 22.0717C7.8851 22.2382 7.22635 22.195 6.63218 21.949C6.03801 21.703 5.5416 21.2678 5.21992 20.7109C5.11444 20.5281 5.08582 20.3108 5.14036 20.1069C5.19489 19.903 5.32811 19.729 5.51078 19.6232Z" fill="white"/>
</svg>
