<svg width="36" height="28" viewBox="0 0 36 28" fill="none" xmlns="http://www.w3.org/2000/svg">
<path fill-rule="evenodd" clip-rule="evenodd" d="M18.4522 0.00658364C18.839 0.0276832 19.3736 0.105048 19.6479 0.17538C19.9855 0.259778 22.4541 1.42729 27.6164 3.94516C32.5045 6.32941 35.1982 7.67978 35.3811 7.84155C35.5428 7.97518 35.7398 8.2354 35.8312 8.41827C35.9226 8.60816 36 8.87542 36 9.01609C36 9.17082 35.9156 9.44511 35.8101 9.66314C35.6976 9.87414 35.5006 10.1344 35.367 10.2399C35.2334 10.3454 33.9604 11.0065 29.9515 12.9758V17.266C29.9515 21.1765 29.9374 21.5773 29.8319 21.8235C29.7616 21.9642 29.3114 22.4776 28.8262 22.9629C28.3409 23.4482 27.6586 24.0601 27.314 24.3203C26.9694 24.5735 26.3505 24.9814 25.9426 25.2276C25.5346 25.4667 24.8594 25.8254 24.4304 26.0153C24.0014 26.1981 23.3262 26.4654 22.9183 26.599C22.5104 26.7327 21.8914 26.9015 21.5468 26.9788C21.2022 27.0562 20.5481 27.1687 20.105 27.232C19.6127 27.2953 18.7757 27.3375 17.9599 27.3375C17.144 27.3375 16.3071 27.2953 15.8148 27.232C15.3717 27.1687 14.6754 27.0421 14.2675 26.9437C13.8595 26.8522 13.2266 26.6694 12.8608 26.5498C12.4951 26.4232 11.8621 26.177 11.4542 25.9942C11.0463 25.8113 10.3852 25.4667 9.97723 25.2276C9.56931 24.9814 8.95039 24.5735 8.60576 24.3133C8.25411 24.0601 7.58595 23.4622 7.12176 22.998C6.65054 22.5339 6.20042 22.0415 6.11602 21.9079C5.96832 21.6617 5.96832 21.6195 5.96832 12.9406L4.93444 12.4342C4.35772 12.1529 3.87243 11.9208 3.83727 11.9208C3.80914 11.9208 3.78804 13.229 3.781 17.7232L4.1397 17.9553C4.33662 18.0819 4.58279 18.321 4.70235 18.5179C4.82191 18.7008 4.94851 18.9751 4.99071 19.1298C5.03291 19.2845 5.05401 19.601 5.02588 19.8331C5.00478 20.0652 4.92038 20.3817 4.83598 20.5364C4.75862 20.6912 4.58982 20.9233 4.47025 21.0499C4.34366 21.1765 4.15376 21.3171 4.04826 21.3664C3.94277 21.4086 3.85133 21.4789 3.85837 21.5211C3.85837 21.5633 4.25223 22.8433 4.73048 24.3695C5.21577 25.8957 5.6237 27.2039 5.6448 27.2742C5.687 27.3868 5.53226 27.3938 3.08472 27.3938C1.03806 27.3938 0.489475 27.3727 0.510575 27.3094C0.524641 27.2602 0.932565 25.952 1.42489 24.4047C1.91018 22.8574 2.31107 21.5633 2.31107 21.5211C2.30404 21.4789 2.16337 21.3664 1.99458 21.2609C1.81875 21.1483 1.58665 20.9162 1.46709 20.7334C1.34752 20.5435 1.22093 20.2832 1.18576 20.1496C1.14356 20.016 1.11543 19.7628 1.11543 19.587C1.12246 19.4111 1.16466 19.1439 1.22093 18.9891C1.27719 18.8344 1.41082 18.5882 1.51632 18.4335C1.62885 18.2858 1.86798 18.0678 2.38843 17.7232L2.3814 11.1823L1.64292 10.8166C1.23499 10.6126 0.756736 10.3102 0.580906 10.1484C0.398044 9.97963 0.194081 9.7194 0.116717 9.56467C0.00418563 9.33961 -0.0169139 9.20598 0.0112188 8.89652C0.0393515 8.6363 0.116717 8.41827 0.250347 8.2354C0.355845 8.08067 0.559807 7.86968 0.693437 7.76418C0.827068 7.65868 4.26629 5.97775 8.32444 4.04363C12.3896 2.10247 15.9554 0.421541 16.2579 0.30901C16.5533 0.196479 17.0104 0.0769154 17.2777 0.0417495C17.5379 -0.00044954 18.0654 -0.00748272 18.4522 0.00658364ZM16.4126 1.67345C16.1805 1.77191 12.7624 3.40361 8.81676 5.30257C4.87115 7.20153 1.57258 8.81213 1.48115 8.87542C1.35456 8.97389 1.33346 9.03719 1.37566 9.13565C1.41082 9.21302 1.79765 9.44511 2.31107 9.69127C2.79636 9.92337 3.26758 10.1133 3.36605 10.1062C3.46451 10.0992 6.82637 9.70534 10.8353 9.23412L18.1287 8.36903C18.4311 8.60113 18.5507 8.74883 18.5929 8.85432C18.6398 8.97623 18.6398 9.09814 18.5929 9.22005C18.5507 9.32555 18.4452 9.46621 18.3467 9.54358C18.199 9.64907 17.137 9.78974 11.8762 10.4087C8.41587 10.8166 5.54633 11.1612 5.51117 11.1753C5.46897 11.1823 5.74326 11.337 6.10899 11.5129C6.47471 11.6887 8.99259 12.8914 11.7004 14.1925C14.9427 15.7468 16.7783 16.5908 17.0807 16.6612C17.3339 16.7245 17.7911 16.7737 18.1006 16.7737C18.41 16.7737 18.8531 16.7385 19.0852 16.6963C19.4017 16.6401 20.6677 16.0563 24.1772 14.3613C26.7443 13.1164 28.8824 12.0544 28.9246 12.0052C28.9668 11.956 29.0653 11.9067 29.1427 11.8856C29.22 11.8716 30.4368 11.2948 31.8504 10.5986C33.2641 9.9093 34.4738 9.28335 34.5441 9.20598C34.6238 9.1169 34.6473 9.02781 34.6145 8.93872C34.5793 8.86136 34.0659 8.573 33.2922 8.1932C32.5959 7.85561 29.2763 6.23095 25.9074 4.59222C22.5385 2.94645 19.6127 1.54685 19.4017 1.48355C19.1907 1.42025 18.7124 1.34992 18.3467 1.33585C17.9177 1.31476 17.5238 1.33585 17.2566 1.39915C17.0245 1.45542 16.6447 1.57498 16.4126 1.67345ZM7.30463 21.2749C7.82508 21.8868 8.30334 22.351 8.71126 22.6956C9.11919 23.0402 9.73811 23.5185 10.0827 23.7506C10.4274 23.9827 11.1236 24.3766 11.63 24.6227C12.1294 24.8689 12.8116 25.1643 13.1422 25.2768C13.4727 25.3893 13.9791 25.5441 14.2675 25.6214C14.5558 25.6988 15.0833 25.8113 15.4279 25.8746C15.7726 25.9379 16.49 26.0153 17.0104 26.0434C17.5309 26.0786 18.3889 26.0786 18.9094 26.0504C19.4298 26.0153 20.1613 25.9379 20.527 25.8746C20.8927 25.8113 21.5609 25.6566 22.004 25.53C22.4471 25.4034 23.1293 25.1643 23.5161 25.0025C23.9029 24.8478 24.4586 24.5805 24.7469 24.4258C25.0353 24.264 25.4924 23.9897 25.7667 23.8139C26.041 23.6381 26.5615 23.2512 26.9272 22.9558C27.2929 22.6605 27.8274 22.1752 28.1017 21.8798L28.6152 21.3453C28.6152 15.353 28.5941 13.6088 28.5589 13.6088C28.5308 13.6088 26.6248 14.5301 24.3249 15.6624C22.0251 16.7878 19.9503 17.7724 19.7182 17.8427C19.458 17.9271 18.9727 17.9904 18.4522 18.0186C17.7981 18.0467 17.4746 18.0326 17.0104 17.9342C16.6799 17.8709 16.2719 17.7583 16.0961 17.688C15.9203 17.6177 13.8877 16.6541 11.5738 15.5499C9.26688 14.4457 7.36089 13.5384 7.33979 13.5384C7.31869 13.5384 7.30463 15.2826 7.30463 17.4067V21.2749Z" fill="white"/>
</svg>
