<svg width="26" height="21" viewBox="0 0 26 21" fill="none" xmlns="http://www.w3.org/2000/svg">
<path d="M5.12891 0.258707C5.31172 0.213004 5.67734 0.126676 5.94141 0.0758949C6.30195 0.00987928 6.61172 -0.0104332 7.16016 0.00480116C7.56641 0.00987928 8.08945 0.0555824 8.32812 0.101286C8.5668 0.146989 8.98828 0.253629 9.26758 0.339957C9.54688 0.431364 10.0395 0.634489 10.3594 0.796989C10.6793 0.964567 11.1516 1.24894 11.4004 1.43683C11.6492 1.62472 12.0504 1.96496 12.2891 2.1884C12.5277 2.41691 12.7766 2.63527 12.8477 2.67082C12.9187 2.70129 13.0254 2.71652 13.0863 2.70129C13.1523 2.68605 13.4266 2.46261 13.6957 2.20871C13.9699 1.9548 14.3863 1.59933 14.625 1.4216C14.8637 1.23879 15.3562 0.944254 15.7168 0.76652C16.0773 0.583707 16.5852 0.380582 16.834 0.309489C17.0828 0.238395 17.484 0.146989 17.7227 0.106364C17.9613 0.0606605 18.2 0.0301918 18.2559 0.0301918C18.3117 0.0251137 18.4184 0.0708168 18.4945 0.131754C18.5961 0.202848 18.6367 0.27902 18.6367 0.400895C18.6418 0.502457 18.6012 0.598942 18.5301 0.664957C18.4539 0.736051 18.2609 0.791911 17.8801 0.852848C17.5855 0.903629 17.159 1.00011 16.9355 1.07121C16.7121 1.1423 16.3008 1.31496 16.0215 1.45207C15.7422 1.58918 15.3207 1.84816 15.082 2.03097C14.8434 2.20871 14.427 2.56418 14.1527 2.81808C13.8836 3.07199 13.584 3.32082 13.4926 3.36652C13.3859 3.42238 13.2133 3.45285 13 3.45285C12.7715 3.45285 12.6141 3.42238 12.4922 3.35636C12.3957 3.30558 12.0859 3.0466 11.8066 2.77746C11.5273 2.51339 11.1617 2.19855 10.9941 2.0716C10.8266 1.94972 10.527 1.75675 10.334 1.63996C10.1359 1.52824 9.78555 1.35558 9.54688 1.2591C9.3082 1.16261 8.89688 1.03058 8.63281 0.964567C8.36875 0.893473 7.91172 0.817301 7.61719 0.786832C7.23125 0.746207 6.92148 0.746207 6.5 0.786832C6.18008 0.817301 5.69258 0.898551 5.41836 0.969645C5.14922 1.04074 4.7582 1.16769 4.55508 1.2591C4.35703 1.3505 4.04219 1.50793 3.85938 1.61457C3.67656 1.71613 3.33633 1.95988 3.10273 2.14777C2.86406 2.33566 2.54414 2.64035 2.38672 2.82316C2.23438 3.00597 2.01094 3.29035 1.89922 3.45793C1.78242 3.6255 1.59453 3.9505 1.47773 4.1841C1.36602 4.41261 1.20352 4.79855 1.12227 5.04738C1.04102 5.29113 0.934375 5.66691 0.89375 5.88527C0.848047 6.09855 0.797266 6.49972 0.782031 6.77394C0.761719 7.05324 0.771875 7.48996 0.807422 7.77433C0.837891 8.05363 0.924219 8.5005 0.995313 8.76457C1.06641 9.02863 1.22891 9.4755 1.36094 9.7548C1.49805 10.0341 1.72656 10.4454 1.87891 10.6689C2.08711 10.9786 2.97578 11.9028 5.6418 14.579C7.56641 16.5036 9.1457 18.0728 9.16094 18.0575C9.17617 18.0423 9.1457 17.8595 9.09492 17.6513C9.03906 17.4431 8.95781 17.0216 8.91211 16.7118C8.86133 16.3716 8.82578 15.8333 8.82578 15.3407C8.82578 14.8939 8.85117 14.2997 8.88164 14.0204C8.91719 13.7411 9.03399 13.0911 9.1457 12.5732C9.25234 12.0552 9.34375 11.5728 9.34375 11.4966C9.34375 11.4001 9.2625 11.2579 9.08984 11.065C8.94766 10.9025 8.76992 10.6333 8.68867 10.4657C8.60742 10.2982 8.51094 10.0341 8.47539 9.88175C8.43984 9.72941 8.40938 9.41964 8.40938 9.19621C8.40938 8.96261 8.45 8.663 8.50078 8.48527C8.55156 8.31769 8.63789 8.09425 8.68867 7.99269C8.73945 7.88605 8.88164 7.69308 9.00352 7.56613C9.12031 7.43918 9.35391 7.26652 9.52148 7.18527C9.76016 7.06847 9.89219 7.038 10.1461 7.038C10.3188 7.038 10.5473 7.07355 10.6539 7.11925C10.7555 7.15988 10.923 7.26144 11.0195 7.33761C11.116 7.41886 11.2887 7.61183 11.6035 8.05363L11.832 7.80988C11.959 7.67785 12.1875 7.47472 12.3398 7.35793C12.4922 7.24113 12.7664 7.06339 12.9492 6.96183C13.132 6.86027 13.4367 6.70793 13.6348 6.6216C13.8328 6.53527 14.3508 6.3423 14.7926 6.18996C15.2293 6.04269 15.732 5.84972 15.9098 5.76339C16.0824 5.67199 16.3516 5.51964 16.5039 5.413C16.6562 5.31144 16.9203 5.07785 17.0828 4.90011C17.2707 4.69699 17.4434 4.44308 17.5449 4.21964C17.6363 4.02668 17.7328 3.80324 17.7684 3.72707C17.7988 3.64582 17.9004 3.53918 17.9918 3.48332C18.0781 3.42746 18.2355 3.38175 18.332 3.38175C18.4336 3.38175 18.5859 3.42746 18.6875 3.49855C18.8145 3.5798 18.9008 3.6966 18.9871 3.91496C19.0531 4.08254 19.1496 4.438 19.2055 4.70207C19.2867 5.09308 19.302 5.31652 19.2816 5.87004C19.2664 6.39308 19.2309 6.64191 19.1445 6.91105C19.0785 7.10402 18.9414 7.44933 18.8348 7.67277C18.7078 7.92668 18.6367 8.15011 18.6367 8.27199C18.6367 8.37355 18.6977 8.63761 18.7688 8.85597C18.8398 9.06925 18.9719 9.3841 19.0582 9.5466C19.1496 9.7091 19.3629 10.0189 19.5406 10.2321C19.7133 10.4454 19.8707 10.6892 19.8859 10.7704C19.9062 10.8517 19.891 11.004 19.8605 11.1005C19.8301 11.197 19.7539 11.329 19.693 11.39C19.627 11.4509 19.4746 11.5474 19.3477 11.6032C19.2207 11.654 18.9312 11.7454 18.7027 11.7962L18.6948 11.798C18.2913 11.8876 18.2862 11.8888 18.2609 12.0653C18.2457 12.1618 18.2305 12.4107 18.2305 12.6138C18.2305 12.8677 18.2051 13.0251 18.1441 13.1318C18.0934 13.213 17.9969 13.3095 17.9258 13.3349C17.8191 13.3806 17.8039 13.4161 17.8141 13.5532C17.8293 13.67 17.7785 13.8071 17.6313 14.0458C17.5195 14.2286 17.3773 14.4775 17.3062 14.6044C17.2352 14.7314 17.0676 14.9294 16.9305 15.0513C16.768 15.1986 16.5852 15.3001 16.4023 15.3509C16.2297 15.3966 16.0215 15.422 15.8691 15.4017C15.7117 15.3864 15.4426 15.29 15.1582 15.1478C14.9094 15.0208 14.5539 14.8786 14.3711 14.8329C14.1426 14.772 13.909 14.7517 13.6094 14.7669C13.2539 14.7821 13.1219 14.8126 12.8477 14.9446C12.6648 15.0361 12.4414 15.1833 12.3449 15.2747C12.2535 15.3661 12.1418 15.5134 12.0961 15.5946C12.0504 15.6861 12.0098 15.9247 11.9945 16.1786C11.9793 16.5189 11.9945 16.6966 12.0859 17.0165C12.1469 17.24 12.284 17.5954 12.3855 17.8036C12.4922 18.0118 12.6395 18.2861 12.7207 18.413C12.7969 18.54 12.9645 18.7786 13.0914 18.9462C13.2184 19.1138 13.518 19.454 13.7566 19.6978C13.9953 19.9415 14.2645 20.165 14.3457 20.1954C14.4523 20.2259 14.5437 20.2259 14.6504 20.1903C14.7418 20.1548 15.6914 19.2458 17.0625 17.8798C18.3879 16.5544 19.373 15.6099 19.4492 15.5946C19.5406 15.5693 19.6168 15.5946 19.7234 15.681C19.825 15.7622 19.8707 15.8486 19.8758 15.9603C19.8809 16.1126 19.7031 16.3056 17.5703 18.4384C15.6914 20.3224 15.209 20.7743 14.9906 20.8759C14.8332 20.9521 14.6352 21.0028 14.498 21.0028C14.3711 21.0028 14.173 20.9622 14.0512 20.9064C13.9344 20.8556 13.7109 20.7083 13.5586 20.5763C13.4062 20.4443 13.1117 20.1497 12.9086 19.9212C12.7055 19.6927 12.4008 19.2966 12.2281 19.0478C12.0605 18.7989 11.8371 18.4181 11.7305 18.2099C11.6238 18.0017 11.4766 17.6361 11.4004 17.3974C11.2988 17.0825 11.2531 16.8185 11.2328 16.4325C11.2125 15.9806 11.2227 15.8435 11.3191 15.5439C11.375 15.3458 11.502 15.0868 11.5934 14.9599C11.6848 14.8329 11.9234 14.6247 12.1164 14.4927C12.3094 14.3556 12.6039 14.1982 12.7715 14.1372C12.9848 14.0611 13.2336 14.0204 13.6094 14.0052C14.0461 13.9849 14.2137 14.0052 14.5488 14.0915C14.7723 14.1525 15.1734 14.3099 15.4375 14.4368C15.8285 14.6247 15.9504 14.6603 16.0977 14.6349C16.1941 14.6196 16.3262 14.5689 16.3871 14.5282C16.4531 14.4876 16.5445 14.381 16.5902 14.2946C16.641 14.2083 16.7578 14.0153 16.8441 13.863C16.9762 13.6446 17.0016 13.5685 16.9609 13.4872C16.9305 13.4314 16.9102 13.3044 16.9102 13.2079C16.9102 13.0911 16.9559 12.9743 17.0371 12.8778C17.1082 12.7915 17.2301 12.7153 17.3164 12.7001C17.4586 12.6747 17.4688 12.6595 17.4688 12.4614C17.4688 12.3396 17.4941 12.0958 17.5195 11.913C17.5551 11.6946 17.616 11.5271 17.6973 11.4204C17.7684 11.329 17.8699 11.2325 17.9258 11.2021C17.9816 11.1716 18.1594 11.1259 18.3168 11.0954C18.4793 11.07 18.718 11.0091 19.0938 10.8974L18.8398 10.5825C18.6977 10.4048 18.4844 10.0696 18.3625 9.83097C18.2406 9.5923 18.0781 9.21144 18.007 8.98293C17.9359 8.74933 17.875 8.4548 17.875 8.32277C17.875 8.18566 17.9004 7.98761 17.9309 7.87589C17.9613 7.76418 18.0781 7.48996 18.1848 7.26652C18.2914 7.04308 18.4133 6.69777 18.4641 6.5048C18.525 6.23058 18.5402 6.00207 18.5199 5.51457C18.5047 5.16418 18.4691 4.78332 18.4387 4.66652C18.4082 4.54464 18.3676 4.44816 18.3422 4.44816C18.3219 4.44816 18.2508 4.5548 18.1797 4.68683C18.1086 4.81886 17.9512 5.05754 17.8242 5.21496C17.6973 5.37238 17.4941 5.59582 17.3672 5.70246C17.2402 5.81418 16.966 6.0173 16.7578 6.14933C16.5496 6.28644 16.25 6.45402 16.0977 6.52004C15.9453 6.58605 15.4527 6.76886 15.0059 6.92121C14.559 7.07355 13.9852 7.29191 13.7363 7.41379C13.4875 7.53058 13.1422 7.71847 12.9746 7.83527C12.807 7.94699 12.4871 8.23644 11.8574 8.91691H11.5883C11.3547 8.91691 11.3039 8.8966 11.1566 8.74933C11.0703 8.65793 10.9129 8.44972 10.8164 8.28722C10.7148 8.11965 10.5625 7.94699 10.4609 7.89113C10.334 7.81496 10.2273 7.78957 10.0801 7.8048C9.96836 7.82004 9.79062 7.89113 9.68398 7.9673C9.56211 8.05871 9.44531 8.21105 9.34883 8.42433C9.2625 8.59699 9.18125 8.85597 9.16602 8.99308C9.1457 9.13527 9.15586 9.3841 9.18633 9.55168C9.22187 9.71925 9.29805 9.97316 9.36406 10.1103C9.425 10.2525 9.59766 10.4911 9.73477 10.6435C9.87695 10.7958 10.0191 10.9837 10.0496 11.065C10.0801 11.1411 10.1055 11.3189 10.1055 11.456C10.1055 11.5982 10.0293 12.0704 9.93281 12.5071C9.83633 12.9489 9.71953 13.5583 9.67383 13.8681C9.62305 14.2032 9.59258 14.7517 9.5875 15.2392C9.5875 15.6861 9.61797 16.2446 9.64844 16.4833C9.67891 16.722 9.75 17.0978 9.80078 17.3212C9.85664 17.5446 9.96836 17.9357 10.0547 18.1845C10.1359 18.4333 10.207 18.7177 10.207 18.8091C10.207 18.9157 10.1562 19.0275 10.0648 19.129C9.98867 19.2103 9.85156 19.3017 9.76016 19.3321C9.65859 19.3626 9.53672 19.3575 9.43516 19.3271C9.31328 19.2915 8.22656 18.2353 5.42852 15.4321C2.38164 12.3751 1.52852 11.4915 1.27461 11.1259C1.10195 10.8771 0.858203 10.4607 0.736328 10.2118C0.614453 9.963 0.446875 9.5466 0.365625 9.29777C0.279297 9.04894 0.167578 8.59191 0.106641 8.28214C0.0355469 7.90636 0 7.52043 0 7.11418C0 6.77902 0.0355469 6.28644 0.0761719 6.02238C0.121875 5.75832 0.208203 5.34699 0.279297 5.10832C0.345313 4.86964 0.482422 4.48371 0.589063 4.24504C0.690625 4.00636 0.878516 3.64074 1.00547 3.43254C1.12734 3.22433 1.37109 2.86886 1.54883 2.64543C1.72148 2.42199 2.02109 2.09191 2.21406 1.91418C2.40703 1.73136 2.70156 1.48254 2.86914 1.36066C3.03672 1.23879 3.33633 1.04582 3.5293 0.92902C3.72227 0.817301 4.08789 0.639567 4.3418 0.538004C4.5957 0.436442 4.94609 0.309489 5.12891 0.258707Z" fill="#923DE7"/>
<path d="M19.7133 0.314567C19.7488 0.233317 19.8148 0.152067 19.8555 0.126676C19.8961 0.101286 19.9773 0.080973 20.0332 0.080973C20.0891 0.080973 20.3988 0.146989 20.7188 0.228239C21.0387 0.309489 21.4855 0.451676 21.709 0.548161C21.9324 0.644645 22.2727 0.807145 22.4707 0.918864C22.6688 1.03058 22.9988 1.24894 23.207 1.40636C23.4152 1.56379 23.7707 1.88371 23.9941 2.1173C24.2227 2.35089 24.5273 2.71652 24.6746 2.92472C24.8219 3.13293 25.0504 3.52394 25.1875 3.788C25.3195 4.05207 25.5023 4.47863 25.5887 4.72746C25.6801 4.97629 25.807 5.46379 25.8781 5.8091C25.9645 6.26105 26 6.59621 26 7.04816C26 7.39347 25.9645 7.89113 25.9187 8.15519C25.873 8.41925 25.7816 8.83058 25.7105 9.06925C25.6445 9.30793 25.4922 9.71925 25.3754 9.98332C25.2586 10.2474 25.0047 10.7044 24.8117 10.9989C24.507 11.456 24.2125 11.781 22.7043 13.2993C21.1707 14.8431 20.927 15.0665 20.7848 15.0767C20.673 15.0818 20.5816 15.0513 20.5055 14.97C20.4395 14.904 20.3887 14.7923 20.3887 14.706C20.3887 14.5841 20.6426 14.3048 22.1203 12.8169C23.4508 11.4712 23.9129 10.9786 24.1313 10.6435C24.2887 10.4048 24.4969 10.0493 24.5934 9.85636C24.6898 9.66339 24.8371 9.28254 24.9234 9.01847C25.0047 8.75441 25.1063 8.36339 25.1418 8.15519C25.1773 7.94699 25.2078 7.45441 25.2078 7.06339C25.2078 6.67238 25.1773 6.20519 25.1418 6.02238C25.1063 5.83957 25.025 5.49933 24.9539 5.26066C24.8828 5.02199 24.7406 4.64621 24.6441 4.42277C24.5426 4.19933 24.3141 3.788 24.1262 3.50871C23.9434 3.22941 23.6082 2.81808 23.3848 2.58957C23.1613 2.36613 22.8059 2.06144 22.5977 1.91418C22.3895 1.76691 22.0441 1.55871 21.8359 1.45207C21.6277 1.3505 21.2977 1.20324 21.0996 1.13214C20.9016 1.06613 20.5613 0.964567 20.3379 0.918864C20.1145 0.868082 19.891 0.807145 19.8402 0.786832C19.7945 0.761442 19.7285 0.680192 19.7031 0.60402C19.6625 0.497379 19.6676 0.421207 19.7133 0.314567Z" fill="#923DE7"/>
</svg>
