<svg width="360" height="168" viewBox="0 0 360 168" fill="none" xmlns="http://www.w3.org/2000/svg">
<rect width="360" height="168" fill="#741CCC"/>
<rect x="180" width="180" height="168" fill="#FD86FF"/>
<rect x="180" y="168" width="90" height="180" transform="rotate(-90 180 168)" fill="#923DE7"/>
<rect x="180" y="168" width="90" height="90" transform="rotate(-90 180 168)" fill="#FEDDFF"/>
<path d="M77.5739 32.9149L88.0392 9L97.8414 33.198L116.661 15.1061L116.459 41.2128L140.77 31.7018L130.588 55.738L156.695 56.2637L138.085 74.5739L162 85.0392L137.802 94.8414L155.894 113.661L129.787 113.459L139.298 137.77L115.262 127.588L114.736 153.695L96.426 135.085L85.9607 159L76.1586 134.802L57.3389 152.894L57.5411 126.787L33.2298 136.298L43.4121 112.262L17.3135 111.736L35.9149 93.426L12 82.9607L36.198 73.1586L18.1061 54.3389L44.2128 54.5411L34.7018 30.2298L58.738 40.4121L59.2637 14.3135L77.5739 32.9149Z" fill="#FC62FF"/>
<path d="M310.165 78C310.259 78 310.352 77.9722 310.43 77.9201L324.034 68.8934C324.39 68.6571 324.282 68.1081 323.863 68.024L308.327 64.907C307.992 64.8398 307.833 64.4534 308.024 64.1697L316.738 51.2007C316.975 50.8478 316.67 50.3837 316.252 50.4623L300.671 53.393C300.338 53.4557 300.047 53.1624 300.112 52.8298L303.099 37.5769C303.18 37.1621 302.724 36.8528 302.369 37.082L289.091 45.6506C288.808 45.833 288.43 45.6752 288.362 45.3459L285.175 30.0937C285.089 29.6813 284.551 29.5726 284.312 29.9192L275.394 42.8256C275.204 43.1015 274.796 43.1015 274.606 42.8256L265.688 29.9192C265.449 29.5726 264.911 29.6813 264.825 30.0937L261.638 45.3459C261.57 45.6752 261.192 45.833 260.909 45.6506L247.631 37.082C247.276 36.8528 246.82 37.1621 246.901 37.5769L249.888 52.8298C249.953 53.1624 249.662 53.4557 249.329 53.393L233.748 50.4623C233.33 50.3837 233.025 50.8478 233.262 51.2007L241.976 64.1697C242.167 64.4534 242.008 64.8398 241.673 64.907L226.137 68.024C225.718 68.1081 225.61 68.6571 225.966 68.8934L239.57 77.9201C239.648 77.9722 239.741 78 239.835 78H310.165Z" fill="#741CCC"/>
<path d="M270 147.425C270 147.519 270.028 147.612 270.081 147.691L276.322 157.041C276.559 157.395 277.107 157.288 277.191 156.869L279.312 146.364C279.379 146.029 279.764 145.87 280.048 146.06L288.871 151.953C289.225 152.189 289.688 151.883 289.609 151.465L287.615 140.928C287.552 140.595 287.844 140.303 288.177 140.368L298.555 142.388C298.97 142.469 299.279 142.012 299.049 141.657L293.218 132.676C293.034 132.393 293.192 132.014 293.523 131.946L303.9 129.791C304.313 129.705 304.422 129.165 304.074 128.926L295.292 122.895C295.015 122.705 295.015 122.295 295.292 122.105L304.074 116.074C304.422 115.835 304.313 115.295 303.9 115.209L293.523 113.054C293.192 112.986 293.034 112.607 293.218 112.324L299.049 103.343C299.279 102.988 298.97 102.531 298.555 102.612L288.177 104.632C287.844 104.697 287.552 104.405 287.615 104.072L289.609 93.5345C289.688 93.1171 289.225 92.8108 288.871 93.0468L280.048 98.9402C279.764 99.1296 279.379 98.9707 279.312 98.6365L277.191 88.1305C277.107 87.7124 276.559 87.6045 276.322 87.9592L270.081 97.3092C270.028 97.388 270 97.4806 270 97.5754L270 147.425Z" fill="#FC62FF"/>
<path d="M270 146.425C270 146.519 269.972 146.612 269.919 146.691L263.678 156.041C263.441 156.395 262.893 156.288 262.809 155.869L260.688 145.364C260.621 145.029 260.236 144.87 259.952 145.06L251.129 150.953C250.775 151.189 250.312 150.883 250.391 150.465L252.385 139.928C252.448 139.595 252.156 139.303 251.823 139.368L241.445 141.388C241.03 141.469 240.721 141.012 240.951 140.657L246.782 131.676C246.966 131.393 246.808 131.014 246.477 130.946L236.1 128.791C235.687 128.705 235.578 128.165 235.926 127.926L244.708 121.895C244.985 121.705 244.985 121.295 244.708 121.105L235.926 115.074C235.578 114.835 235.687 114.295 236.1 114.209L246.477 112.054C246.808 111.986 246.966 111.607 246.782 111.324L240.951 102.343C240.721 101.988 241.03 101.531 241.445 101.612L251.823 103.632C252.156 103.697 252.448 103.405 252.385 103.072L250.391 92.5345C250.312 92.1171 250.775 91.8108 251.129 92.0468L259.952 97.9402C260.236 98.1296 260.621 97.9707 260.688 97.6365L262.809 87.1305C262.893 86.7124 263.441 86.6045 263.678 86.9592L269.919 96.3092C269.972 96.388 270 96.4806 270 96.5754L270 146.425Z" fill="#923DE7"/>
</svg>
