<svg width="11" height="22" viewBox="0 0 11 22" fill="none" xmlns="http://www.w3.org/2000/svg">
<path d="M10.5684 3.2991C10.5684 3.25829 10.5566 3.21836 10.5343 3.18413L8.75223 0.439939C8.64906 0.28107 8.40501 0.32819 8.3684 0.51405L7.77788 3.51178C7.74858 3.66054 7.57657 3.73071 7.45156 3.64489L5.00719 1.96668C4.85244 1.86044 4.64643 1.99408 4.68037 2.1787L5.23607 5.20181C5.26303 5.34849 5.13341 5.47605 4.98719 5.44675L2.10003 4.86824C1.91821 4.83181 1.78124 5.03089 1.88027 5.18768L3.51439 7.77511C3.59278 7.89923 3.52355 8.06347 3.37996 8.09403L0.477412 8.71176C0.297476 8.75005 0.249386 8.98426 0.399676 9.09036L2.86307 10.8294C2.98217 10.9135 2.9821 11.0901 2.86293 11.1741L0.398052 12.9111C0.247672 13.017 0.295562 13.2513 0.475466 13.2897L3.37749 13.9099C3.52105 13.9406 3.59014 14.1049 3.51165 14.229L1.87532 16.815C1.77617 16.9717 1.91296 17.1709 2.09482 17.1346L4.98247 16.5586C5.12871 16.5294 5.25822 16.6571 5.23114 16.8037L4.67287 19.8264C4.63878 20.0109 4.84467 20.1448 4.99951 20.0386L7.44531 18.3625C7.57038 18.2768 7.74234 18.3471 7.77152 18.4959L8.35948 21.4941C8.39593 21.68 8.63994 21.7274 8.74325 21.5686L10.5277 18.8259C10.5499 18.7917 10.5618 18.7518 10.5618 18.711L10.5684 3.2991Z" fill="#FC62FF"/>
</svg>
