<svg width="50" height="24" viewBox="0 0 50 24" fill="none" xmlns="http://www.w3.org/2000/svg">
<path d="M42.5128 24C42.6055 24 42.6963 23.9731 42.774 23.9226L49.0089 19.8698C49.3698 19.6352 49.2625 19.0806 48.8401 18.9976L42.0268 17.6584C41.6886 17.592 41.529 17.2011 41.7239 16.917L45.5355 11.3602C45.7768 11.0084 45.4729 10.5403 45.0534 10.6176L38.1835 11.8835C37.8501 11.9449 37.5601 11.6504 37.6266 11.3181L38.9385 4.75607C39.0211 4.3428 38.5686 4.03173 38.2123 4.25692L32.3336 7.97319C32.0516 8.15146 31.6783 7.99429 31.6087 7.668L30.202 1.07215C30.1148 0.663254 29.5825 0.554191 29.3415 0.895848L25.3917 6.49594C25.2007 6.76669 24.7993 6.76669 24.6083 6.49594L20.6585 0.895848C20.4175 0.554191 19.8852 0.663254 19.798 1.07215L18.3913 7.668C18.3217 7.99429 17.9484 8.15146 17.6664 7.97319L11.7877 4.25692C11.4314 4.03173 10.9789 4.3428 11.0615 4.75607L12.3734 11.3181C12.4399 11.6504 12.1499 11.9449 11.8165 11.8835L4.94663 10.6176C4.5271 10.5403 4.22319 11.0084 4.46449 11.3602L8.27608 16.917C8.471 17.2011 8.31136 17.592 7.97324 17.6584L1.15993 18.9976C0.737507 19.0806 0.630185 19.6352 0.991138 19.8698L7.22597 23.9226C7.30373 23.9731 7.39447 24 7.48721 24H42.5128Z" fill="#8539FF"/>
</svg>
