<svg width="31" height="24" viewBox="0 0 31 24" fill="none" xmlns="http://www.w3.org/2000/svg">
<path d="M24.6931 11.7954C24.6931 12.611 25.3604 13.2784 26.176 13.2784H29.142C29.9576 13.2784 30.6249 12.611 30.6249 11.7954C30.6249 10.9798 29.9576 10.3124 29.142 10.3124H26.176C25.3604 10.3124 24.6931 10.9798 24.6931 11.7954ZM22.6021 18.9432C22.4857 19.0951 22.4009 19.2688 22.3527 19.4541C22.3045 19.6393 22.2939 19.8323 22.3216 20.0217C22.3492 20.2111 22.4145 20.393 22.5137 20.5567C22.6128 20.7204 22.7437 20.8626 22.8987 20.9749C23.6847 21.5532 24.5151 22.1761 25.3011 22.7693C25.9536 23.2586 26.873 23.1252 27.3476 22.4727C27.3476 22.4578 27.3624 22.4578 27.3624 22.443C27.4785 22.2896 27.5629 22.1147 27.6108 21.9284C27.6588 21.7421 27.6692 21.5482 27.6416 21.3578C27.6141 21.1674 27.549 20.9845 27.4501 20.8194C27.3513 20.6544 27.2206 20.5107 27.0658 20.3965C26.2799 19.8034 25.4494 19.1805 24.6783 18.6022C24.5225 18.4871 24.3456 18.4038 24.1577 18.3572C23.9698 18.3105 23.7745 18.3014 23.583 18.3303C23.3916 18.3593 23.2077 18.4257 23.0419 18.5257C22.8761 18.6258 22.7317 18.7576 22.617 18.9136C22.617 18.9284 22.6021 18.9432 22.6021 18.9432ZM27.3772 1.13296C27.3772 1.11813 27.3624 1.11813 27.3624 1.1033C27.2483 0.94848 27.1045 0.817861 26.9395 0.719016C26.7745 0.620171 26.5915 0.555066 26.4011 0.527477C26.2108 0.499888 26.0168 0.510364 25.8305 0.558297C25.6443 0.606229 25.4693 0.690665 25.3159 0.806709C24.53 1.39989 23.6847 2.02273 22.9135 2.61591C22.261 3.10529 22.1424 4.02472 22.6318 4.66239C22.6318 4.67722 22.6466 4.67722 22.6466 4.69205C23.136 5.34455 24.0406 5.47801 24.6931 4.98864C25.4791 4.41029 26.3095 3.77262 27.0955 3.17944C27.7332 2.70489 27.8518 1.78546 27.3772 1.13296ZM9.86355 7.34654H3.93173C2.30048 7.34654 0.96582 8.6812 0.96582 10.3124V13.2784C0.96582 14.9096 2.30048 16.2443 3.93173 16.2443H5.41468V20.6931C5.41468 21.5088 6.08201 22.1761 6.89764 22.1761C7.71326 22.1761 8.38059 21.5088 8.38059 20.6931V16.2443H9.86355L17.2783 20.6931V2.89767L9.86355 7.34654ZM20.9857 11.7954C20.9857 9.82307 20.1256 8.04353 18.7613 6.8275V16.7485C20.1256 15.5473 20.9857 13.7677 20.9857 11.7954Z" fill="#FDAEFF"/>
</svg>
