<svg width="277" height="103" viewBox="0 0 277 103" fill="none" xmlns="http://www.w3.org/2000/svg">
<path d="M134.649 82.0442C134.649 82.0442 135.879 78.2909 137.714 68.9859C139.55 59.6809 139.413 57.3351 135.352 55.2239C131.29 53.1127 63.5364 40.68 50.1808 48.0106C36.8448 55.3412 22.2006 57.0419 22.2006 57.0419C22.2006 57.0419 22.3568 57.9216 22.2006 58.0389C22.0444 58.1561 20.7752 57.9216 20.7557 58.2539C20.7361 58.5862 21.0486 60.0719 20.7557 60.1501C20.4628 60.2283 19.506 60.6192 19.4279 60.2674C19.3498 59.9155 19.5451 59.6809 19.135 59.6418C18.725 59.6027 18.354 59.7005 18.3345 60.3651C18.315 61.0297 18.1002 60.5019 17.9635 60.7756C17.8268 61.0493 17.9635 62.3786 17.8073 62.4177C17.6511 62.4568 15.9719 62.6132 15.8547 62.3981C15.7376 62.1831 15.5619 62.2026 15.308 61.9094C15.0542 61.6162 15.308 61.2057 14.937 61.1079C14.566 61.0102 13.8631 60.9125 13.785 61.3425C13.7069 61.7726 13.9412 62.5154 13.1797 62.5545C12.4182 62.5936 12.6525 63.0823 12.4182 63.6101C12.1839 64.1379 11.5786 63.8447 11.3248 63.962C11.071 64.0793 11.2467 65.2326 10.9733 65.4086C10.7 65.5845 10.2509 65.4672 10.2118 65.604C10.1728 65.7409 10.2509 66.2491 10.1337 66.2687C10.0166 66.2882 8.53262 66.1709 8.43499 66.3469C8.33736 66.5228 8.37641 67.4807 8.25926 67.5589C8.1421 67.6371 7.88827 67.5589 7.79064 67.6566C7.69301 67.7544 7.79064 68.3995 7.67349 68.5754C7.55633 68.7513 6.50195 68.5754 6.44337 68.6927C6.3848 68.81 6.44337 69.0836 6.18954 69.1227C5.93571 69.1618 5.50614 68.9859 5.46709 69.416C5.42804 69.846 6.01381 69.5919 6.18954 69.7483C6.36527 69.9047 6.24812 70.2761 6.26764 70.4129C6.28717 70.5498 5.23278 70.4716 5.07658 70.5302C4.92037 70.5889 4.95942 70.8625 4.9399 71.0776C4.92037 71.2926 3.12401 71.1949 3.02638 71.2535C2.92875 71.3122 2.6554 71.7422 2.53824 71.8595C2.42109 71.9768 2.59682 72.3873 2.47966 72.4851C2.36251 72.5828 1.87437 72.5241 1.77674 72.5632C1.67911 72.6023 1.50338 72.5632 1.46433 72.7392C1.42528 72.9151 1.48386 72.9933 1.40575 73.0324C1.32765 73.0715 0.195164 73.0324 0.156113 73.1106C0.117061 73.1888 0.019433 73.5993 0.253741 73.6189C0.488049 73.6384 0.898087 73.5602 0.898087 73.7166C0.898087 73.873 0.859036 74.2053 0.917613 74.2248C0.97619 74.2444 5.34994 74.2248 5.34994 74.2248C5.34994 74.2248 5.36946 73.5993 5.38899 73.482C5.40851 73.3647 9.76273 73.482 9.76273 73.482C9.76273 73.482 9.89941 73.482 9.89941 73.5993C9.89941 73.7166 9.93846 74.0294 9.89941 74.0685C9.86036 74.1076 9.17696 74.0685 9.11839 74.1467C9.05981 74.2248 9.05981 74.7136 9.09886 74.7722C9.13791 74.8308 9.60653 74.9286 9.62605 75.0263C9.64558 75.1241 9.587 75.4759 9.6651 75.515C9.74321 75.5541 10.0947 75.4759 10.1532 75.5932C10.2118 75.7105 10.1337 76.121 10.2118 76.1601C10.2899 76.1992 12.1839 76.1992 12.3206 76.2188C12.4573 76.2383 12.2425 76.7661 12.4963 76.8443C12.7502 76.9225 12.8478 76.903 12.8868 76.9812C12.9259 77.0594 12.8283 78.9555 12.9259 78.9751C13.0235 78.9946 13.4531 79.1315 13.4921 78.8969C13.5312 78.6623 13.4726 78.2127 13.5507 78.1932C13.6288 78.1736 14.8004 78.2713 14.8589 78.1541C14.9175 78.0368 14.8394 77.7435 14.8785 77.7044C14.9175 77.6653 14.8199 77.1375 14.898 77.0203C14.9761 76.903 15.5423 76.9421 15.5814 77.0203C15.6204 77.0985 15.5814 77.5872 15.5814 77.7044C15.5814 77.8217 15.5423 78.936 15.679 78.9555C15.8157 78.9751 16.1671 79.0533 16.1867 78.936C16.2062 78.8187 16.1867 78.33 16.2257 78.3104C16.2648 78.2909 16.9286 78.2518 16.9677 78.3104C17.0067 78.3691 16.9091 78.9555 16.9677 78.9751C17.0263 78.9946 17.5339 78.9751 17.573 78.9946C17.612 79.0142 17.7292 79.0533 17.6901 79.2879C17.6511 79.5224 17.5925 80.2262 17.6706 80.2653C17.7487 80.3044 18.1978 80.3044 18.2369 80.3435C18.2759 80.3826 18.3345 80.7931 18.3345 81.2036C18.3345 81.6141 18.4907 81.5555 18.8031 81.6532C19.1155 81.7509 18.8422 82.6502 19.0374 82.7675C19.2327 82.8847 19.838 82.7675 19.8965 83.0998C19.9551 83.4321 20.3652 84.3118 20.5409 84.7614C20.7166 85.211 20.5409 86.6185 20.6776 86.7944C20.8143 86.9703 21.2048 86.8921 21.2829 87.244C21.361 87.5959 21.7905 87.9087 21.9272 88.0455C22.0639 88.1823 22.8254 88.1823 23.0011 88.1823C23.1769 88.1823 23.0402 88.6515 23.2159 88.7297C23.3916 88.8079 24.0165 88.7883 24.1531 88.847C24.2898 88.9056 24.407 89.3943 24.5632 89.4334C24.7194 89.4725 24.9732 89.3943 25.0708 89.5507C25.1685 89.7071 25.1099 90.1958 25.1685 90.2349C25.227 90.274 25.5199 90.3522 25.559 90.2349C25.598 90.1176 25.5199 89.6289 25.5785 89.5703C25.6371 89.5116 26.1838 89.4921 26.2424 89.5703C26.301 89.6485 26.4767 89.8439 26.4962 90.0394C26.5157 90.2349 26.5938 92.698 26.5938 92.8153C26.5938 92.9326 26.1643 93.2258 26.1448 93.4213C26.1252 93.6168 26.0471 93.8318 26.1448 93.9295C26.2424 94.0273 26.8867 93.9295 26.9453 94.0273C27.0039 94.125 27.0625 94.3987 26.7891 94.3205C26.5157 94.2423 26.2229 94.2228 26.2424 94.4573C26.2619 94.6919 26.3205 94.8483 26.0276 94.9069C25.7347 94.9656 25.6566 95.1806 25.5395 95.2393C25.4223 95.2979 25.5785 95.552 25.3052 95.6107C25.0318 95.6693 24.9342 95.9235 24.9342 95.9235C24.9342 95.9235 24.8561 96.0017 24.6022 96.0212C24.3484 96.0407 24.5046 95.552 24.3679 95.2588C24.2312 94.9656 23.665 95.0242 23.6455 95.2784C23.6259 95.5325 23.7822 95.8257 23.6455 95.9039C23.5088 95.9821 23.1183 95.8453 23.0597 96.158C23.0011 96.4708 22.9621 96.9595 23.1378 97.0182C23.3135 97.0768 23.7236 97.0768 23.7431 97.2136C23.7626 97.3505 23.8017 99.794 23.7431 99.9504C23.6845 100.107 23.294 100.048 23.2354 100.322C23.1769 100.596 23.3135 101.045 23.1964 101.162C23.0792 101.28 22.552 101.123 22.4739 101.397C22.3958 101.671 22.4739 101.788 22.6497 101.808C22.8254 101.827 26.2619 101.69 26.3205 101.808C26.3791 101.925 26.3205 102.238 26.4181 102.316C26.5157 102.394 28.1754 102.257 28.273 102.316C28.3707 102.374 28.2731 102.804 28.4683 102.902C28.6636 103 28.9369 103.039 28.976 102.902C29.015 102.765 28.9564 102.433 29.0541 102.355C29.1517 102.277 30.8504 102.355 30.9481 102.218C31.0457 102.081 30.9481 101.886 31.0262 101.788C31.1043 101.69 31.5338 101.788 31.5924 101.612C31.651 101.436 31.5924 101.241 31.6315 101.182C31.6705 101.123 32.1587 101.123 32.2368 100.986C32.3149 100.85 32.2172 100.322 32.2172 100.322C32.2172 100.322 34.4627 100.263 34.6775 100.224C34.8922 100.185 34.9899 99.7745 35.1266 99.7158C35.2632 99.6572 35.4975 99.7158 35.5756 99.6376C35.6537 99.5594 35.5952 98.6016 35.6537 98.5038C35.7123 98.4061 36.9229 98.3865 37.001 98.4256C37.0791 98.4647 37.0205 98.8948 37.0596 98.9534C37.0986 99.0121 38.9731 99.0121 39.0317 98.9925C39.0903 98.973 39.0122 98.4647 39.0707 98.4256C39.1293 98.3865 39.5979 98.4647 39.637 98.3866C39.676 98.3084 39.5784 95.9821 39.7151 95.8062C39.8518 95.6302 40.6133 95.0242 40.789 94.7701C40.9647 94.516 40.8866 93.2258 41.0624 93.0694C41.2381 92.913 41.3748 92.9326 41.4919 92.698C41.6091 92.4634 41.4919 87.9868 41.5895 87.8109C41.6872 87.635 42.4877 86.8921 42.7416 86.8531C42.9954 86.814 44.8503 86.6576 45.1042 86.814C45.358 86.9703 45.3189 87.4786 45.358 87.7914C45.397 88.1041 45.768 88.5929 46.1195 88.7492C46.471 88.9056 47.7401 88.9056 47.8378 88.7883C47.9354 88.671 47.7987 88.1823 47.9744 88.0846C48.1502 87.9869 48.4821 87.7327 48.5797 87.4395C48.6774 87.1463 49.5365 87.3809 49.7513 87.1854C49.966 86.9899 49.7513 86.7944 49.9465 86.7749C50.1418 86.7553 52.8949 86.814 53.0706 86.6185C53.2464 86.423 53.383 85.9734 53.6759 85.9538C53.9688 85.9343 54.0664 86.1102 54.3984 85.7583C54.7303 85.4065 55.3942 84.9178 55.5113 84.6441C55.6285 84.3704 55.5113 83.5885 56.019 83.4516C56.5267 83.3148 56.761 83.5103 56.9367 83.002C57.1124 82.4938 56.9953 80.4803 56.9562 80.3826C56.9172 80.2848 56.1752 80.3044 56.1752 80.0307C56.1752 79.757 55.9995 77.9977 56.2533 77.9195C56.5071 77.8413 56.9172 77.939 57.132 77.7435C57.3467 77.5481 57.3272 77.4112 57.4639 77.3526C57.6006 77.2939 60.8418 77.333 61.0371 77.2939C61.2323 77.2548 61.1542 76.6879 61.369 76.5706C61.5838 76.4534 64.3369 76.6293 64.4931 76.4729C64.6493 76.3165 64.9422 76.2579 65.0398 75.4759C65.1375 74.694 65.0398 73.8339 64.9422 73.6579C64.8446 73.482 64.2393 73.3843 64.2393 72.8956C64.2393 72.4069 64.2002 71.5272 64.415 71.4099C64.6298 71.2926 67.3829 71.3512 67.6368 71.1949C67.8906 71.0385 67.9101 70.6475 68.2225 70.6084C68.5349 70.5693 68.8669 70.452 69.0036 70.1588C69.1402 69.8656 69.5893 69.9829 69.7651 69.7092C69.9408 69.4355 70.7999 69.4746 71.1709 69.2009C71.5419 68.9273 71.4443 68.5363 71.7176 68.4972C71.991 68.4581 72.772 68.6731 72.9673 68.5558C73.1625 68.4386 73.143 68.0476 73.6116 67.8912C74.0802 67.7348 74.666 66.6401 74.8613 66.5815C75.0565 66.5228 76.7943 66.4642 76.931 66.6206C77.0676 66.7769 76.8724 67.207 77.0286 67.2657C77.1848 67.3243 79.0593 67.1288 79.1959 67.3048C79.3326 67.4807 79.1374 68.0476 79.645 68.1062C80.1527 68.1649 80.1722 68.2626 80.1136 68.6927C80.0551 69.1227 80.1527 69.3378 80.5237 69.4355C80.8947 69.5333 80.9142 69.4355 80.8166 70.7648C80.7189 72.0941 80.6604 72.4655 81.168 72.5241C81.6757 72.5828 81.2071 73.2474 81.6952 73.3061C82.1834 73.3647 86.479 73.2474 86.6547 73.4234C86.8305 73.5993 86.8305 74.1076 87.0648 74.1467C87.2991 74.1858 88.9197 74.2053 89.0759 74.3421C89.2321 74.479 89.6422 74.7136 90.2865 74.7722C90.9309 74.8308 90.6575 76.3165 90.8723 76.6488C91.0871 76.9812 95.1484 77.0398 95.2656 76.6879C95.3827 76.3361 95.2265 76.1601 95.4608 76.0624C95.6951 75.9646 97.5305 76.0037 97.6867 76.121C97.8429 76.2383 99.9517 78.2323 100.108 78.3691C100.264 78.5059 100.655 78.6623 101.026 78.6819C101.397 78.7014 101.631 79.6984 101.689 80.2457C101.748 80.7931 101.689 80.9299 101.924 80.9495C102.158 80.969 102.353 80.9495 102.334 81.6727C102.314 82.396 102.217 82.8065 102.451 82.8652C102.685 82.9238 102.51 83.4516 102.822 83.4712C103.134 83.4907 103.759 83.5298 103.876 83.5298C103.994 83.5298 103.837 84.1163 104.13 84.0967C104.423 84.0772 104.618 83.9794 104.716 83.7644C104.814 83.5494 105.126 83.6862 105.185 83.5103C105.243 83.3344 105.243 80.2262 105.321 80.1089C105.399 79.9916 105.712 80.148 105.868 79.972C106.024 79.7961 106.727 78.4864 106.766 78.2518C106.805 78.0172 107.157 78.0563 107.274 77.8608C107.391 77.6654 107.313 77.4308 107.567 77.3135C107.821 77.1962 108.543 77.0985 108.66 77.3721C108.777 77.6458 108.621 77.8608 108.855 77.9781C109.09 78.0954 109.793 78.0368 109.91 78.0954C110.027 78.1541 110.32 78.2713 110.398 78.4668C110.476 78.6623 110.457 80.4021 110.378 80.4803C110.3 80.5585 109.851 80.4217 109.675 80.539C109.5 80.6562 109.558 81.0277 109.265 81.1254C108.973 81.2231 108.953 81.4186 108.914 81.6141C108.875 81.8096 108.348 81.7509 108.309 81.9464C108.27 82.1419 108.27 82.6502 108.367 82.6697C108.465 82.6893 109.07 82.7088 109.09 82.8847C109.109 83.0607 109.051 83.4125 109.148 83.5298C109.246 83.6471 110.788 84.9569 110.788 84.9569C110.788 84.9569 110.945 85.4847 111.198 85.4651C111.452 85.4456 112.585 85.3869 112.643 85.4651C112.702 85.5433 112.819 85.6802 112.819 85.9734C112.819 86.2666 113.151 86.1884 113.346 86.1884C113.542 86.1884 113.385 85.7192 113.483 85.6411C113.581 85.5629 113.971 85.6411 114.049 85.5629C114.127 85.4847 114.088 85.0546 114.108 84.996C114.127 84.9373 114.791 85.1719 114.791 84.8005C114.791 84.4291 114.791 84.3118 114.811 84.2727C114.83 84.2336 114.811 83.9794 114.967 83.9403C115.123 83.9013 116.295 83.8622 116.353 84.0185C116.412 84.1749 116.197 84.8005 116.509 84.8982C116.822 84.996 116.861 85.1719 116.88 85.4456C116.9 85.7192 117.33 85.6606 117.466 85.6802C117.603 85.6997 117.798 85.6411 117.798 85.9343C117.798 86.2275 117.661 86.2861 117.466 86.2861C117.271 86.2861 116.178 86.2861 116.138 86.3448C116.099 86.4034 116.158 86.8335 116.099 86.8921C116.041 86.9508 115.514 86.8531 115.436 86.9703C115.357 87.0876 115.318 87.5568 115.436 87.6154C115.553 87.6741 116.021 87.6545 116.178 87.6936C116.334 87.7327 117.388 87.6545 117.466 87.7327C117.544 87.8109 117.622 88.2801 117.408 88.2801C117.193 88.2801 116.549 88.1823 116.49 88.241C116.431 88.2996 116.392 90.1372 116.47 90.2154C116.549 90.2936 117.31 90.274 117.408 90.3131C117.505 90.3522 117.642 90.3522 117.642 90.6454C117.642 90.9386 117.564 93.6363 117.642 93.6559C117.72 93.6754 118.111 93.6363 118.189 93.695C118.267 93.7536 118.169 94.8874 118.345 94.946C118.521 95.0047 118.853 94.8288 118.892 95.2784C118.931 95.728 118.833 96.1971 118.989 96.2558C119.145 96.3144 119.458 96.2558 119.575 96.3535C119.692 96.4513 119.575 96.9986 119.907 96.9791C120.239 96.9595 120.122 96.9009 120.122 96.6076C120.122 96.3144 120.083 95.8062 120.161 95.7084C120.239 95.6107 122.074 95.7084 122.113 95.5911C122.152 95.4739 122.055 94.4964 122.152 94.4182C122.25 94.34 122.484 94.4182 122.543 94.125C122.601 93.8318 122.543 93.2844 122.621 93.1867C122.699 93.089 123.714 92.092 123.773 92.0334C123.832 91.9747 125.081 90.7627 125.198 90.7236C125.316 90.6845 127.288 90.7432 127.385 90.6454C127.483 90.5477 127.659 90.0199 127.834 89.9808C128.01 89.9417 129.338 90.059 129.455 89.9221C129.572 89.7853 129.748 89.3552 129.904 89.1207C130.06 88.8861 130.587 88.9252 130.646 88.5342C130.705 88.1432 130.646 87.3027 130.783 87.0681C130.919 86.8335 131.798 86.1298 132.013 85.9343C132.228 85.7388 132.423 85.2501 132.657 85.2305C132.891 85.211 133.165 85.3283 133.145 85.6411C133.126 85.9538 133.419 86.0125 133.516 85.8756C133.614 85.7388 133.516 84.7809 133.614 84.7027C133.712 84.6245 134.063 84.7027 134.063 84.4486C134.063 84.1945 134.239 84.0576 134.512 83.9013C134.785 83.7449 134.766 82.7479 134.766 82.7479L134.825 81.9269L134.649 82.0442Z" fill="#6400C8"/>
<path d="M226.869 29.6743C226.869 29.6743 224.506 27.9345 223.608 28.0323C222.71 28.13 222.788 28.521 222.749 29.6743C222.749 29.6743 222.807 30.0653 222.592 30.0849C222.378 30.1044 221.968 30.0067 221.968 30.2217C221.968 30.4367 221.831 30.4954 222.182 30.5736C222.534 30.6518 222.671 30.7104 222.632 31.0036C222.592 31.2969 222.69 31.3555 222.495 31.4141C222.3 31.4728 221.909 31.4141 221.948 31.551C221.987 31.6878 221.831 31.9615 221.948 31.9615C222.065 31.9615 222.514 31.9615 222.514 31.9615V32.7239C222.514 32.7239 219.312 32.8607 219.078 32.9389C218.844 33.0171 218.844 33.799 218.57 34.1509C218.297 34.5028 217.574 34.3073 217.34 34.4832C217.106 34.6592 217.301 34.8546 216.852 34.8937C216.403 34.9328 216.793 34.4246 216.422 34.2291C216.051 34.0336 215.466 34.0532 215.407 34.2291C215.348 34.405 215.407 34.9915 215.134 34.9915C214.86 34.9915 214.411 34.9915 214.157 35.1674C213.904 35.3434 213.201 36.0471 212.888 36.223C212.576 36.399 210.487 36.3403 209.92 36.3208C209.354 36.3012 208.944 37.1027 208.846 37.2786C208.749 37.4546 208.846 38.1974 208.28 38.1388C207.714 38.0801 207.87 37.5328 207.616 37.5328C207.362 37.5328 207.284 37.611 207.284 37.826C207.284 38.041 207.031 38.3538 206.777 38.3929C206.523 38.432 205.078 38.3342 204.941 38.5297C204.805 38.7252 204.746 38.9598 204.18 38.9598C203.614 38.9598 204.043 38.3733 203.418 38.2951C202.793 38.217 202.696 38.1974 202.364 37.8455C202.032 37.4937 197.287 37.611 197.033 37.6501C196.78 37.6892 196.565 37.4155 196.448 37.1809C196.33 36.9463 196.116 36.9072 195.999 36.9268C195.881 36.9463 195.92 37.3764 195.803 37.4937C195.686 37.611 195.374 37.4937 195.335 37.6305C195.296 37.7673 195.413 38.217 195.12 38.2756C194.827 38.3342 194.69 38.1974 194.671 38.5884C194.651 38.9793 195.159 38.6861 195.257 38.9011C195.354 39.1162 195.296 39.2726 195.296 39.3508C195.296 39.4289 195.159 39.7417 194.768 39.7613C194.378 39.7808 194.105 39.859 194.007 39.7613C193.909 39.6635 193.851 39.1553 193.694 39.0771C193.538 38.9989 188.891 38.9793 188.755 38.9989C188.618 39.0184 188.286 39.6635 188.227 39.8199C188.169 39.9763 188.227 42.068 188.149 42.2244C188.071 42.3807 187.583 42.283 187.485 42.4589C187.388 42.6349 187.407 42.9867 187.388 43.0454C187.368 43.104 185.435 43.0649 185.338 43.0454C185.24 43.0258 185.201 42.7131 184.967 42.498C184.732 42.283 183.131 42.3612 182.936 42.4003C182.741 42.4394 182.78 44.1596 182.741 44.2965C182.702 44.4333 181.53 44.4333 181.393 44.4333C181.257 44.4333 180.808 45.0393 180.749 45.2152C180.69 45.3912 180.749 47.9325 180.69 48.0693C180.632 48.2061 180.007 48.1475 179.968 48.4798C179.968 48.4798 179.968 48.7339 179.968 48.8317C179.968 48.9294 179.363 48.8317 179.285 48.9685C179.206 49.1054 179.206 49.2813 179.226 49.3399C179.246 49.3986 179.909 49.3008 179.909 49.4181C179.909 49.5354 179.909 50.6301 179.89 50.7083C179.87 50.7865 179.714 50.9429 179.636 50.9429C179.558 50.9429 178.601 50.9038 178.562 50.982C178.523 51.0602 178.562 51.5684 178.523 51.6075C178.484 51.6466 177.254 51.5489 177.195 51.6075C177.137 51.6662 177.195 52.2917 177.156 52.3308C177.117 52.3699 176.629 52.3308 176.551 52.3308C176.473 52.3308 176.512 52.9759 176.492 53.0541C176.473 53.1323 174.677 53.0737 174.579 53.1128C174.481 53.1519 170.732 55.1458 170.498 55.2826C170.264 55.4195 170.127 55.7127 170.068 56.8269C170.01 57.9412 169.619 58.4104 169.405 58.7036C169.19 58.9968 168.565 59.1532 168.565 59.8765C168.565 60.5998 168.526 61.1276 168.643 61.3231C168.76 61.5185 169.19 61.4599 169.248 61.8704C169.307 62.2809 169.366 62.926 169.248 63.0824C169.131 63.2388 168.116 63.1215 167.999 63.2779C167.882 63.4343 167.94 63.7079 167.921 63.8643C167.901 64.0207 167.237 64.8417 167.003 65.0177C166.769 65.1936 166.124 65.2132 166.027 65.1936C165.929 65.1741 165.91 64.5681 165.343 64.529C164.777 64.4899 164.64 64.529 164.523 64.4117C164.406 64.2944 163.645 63.2779 163.41 63.1606C163.176 63.0433 161.184 62.1245 160.755 61.9486C160.325 61.7727 158.334 61.8704 158.197 61.8118C158.06 61.7531 156.244 61.1862 155.307 61.2058C154.37 61.2253 154.311 61.9486 154.038 61.8704C153.765 61.7922 153.726 61.2058 153.374 61.1667C153.023 61.1276 152.554 61.8509 152.515 62.0268C152.476 62.2027 152.515 64.1771 152.515 64.1771V76.5707C152.515 76.5707 151.949 77.6068 151.753 77.8023C151.558 77.9978 151.5 79.3466 151.304 79.3466H150.523L150.269 78.4474L148.981 78.5842V81.4187H147.184L145.759 82.8457V83.5495H147.751L147.887 84.9765L153.55 86.9704L157.865 92.5808L160.345 92.8545C160.345 92.8545 160.52 93.3432 160.481 93.5777C160.442 93.8123 159.798 93.8514 159.72 94.1251C159.642 94.3988 159.759 94.9266 159.759 94.9266H161.477C161.477 94.9266 161.614 94.2033 161.829 93.8905C162.043 93.5777 162.551 93.48 162.688 93.6168C162.824 93.7537 164.621 94.301 164.718 94.5552C164.816 94.8093 163.918 95.1416 163.918 95.4544C163.918 95.7672 163.684 96.3536 164.055 96.5295C164.426 96.7055 164.328 97.2137 164.601 97.116C164.875 97.0182 164.699 96.6664 164.953 96.5295C165.207 96.3927 165.636 96.4904 165.675 96.6664C165.714 96.8423 165.578 97.6047 165.636 97.7415C165.695 97.8784 166.085 97.4288 166.359 97.7415C166.632 98.0543 166.359 98.5039 167.491 98.6212C168.624 98.7385 168.233 98.7971 168.409 99.1686C168.585 99.54 169.619 99.4618 169.737 99.4227C169.854 99.3836 169.912 98.8753 169.776 98.7189C169.639 98.5626 168.819 98.7971 168.819 98.5039C168.819 98.2107 168.565 97.722 168.995 97.6633C169.424 97.6047 169.248 97.9566 169.405 97.6242C169.561 97.2919 169.483 96.119 169.522 95.8844C169.561 95.6499 170.654 95.7672 170.849 95.6694C171.045 95.5717 170.889 94.9266 171.025 94.8288C171.162 94.7311 172.724 94.8679 172.724 94.8679C172.724 94.8679 172.47 95.6108 172.978 95.7085C173.485 95.8063 174.852 95.9235 174.93 95.7085C175.008 95.4935 175.223 94.9657 175.438 94.9657C175.653 94.9657 177.937 94.9657 178.054 95.0439C178.172 95.1221 179.187 96.1777 179.519 96.295C179.851 96.4122 179.851 96.9596 180.222 96.9987C180.593 97.0378 181.179 97.0378 181.218 97.2137C181.257 97.3897 181.139 97.6633 181.842 97.7611C182.545 97.8588 182.292 97.3897 182.623 97.3115C182.955 97.2333 183.756 97.3115 183.795 97.0182C183.834 96.725 183.053 96.8423 182.916 96.5686C182.78 96.295 182.663 96.0213 182.916 95.9431C183.17 95.8649 183.541 96.0604 183.619 95.7281C183.697 95.3957 183.326 94.8875 183.834 94.7897C184.342 94.692 185.064 95.0243 185.396 94.7897C185.728 94.5552 187.524 93.0304 187.778 92.9913C188.032 92.9522 188.579 92.8936 188.637 93.2259C188.696 93.5582 188.442 93.7928 188.833 93.8514C189.223 93.9101 188.93 93.1868 189.262 93.089C189.594 92.9913 191.39 92.9913 191.722 92.8936C192.054 92.7958 193.011 90.9974 193.382 90.8996C193.753 90.8019 194.417 90.8605 194.612 90.9974C194.807 91.1342 194.807 91.4274 195.178 91.4274C195.549 91.4274 195.803 90.8996 195.647 90.235C195.491 89.5703 194.69 89.9418 194.788 89.3749C194.886 88.808 194.651 88.2411 194.886 88.0847C195.12 87.9283 195.452 87.9869 195.881 87.6546C196.311 87.3223 196.682 87.6937 196.838 87.1855C196.994 86.6772 196.975 86.3253 197.365 86.2276C197.756 86.1298 199.357 86.1885 199.65 86.0321C199.943 85.8757 200.06 85.3284 200.177 85.2306C200.294 85.1329 200.548 85.3675 200.88 84.8592C201.212 84.351 201.212 84.0577 200.978 84.0577C200.743 84.0577 200.333 83.6277 200.177 83.0608C200.021 82.4939 200.489 82.4157 201.309 82.0247C202.13 81.6337 202.559 80.93 202.95 80.8323C203.34 80.7345 204.18 80.6563 204.18 80.6563C204.18 80.6563 212.986 75.6129 213.123 73.7753C213.259 71.9378 224.057 65.741 224.057 65.741L231.594 42.5567" fill="#6400C8"/>
<path d="M170.459 55.2825C170.459 55.2825 169.854 56.5336 169.463 56.5727C169.073 56.6118 168.702 56.5727 168.624 56.7291C168.546 56.8855 168.721 57.7261 168.428 57.7847C168.135 57.8434 166.417 57.7456 166.378 57.6479C166.339 57.5501 165.48 56.1818 164.621 56.0449C163.762 55.9081 163.703 55.9863 163.215 55.654C162.727 55.3216 162.004 54.7352 161.965 54.4615C161.926 54.1878 162.258 53.5037 161.673 53.3473C161.087 53.1909 160.481 52.6826 160.481 52.448C160.481 52.2135 160.579 46.173 160.481 45.8994C160.384 45.6257 159.349 46.0166 159.193 45.6257C159.037 45.2347 159.583 44.7265 159.193 44.6092C158.802 44.4919 157.826 44.3355 157.748 44.6092C157.67 44.8828 157.514 45.0392 157.045 45.0392C156.576 45.0392 153.198 45.4302 153.159 45.0783C153.12 44.7265 153.003 44.2964 153.433 44.1009C153.862 43.9054 154.526 44.1009 154.565 43.7099C154.604 43.319 154.409 42.6543 154.643 42.6152C154.878 42.5761 155.776 42.6934 155.971 42.4589C156.166 42.2243 156.986 40.9732 157.221 40.6995C157.455 40.4258 157.845 40.3476 157.963 39.8003C158.08 39.2529 158.47 39.5266 158.627 39.2138C158.783 38.9011 159.154 38.4319 159.251 38.4124C159.349 38.3928 160.286 38.5883 160.501 38.4124C160.716 38.2364 160.677 37.1026 160.813 36.9071C160.95 36.7117 161.321 36.6139 161.262 36.3598C161.204 36.1057 160.579 36.1252 160.54 35.7342C160.501 35.3433 160.657 34.62 160.462 34.4441C160.267 34.2681 159.896 34.4441 159.857 34.0922C159.818 33.7403 159.408 33.4275 159.232 33.0952C159.056 32.7629 159.173 31.7073 159.349 31.4532C159.525 31.199 159.896 31.375 160.013 30.7299C160.13 30.0848 161.028 29.2833 161.341 28.951C161.653 28.6187 162.375 28.7555 162.727 28.5209C163.078 28.2863 162.903 27.7976 163.215 27.6608C163.527 27.524 164.23 27.6021 164.367 27.348C164.504 27.0939 166.534 27.3285 166.652 27.1525C166.769 26.9766 166.71 26.6638 166.788 26.5661C166.866 26.4683 167.53 26.6247 167.589 26.4293C167.647 26.2338 167.725 26.0774 167.452 26.0578C167.179 26.0383 166.808 26.1165 166.769 25.7646C166.73 25.4127 165.929 25.706 165.929 25.3541C165.929 25.0022 166.066 23.6534 166.007 23.5361C165.949 23.4188 164.758 22.4023 164.64 22.3437C164.523 22.285 163.274 22.6173 163.215 22.3437C163.156 22.07 163.313 21.6399 162.922 21.5813C162.532 21.5226 162.004 21.6986 161.965 21.5813C161.926 21.464 162.004 20.9362 161.77 20.8775C161.536 20.8189 160.228 21.0535 160.091 20.8775C159.954 20.7016 160.071 19.5873 159.993 19.431C159.915 19.2746 158.334 18.8054 158.334 18.8054L158.08 18.3949H155.6L155.288 19.04L153.628 19.0009C153.628 19.0009 153.316 19.646 153.257 19.7242C153.198 19.8024 153.12 21.3076 153.12 21.3076H152.242L147.712 21.3858V23.9271C147.712 23.9271 146.989 24.7285 146.872 24.7481C146.755 24.7676 146.423 24.6895 146.384 24.8067C146.345 24.924 146.482 26.3902 146.384 26.3511C146.286 26.312 145.095 26.312 144.998 26.3511C144.9 26.3902 144.744 27.0352 144.549 27.0352C144.353 27.0352 143.826 26.9375 143.689 27.0352C143.553 27.133 143.24 27.5435 143.24 27.6999C143.24 27.8563 143.24 28.4818 143.123 28.5014C143.006 28.5209 141.776 28.5991 141.717 28.4623C141.659 28.3254 141.463 27.5631 141.229 27.524C140.995 27.4849 140.839 27.524 140.839 27.6608C140.839 27.7976 140.878 28.0322 140.78 28.1104C140.682 28.1886 140.448 28.1104 140.448 28.1104C140.448 28.1104 140.604 28.8923 140.448 28.951C140.292 29.0096 137.793 31.1404 137.734 31.4727C137.675 31.805 137.597 32.3719 137.734 32.3915C137.871 32.411 138.164 32.3915 138.164 32.3915V33.408C138.164 33.408 137.675 33.5057 137.558 33.408C137.441 33.3103 137.636 32.5674 137.558 32.411C137.48 32.2546 137.519 32.1178 137.246 32.1374C136.973 32.1569 136.797 32.2742 136.758 32.0983C136.719 31.9223 136.035 32.3328 135.664 32.3133C135.293 32.2937 135 32.7434 134.571 33.0757C134.141 33.408 133.517 33.0561 133.38 33.193C133.243 33.3298 132.501 34.8937 132.15 35.1087C131.798 35.3237 131.408 35.2064 131.154 35.5974C130.9 35.9884 130.783 36.1252 130.451 36.2229C130.119 36.3207 130.295 37.1417 130.08 37.2395C129.865 37.3372 129.885 37.4545 129.787 37.6891C129.689 37.9237 128.557 37.8259 128.44 37.7086C128.323 37.5913 128.44 37.259 128.127 37.1808C127.815 37.1026 127.327 36.6726 127.132 36.3989C126.936 36.1252 126.722 36.262 126.683 36.4966C126.643 36.7312 126.253 37.2786 126.155 37.4154C126.058 37.5522 125.531 37.5522 125.511 37.8455C125.491 38.1387 125.667 39.5657 125.511 39.6635C125.355 39.7612 124.867 39.8003 124.73 39.5657C124.593 39.3311 124.437 39.077 124.105 38.9988C123.773 38.9206 124.164 38.471 123.812 38.3537C123.461 38.2364 123.305 37.9823 123.246 37.7673C123.187 37.5522 122.114 37.4936 122.016 37.6304C121.918 37.7673 122.016 38.4319 121.879 38.5101C121.743 38.5883 120.805 38.4124 120.727 38.4906C120.649 38.5687 120.727 39.1552 120.434 39.1552C120.141 39.1552 119.653 38.9988 119.634 39.2138C119.614 39.4289 119.575 39.8785 118.638 39.8589C117.701 39.8394 116.842 39.5853 116.939 39.0965C117.037 38.6078 117.213 37.4545 116.939 37.044C116.158 35.8711 116.842 34.9914 116.451 34.6982C116.061 34.405 115.377 34.1117 115.084 33.8185C114.791 33.5253 114.303 33.9162 114.108 34.3072C113.913 34.6982 113.425 34.9914 113.132 34.9914V36.0666L109.422 35.9688V36.5748L108.719 36.4966C108.719 36.4966 109.07 37.0635 108.719 37.0635C108.367 37.0635 108.25 36.5553 107.977 36.4184C107.704 36.2816 107.508 36.2425 107.45 36.4966C107.391 36.7508 107.352 36.8485 106.805 36.9267C106.259 37.0049 106.708 36.2816 106.298 36.2425C105.888 36.2034 105.009 36.4966 105.009 36.2034C105.009 35.9102 104.911 35.0305 104.482 34.9914C104.052 34.9523 104.736 33.7794 104.189 33.7012C103.642 33.623 103.408 33.6621 103.115 33.2712C102.822 32.8802 102.861 32.1764 102.471 32.0592C102.08 31.9419 102.041 32.1569 101.904 32.0201C101.768 31.8832 101.807 31.6682 101.299 31.5509C100.792 31.4336 100.518 31.59 100.44 31.7659C100.362 31.9419 100.362 32.6652 100.186 32.9388C100.011 33.2125 98.878 33.0757 98.7413 33.1148C98.6047 33.1539 98.4094 33.8185 98.2141 33.7599C98.0189 33.7012 96.7107 33.623 96.6911 33.799C96.6716 33.9749 96.613 34.0531 97.2183 34.0922L97.2964 34.7764C97.2964 34.7764 96.0858 34.9132 95.5587 34.9523C95.0315 34.9914 95.1681 36.3402 94.6605 36.4184C94.1528 36.4966 93.5866 36.3793 93.4499 36.6335C93.3132 36.8876 92.8055 37.7086 92.9227 37.7282C93.0398 37.7477 92.9227 38.6274 92.9227 38.6274L92.2198 39.2334L91.7512 39.8394L91.4973 40.5431L90.3063 40.4454C90.3063 40.4454 90.3844 39.8785 90.1696 39.8394C89.9548 39.8003 89.4667 39.8785 89.4862 39.7221C89.5057 39.5657 89.5643 39.292 89.2128 39.2529C88.8614 39.2138 87.9241 39.2138 87.8655 39.2138C87.807 39.2138 87.7093 39.7612 87.5531 39.7807C87.3969 39.8003 87.065 39.6635 87.0455 39.4289C87.0259 39.1943 86.1473 38.5492 86.1473 38.4319V37.044C86.1473 37.044 84.4486 35.4801 84.2924 35.3433C84.1362 35.2064 82.867 35.2064 82.8084 35.1673C82.7498 35.1282 82.5741 34.3854 82.2812 34.3659C81.9883 34.3463 80.973 34.5027 80.8363 34.3072C80.6996 34.1117 80.4653 33.2712 80.231 33.2712C79.9967 33.2712 79.9186 33.5644 79.8796 33.8381C79.8405 34.1117 78.6494 34.014 78.6299 33.7794C78.6104 33.5448 78.5323 31.2968 78.7471 31.2577C78.9619 31.2186 79.7429 31.2381 79.7234 31.0426C79.7038 30.8472 78.4932 30.8276 78.4347 30.7299C78.3761 30.6321 78.4347 28.2277 78.4347 28.2277C78.4347 28.2277 77.9075 28.3254 77.7903 28.169C77.6732 28.0127 77.8294 27.6021 77.4779 27.524C77.1264 27.4458 76.443 27.5631 76.2868 27.3285C76.1306 27.0939 75.6034 26.5465 75.2325 26.4293C74.8615 26.312 74.3343 26.0578 74.1195 25.7646C73.9047 25.4714 73.2213 25.6473 73.0261 25.3932C72.8308 25.1391 72.4403 25.0413 71.9717 24.9631C71.5031 24.8849 71.6007 24.4353 71.425 24.2594C71.2492 24.0835 71.054 24.0835 71.054 24.0835L70.351 23.3602C70.351 23.3602 70.312 22.8128 69.6481 22.7737C68.9842 22.7346 69.0624 22.7933 69.0233 22.5978C68.9842 22.4023 69.2967 22.0309 68.3985 22.0895C68.3985 22.0895 67.9884 21.8354 67.7346 21.4053C67.4808 20.9753 67.4417 20.7407 66.895 20.7211C66.3483 20.7016 66.3483 20.7602 66.3288 20.5452C66.3092 20.3302 66.3678 20.2715 65.9187 20.252C65.4696 20.2324 65.0791 20.3106 65.0401 20.2129C65.001 20.1151 65.0791 19.8219 64.9424 19.7046C64.8058 19.5873 64.3957 19.5482 64.3567 19.7046C64.3176 19.861 64.4152 20.4084 64.2786 20.4475C64.1419 20.4866 60.2953 20.3497 60.2953 20.3497C60.2953 20.3497 60.4125 20.9753 60.1587 20.9557C59.9048 20.9362 59.7681 20.4279 59.5534 20.1542C59.3386 19.8806 58.8309 20.0174 58.8504 20.1933C58.87 20.3693 58.9676 20.7016 58.7333 20.682C58.499 20.6625 58.2842 20.7407 58.3037 20.467C58.3232 20.1933 56.9369 20.2129 56.8783 20.4279C56.8198 20.643 56.8979 21.0535 56.644 21.0339C56.3902 21.0144 55.082 20.9362 54.9063 21.1121C54.7305 21.288 53.93 22.285 53.6566 22.5C53.3833 22.7151 47.838 22.5 47.5451 22.6173C47.2522 22.7346 47.5451 23.2233 47.3108 23.282C47.0765 23.3406 44.421 23.282 44.2843 23.282C44.1476 23.282 44.2257 24.103 43.9133 24.1616C43.6009 24.2203 42.3122 24.494 42.1755 24.1616C42.0389 23.8293 42.2341 23.0083 42.0193 22.9301C41.8045 22.8519 41.0235 22.8715 40.9259 22.7933C40.8283 22.7151 41.0235 22.2655 40.7502 22.1873C40.4768 22.1091 39.1491 22.07 38.9928 22.1873C38.8366 22.3046 38.9538 22.5391 38.7976 22.7933C38.6414 23.0474 30.2649 22.6564 30.1477 22.8128C30.0306 22.9692 30.2649 23.3797 29.9915 23.4188C29.7182 23.4579 28.4295 23.4579 28.2342 23.5556C28.039 23.6534 28.0194 24.3767 27.668 24.3962C27.3165 24.4158 27.1603 24.4549 27.0236 24.7481C26.8869 25.0413 25.7545 25.0218 25.5983 25.1586C25.442 25.2954 25.1101 25.6278 25.0711 25.8037C25.032 25.9796 25.0711 27.9149 25.0711 28.0322C25.0711 28.1495 25.6178 28.3254 25.6959 28.5405C25.774 28.7555 25.5202 29.3419 25.8911 29.4788C26.2621 29.6156 26.0083 30.0652 26.2426 30.1239C26.4769 30.1825 26.965 30.0261 27.0627 30.2998C27.1603 30.5735 26.9065 31.0817 27.1017 31.2381C27.297 31.3945 27.668 31.2186 27.7461 31.5509C27.8242 31.8832 27.9413 32.4892 27.707 32.6456C27.4727 32.802 27.1017 33.2125 26.926 33.3103C26.7503 33.408 26.4379 33.5839 26.3598 33.8772C26.2817 34.1704 26.2035 37.4545 26.3598 37.4936C26.516 37.5327 26.7893 38.0018 27.3751 37.9823C27.9609 37.9627 28.1756 38.4515 28.3514 38.5883L28.5076 38.7447C28.5076 38.7447 29.3472 38.7056 29.4839 38.8815C29.6205 39.0575 29.562 39.1552 30.2649 39.3507C30.9678 39.5462 31.0264 39.6048 31.0654 39.8394C31.1045 40.074 31.2997 40.2304 31.5926 40.4063C31.8855 40.5822 32.1003 42.3025 31.7488 42.6543C31.3974 43.0062 31.124 42.928 31.0459 43.6318C30.9678 44.3355 31.2607 45.6648 30.9092 46.0948C30.5578 46.5249 30.1282 46.3685 30.2063 46.8768C30.2844 47.385 29.9915 47.7955 29.6401 48.0692C29.2886 48.3429 29.0152 48.0692 29.0152 48.6361C29.0152 49.203 28.8005 50.5323 29.1519 50.8255C29.5034 51.1188 29.9329 51.2556 29.7767 51.4511C29.6205 51.6466 29.6401 52.0766 28.859 52.018C28.078 51.9593 28.3709 51.3142 28.078 51.9398C27.7851 52.5653 26.7503 52.1548 26.3988 52.5067C26.0473 52.8586 24.9149 54.6961 24.4267 54.7547C23.9386 54.8134 23.1575 54.6765 23.0209 55.1066C22.8842 55.5367 22.6694 55.5953 22.396 55.8885C22.1227 56.1818 21.9665 57.8238 22.396 57.9802C22.8256 58.1366 22.6108 58.8403 22.8842 59.1922C23.1575 59.5441 24.5634 59.4072 24.8563 59.6809C25.1492 59.9546 25.4225 59.8959 26.0473 60.111C26.6722 60.326 25.9107 60.4628 26.8284 60.8147C27.7461 61.1666 33.018 61.0884 33.1547 60.8147C33.2914 60.541 32.7251 59.8959 33.428 59.8959C34.131 59.8959 35.1072 59.5441 35.1072 60.111C35.1072 60.6779 35.5954 61.0884 35.9468 61.3816C36.2983 61.6748 36.0835 62.2222 36.6498 62.2222C37.216 62.2222 37.4308 61.5966 37.5675 62.2222C37.7042 62.8477 38.2704 62.4959 38.4852 63.0041C38.7 63.5124 38.4071 65.9559 38.7585 66.2491C39.11 66.5424 40.5159 66.816 40.5159 66.2491C40.5159 65.6822 40.8673 65.4672 41.2969 65.4672C41.7264 65.4672 41.1602 65.8973 41.6483 66.0928C42.1365 66.2882 42.4879 66.2296 42.6246 65.8777C42.7613 65.5259 44.3038 65.7409 44.3038 65.7409L44.5186 63.4146C44.5186 63.4146 45.4949 62.7891 45.7097 62.4959C45.9245 62.2026 46.3345 62.4959 46.4126 62.0658C46.4907 61.6357 46.4907 61.0884 46.5493 60.7365C46.6079 60.3846 47.1155 60.1696 47.3303 59.8959C47.5451 59.6223 47.8965 59.0554 48.248 59.1922C48.5995 59.329 48.1113 59.8959 48.3847 60.111C48.658 60.326 48.658 60.8929 49.0095 60.9515C49.361 61.0102 49.9858 60.8734 49.9858 60.8734L50.2006 59.8959L50.9816 59.9741C50.9816 59.9741 50.7082 61.1666 51.1964 60.9515C51.6845 60.7365 51.4112 60.111 51.7626 60.111C52.1141 60.111 53.0318 59.7591 53.3051 60.0328C53.5785 60.3065 53.227 61.0884 53.6566 61.0884C54.0862 61.0884 54.0862 60.111 54.4962 60.111C54.9063 60.111 54.4962 60.8929 55.121 60.8929C55.7459 60.8929 55.9021 60.541 56.2535 60.2674C56.605 59.9937 56.9565 60.1305 57.1712 60.1305C57.386 60.1305 57.8742 58.9967 58.499 58.8012C59.1238 58.6058 59.6315 59.1531 59.9048 59.4268C60.1782 59.7005 61.5255 59.2118 61.5255 59.5636C61.5255 59.9155 64.0638 62.5154 64.2005 62.9455C64.3371 63.3755 64.2786 64.1379 64.63 63.9229C64.9815 63.7079 64.7081 61.0297 64.5519 60.7561C64.3957 60.4824 63.4975 60.541 63.7123 60.1892C63.9271 59.8373 65.743 57.2765 66.7388 57.2569C67.7346 57.2374 67.7346 56.2404 68.4766 55.869C69.2186 55.4976 69.7262 54.6179 70.4682 55.1262C71.2102 55.6344 71.093 57.4524 71.7178 56.475C72.3427 55.4976 73.2213 54.3833 71.835 54.7547C70.4487 55.1262 69.3357 54.2465 69.3357 53.8751C69.3357 53.5036 69.7067 52.5067 70.7025 52.2526C71.6983 51.9984 72.577 52.1353 73.3189 51.9984C74.0609 51.8616 73.8266 51.1188 74.1976 50.7473C74.5686 50.3759 74.8224 50.3759 75.0763 49.6331C75.3301 48.8902 75.1934 48.2647 75.8182 48.0106C76.4431 47.7564 76.1892 48.2647 76.6969 48.382C77.2045 48.4993 78.9423 48.4993 79.3133 48.4993C79.6843 48.4993 80.563 49.379 80.6801 49.7504C80.7973 50.1218 80.4263 50.2586 80.0553 50.63C79.6843 51.0015 79.1766 51.9984 79.1766 51.9984L77.927 52.9954L78.4347 54.872L81.1683 54.6179C81.1683 54.6179 83.9018 56.2795 84.7805 57.2569C85.6591 58.2343 85.8935 57.8629 86.5183 58.4885C87.1431 59.114 87.7679 59.9937 87.8851 60.3651C88.0022 60.7365 88.6271 61.1079 89.5057 61.1079C90.3844 61.1079 89.3885 60.8538 90.1305 60.4824C90.8725 60.111 92.005 60.4824 92.6298 60.111C93.2546 59.7396 93.3718 59.2313 93.3718 58.8599C93.3718 58.4885 94.7386 57.2569 94.7386 57.2569H96.2225C96.2225 57.2569 97.4917 55.7517 97.4917 55.1262C97.4917 54.5006 99.7957 54.3833 98.6437 54.7547C97.4917 55.1262 101.729 56.9051 102.725 57.2765C103.72 57.6479 103.72 57.8825 104.97 57.9998C106.22 58.117 107.215 57.296 107.333 57.2765C107.45 57.2569 108.328 57.2765 108.328 57.2765C108.328 57.2765 109.07 57.7652 109.324 58.508C109.578 59.2509 108.699 58.6253 108.699 59.2508C108.699 59.8764 108.075 63.2387 108.582 63.3755C109.09 63.5124 109.461 62.1244 109.949 62.0072C110.437 61.8899 110.828 60.8929 111.199 60.5019C111.57 60.111 112.448 60.1305 112.448 59.505V58.8794C112.448 58.8794 112.565 57.1592 113.698 57.2765C114.83 57.3938 116.822 57.9216 117.193 57.2765C117.564 56.6314 117.701 57.081 118.189 56.4945C118.677 55.9081 118.697 55.7126 119.302 56.4945C119.907 57.2765 120.181 56.8073 120.669 57.2765C121.157 57.7456 120.415 59.7591 121.04 60.2478C121.664 60.7365 121.293 61.3621 121.664 61.6162C122.035 61.8703 123.715 61.3621 124.359 62.2417C125.003 63.1214 125.394 64.1575 126.136 63.9424C126.878 63.7274 129.377 64.2748 130.256 63.9424C131.134 63.6101 130.998 62.4959 130.998 62.4959L132.111 61.3816C132.111 61.3816 132.384 62.6718 132.989 62.5154C133.595 62.359 133.146 61.753 133.595 61.6553C134.044 61.5575 134.903 61.8508 135.215 61.4598C135.528 61.0688 135.215 60.6974 135.567 60.6974C135.918 60.6974 136.328 61.0493 136.231 61.3621C136.133 61.6748 135.567 61.7139 135.567 62.3199C135.567 62.9259 135.664 64.1379 135.411 64.392C135.157 64.6462 134.61 64.5875 134.649 65.0958C134.688 65.604 134.747 66.5033 134.649 66.5815C134.551 66.6597 134.044 66.7183 134.044 67.1093C134.044 67.5002 133.946 67.813 133.692 68.028C133.438 68.2431 133.497 68.5363 133.282 68.6927C133.067 68.8491 131.915 69.4942 131.369 69.4942C130.822 69.4942 130.568 70.6084 130.256 71.0189C129.943 71.4294 128.987 71.5858 128.889 71.4294C128.791 71.2731 128.83 70.5107 128.225 70.628C127.62 70.7453 127.054 70.9016 127.307 71.4881C127.561 72.0745 127.464 72.0354 128.01 72.2505C128.557 72.4655 128.225 84.2727 128.225 84.2727C128.225 84.2727 128.713 84.1554 128.83 84.4486C128.948 84.7418 128.733 85.7583 128.928 85.7388C129.123 85.7193 129.182 85.817 129.201 85.426C129.221 85.0351 129.162 84.5854 129.279 84.5073C129.397 84.4291 131.056 84.4486 131.154 84.3509C131.252 84.2531 131.154 84.0576 131.271 83.999C131.388 83.9404 131.876 83.9599 131.935 83.8622C131.994 83.7644 131.935 83.3344 131.935 83.3344C131.935 83.3344 131.974 82.9629 132.462 83.002C132.95 83.0411 134.278 83.0411 134.395 82.9238C134.512 82.8065 134.395 82.396 134.532 82.2983C134.669 82.2006 134.825 82.396 134.942 82.1615C135.059 81.9269 134.942 80.7344 135.137 80.578C135.332 80.4217 135.625 80.4608 135.762 80.3435C135.899 80.2262 136.25 79.6202 136.25 79.6202C136.25 79.6202 137.168 79.6202 137.324 79.6202C137.48 79.6202 137.324 80.148 137.422 80.2653C137.519 80.3826 138.086 80.2262 138.144 80.5585C138.203 80.8908 138.086 81.1449 138.3 81.1449C138.515 81.1449 138.652 80.9104 138.671 81.2036C138.691 81.4968 139.628 81.6141 139.589 82.0246C139.55 82.4351 139.413 82.9434 139.706 83.002C139.999 83.0607 140.194 83.0802 140.214 83.393C140.233 83.7058 140.214 84.0967 140.077 84.1163C139.94 84.1358 139.843 84.3509 140.272 84.4095C140.702 84.4682 140.819 84.4486 140.8 84.7614C140.78 85.0742 141.385 85.2696 141.561 85.5433C141.737 85.817 141.952 85.7388 142.01 85.5433C142.069 85.3478 141.932 85.1524 142.049 85.1133C142.166 85.0742 142.986 85.2501 143.026 84.9764C143.065 84.7027 143.201 83.999 143.318 83.9208C143.436 83.8426 145.31 83.8035 145.349 83.784C145.388 83.7644 145.33 83.3148 145.369 83.2562C145.408 83.1975 146.403 83.2366 146.54 83.0607C146.677 82.8848 146.696 82.4742 146.696 82.396C146.696 82.3178 146.579 82.4156 146.696 82.3178C146.813 82.2201 147.477 82.4351 147.595 82.2592C147.712 82.0833 147.614 81.7509 147.751 81.7314C147.887 81.7118 148.805 81.6727 148.961 81.6727C149.118 81.6727 149.02 79.1119 149.254 79.0142C149.489 78.9164 149.899 78.9555 150.016 79.0142C150.133 79.0728 149.996 79.6984 150.094 79.7766C150.191 79.8548 151.363 79.972 151.402 79.7766C151.441 79.5811 151.5 78.4082 151.539 78.1736C151.578 77.939 152.144 78.115 152.183 77.8804C152.222 77.6458 152.046 77.2939 152.183 77.2744C152.32 77.2548 152.613 77.5481 152.71 77.1766C152.808 76.8052 152.71 61.9094 152.71 61.9094C152.71 61.9094 152.808 61.8117 152.827 61.6944C152.847 61.5771 153.413 61.5771 153.452 61.6553C153.491 61.7335 153.491 62.0854 153.53 62.1245C153.569 62.1635 153.999 62.2026 154.077 62.0854C154.155 61.9681 154.155 61.7921 154.253 61.7726C154.35 61.753 157.025 61.753 157.025 61.753C157.025 61.753 157.26 61.7921 157.26 62.0658C157.26 62.3395 157.26 62.3981 157.748 62.4177C158.236 62.4372 158.783 62.3786 158.841 62.4177C158.9 62.4568 160.813 62.4177 160.813 62.4177C160.813 62.4177 160.774 63.0041 160.891 63.0628C161.009 63.1214 162.161 63.0628 162.219 63.1214C162.278 63.1801 162.063 63.8056 163.488 63.747C163.488 63.747 163.781 63.7665 163.781 64.0206C163.781 64.2748 164.211 64.353 164.269 64.4116C164.328 64.4702 164.211 65.0762 164.308 65.0762C164.406 65.0762 165.5 65.0371 165.539 65.0762C165.578 65.1153 165.519 65.7213 165.578 65.7213C165.636 65.7213 166.163 65.7213 166.222 65.7213C166.281 65.7213 166.222 66.2687 166.281 66.3273C166.339 66.386 166.866 66.4055 166.886 66.3273C166.905 66.2491 166.905 65.2717 166.925 65.2326C166.944 65.1935 167.062 65.0762 167.335 65.0958C167.608 65.1153 167.569 65.0567 167.569 64.9003C167.569 64.7439 167.569 64.5289 167.589 64.4702C167.608 64.4116 168.214 64.4507 168.233 64.392C168.253 64.3334 168.233 63.7665 168.233 63.6883C168.233 63.6101 168.175 63.4733 168.956 63.5906C168.956 63.5906 169.034 63.8642 169.034 64.1184C169.034 64.3725 169.131 64.2943 169.541 64.3334C169.951 64.3725 170.166 64.3725 170.186 64.3334C170.205 64.2943 170.186 63.7274 170.186 63.6883C170.186 63.6492 170.771 63.6883 170.811 63.6492C170.85 63.6101 170.85 63.2973 170.85 63.2387C170.85 63.1801 170.4 63.1801 170.283 63.1605C170.166 63.141 170.205 62.8086 170.166 62.6327C170.127 62.4568 169.561 62.5741 169.502 62.4568C169.444 62.3395 169.561 61.8508 169.463 61.8312C169.366 61.8117 169.053 61.8312 169.034 61.7726C169.014 61.7139 169.034 59.9155 169.073 59.7982C169.112 59.6809 169.424 59.7982 169.483 59.6223C169.541 59.4463 169.502 58.6058 169.561 58.5276C169.619 58.4494 170.205 58.5862 170.244 58.4494C170.283 58.3125 170.381 55.4585 170.381 55.4585L170.459 55.2825Z" fill="#6400C8"/>
<path d="M241.083 67.9695C241.083 67.9695 241.513 70.8822 241.083 71.1559C240.654 71.4295 240.165 72.2897 240.048 73.052C239.931 73.8144 239.013 78.1932 238.154 79.0534C237.295 79.9135 237.354 78.7797 235.616 78.7211C233.878 78.6624 230.598 79.0925 229.622 78.291C228.645 77.4895 226.927 76.3948 225.521 76.3948C224.115 76.3948 218.98 79.1511 218.18 79.3661C217.379 79.5812 215.055 79.3075 214.509 79.3661C213.962 79.4248 214.353 77.5286 213.708 77.5286C213.064 77.5286 211.541 77.5873 211.17 77.7436C210.799 77.9 211.014 78.506 210.311 78.6624C209.608 78.8188 208.143 79.112 207.44 79.4443C206.738 79.7767 206.523 80.5 206.035 80.3827C205.546 80.2654 205.273 79.4639 204.785 79.3466C204.297 79.2293 203.379 78.3692 202.676 77.9391C201.973 77.5091 202.09 76.7467 202.09 76.258C202.09 75.7693 202.793 75.6715 202.793 75.1828C202.793 74.6941 203.282 74.3227 204.082 74.1663C204.883 74.0099 204.629 75.3588 205.546 75.2415C206.464 75.1242 207.597 75.4565 207.714 74.7528C207.831 74.049 207.558 73.834 208.085 73.5017C208.612 73.1693 210.467 73.1693 210.779 73.6189C211.092 74.0686 210.447 74.2054 211.111 74.049C211.775 73.8926 213.376 71.5664 213.532 70.9213C213.689 70.2762 213.161 70.1589 212.732 69.5725C212.302 68.986 212.459 68.771 212.244 67.9499C212.029 67.1289 211.873 66.3861 212.088 66.0538C212.302 65.7214 213.161 65.9365 213.122 66.5425C213.083 67.1485 212.634 67.6763 213.337 67.7936C214.04 67.9108 217.438 68.0086 217.555 67.6372C217.672 67.2657 217.438 66.7184 217.828 66.4447C218.219 66.171 218.804 66.3079 218.746 65.9169C218.687 65.526 220.855 65.7996 221.128 65.6432C221.401 65.4869 222.378 64.1771 222.807 64.0794C223.237 63.9816 223.51 63.4343 223.452 63.2193C223.393 63.0042 223.022 62.9456 222.534 62.8478C222.046 62.7501 221.401 62.0464 221.284 61.3817C221.167 60.7171 221.558 60.8344 222.046 60.7953C222.534 60.7562 222.905 60.6584 222.846 59.1141C222.846 59.1141 223.159 58.1367 223.686 57.7066C224.213 57.2766 225.228 57.5698 225.443 57.2961C225.658 57.0224 225.502 56.1819 225.404 55.9864C225.306 55.7909 224.486 55.8104 224.428 55.439C224.369 55.0676 224.389 53.6797 224.486 53.4451C224.584 53.2105 226.068 52.6045 226.302 52.3895C226.537 52.1745 226.634 51.6271 226.4 51.6076C226.166 51.588 225.228 51.5685 225.014 51.373C224.799 51.1775 224.975 50.767 225.072 50.3369C225.17 49.9069 227.122 49.4181 227.2 49.164C227.279 48.9099 227.298 48.2843 227.239 47.9911C227.181 47.6979 226.458 47.4242 226.087 47.2678C225.716 47.1115 225.951 46.4859 226.107 46.2904C226.263 46.0949 228.567 46.2122 228.802 46.2904C229.036 46.3686 229.153 46.8573 229.465 46.6618C229.778 46.4664 229.524 46.2318 229.895 46.0558C230.266 45.8799 230.617 46.0558 230.813 45.919C231.008 45.7822 230.988 44.1401 230.949 44.0033C230.91 43.8664 230.051 41.853 229.719 41.4033C229.387 40.9537 228.938 41.1492 228.528 40.9928C228.118 40.8364 228.411 39.5267 228.157 39.3117C227.903 39.0966 227.591 39.4681 227.513 39.0185C227.435 38.5688 227.708 38.0019 227.279 37.9628C226.849 37.9237 226.79 37.5132 226.869 37.1809C226.947 36.8486 227.806 36.9854 227.806 36.6531C227.806 36.3208 227.767 36.1253 227.2 35.793C226.634 35.4607 226.79 35.2652 226.595 34.3269C226.4 33.3885 226.712 33.5449 226.048 32.978C225.385 32.4111 225.716 32.0006 226.087 31.8638C226.458 31.7269 226.517 31.2187 226.517 30.8277C226.517 30.4368 226.146 30.6322 225.775 30.2608C225.404 29.8894 224.74 29.5571 224.662 29.0488C224.584 28.5406 224.525 27.1331 224.662 26.6639C224.799 26.1948 225.267 25.8624 225.638 25.7843C226.009 25.7061 226.205 26.0188 226.517 26.5271C226.829 27.0353 226.712 27.4654 227.22 27.4654C227.728 27.4654 227.728 27.4654 227.825 26.8594C227.923 26.2534 228.333 26.0188 228.899 25.9797C229.465 25.9406 230.071 25.8624 230.344 25.7843C230.617 25.7061 231.984 24.2595 232.59 24.1226C233.195 23.9858 233.527 23.7903 233.663 23.5166C233.8 23.243 235.167 23.3798 235.304 23.5166C235.44 23.6535 235.03 24.0836 235.499 24.0836C235.967 24.0836 238.115 23.9467 238.486 24.2204C238.857 24.4941 238.525 24.8264 239.365 24.8264C240.205 24.8264 241.22 24.6895 241.239 25.3346C241.239 25.3346 241.552 25.5692 242.02 25.5692C242.489 25.5692 242.821 26.1752 242.958 26.3121C243.094 26.4489 243.329 26.8203 243.465 27.7586C243.602 28.6969 243.524 28.5992 243.914 28.6579C244.305 28.7165 244.363 29.2639 244.5 29.3225C244.637 29.3811 247.039 29.3616 247.195 29.4593C247.351 29.5571 247.566 30.0849 247.78 30.0458C247.995 30.0067 248.171 29.5962 248.249 29.4398C248.327 29.2834 248.542 29.3225 248.679 29.4398C248.815 29.5571 249.225 29.8698 249.245 30.1826C249.264 30.4954 249.245 31.1405 249.245 31.1405L249.928 31.1796C249.928 31.1796 249.811 32.3134 249.928 32.3525C250.045 32.3916 250.592 32.3525 250.612 32.4502C250.631 32.548 250.768 32.7825 250.612 32.8021C250.456 32.8216 249.87 32.7434 249.928 32.8803C249.987 33.0171 249.928 33.9945 249.85 34.0727C249.772 34.1509 249.245 34.2291 249.225 34.366C249.206 34.5028 241.044 68.0477 241.044 68.0477L241.083 67.9695Z" fill="#6400C8"/>
<path d="M249.245 34.7764C249.245 34.7764 249.343 36.4771 249.772 36.8876C250.202 37.2981 249.772 37.7282 249.772 38.0605C249.772 38.3928 249.128 39.4289 249.245 40.289C249.362 41.1491 250.045 42.3025 249.967 43.3581C249.889 44.4137 245.437 55.9668 245.223 57.8825C245.008 59.7982 242.567 66.3665 241.942 67.7348C241.317 69.1032 240.771 69.9633 240.771 69.9633C240.771 69.9633 240.341 66.1514 239.599 65.7214C238.857 65.2913 238.115 66.0341 237.49 65.2913C236.866 64.5485 236.651 64.5485 235.479 64.5485C234.308 64.5485 235.089 63.8838 234.386 62.8869C233.683 61.8899 233.722 61.0298 234.093 60.9907C234.464 60.9516 235.323 61.3621 235.948 60.2283C236.573 59.0945 237.569 58.0975 237.608 57.8043C237.647 57.5111 237.471 57.1788 237.08 57.1006C236.69 57.0224 236.944 57.6284 236.456 57.8043C235.967 57.9802 235.792 57.902 235.421 57.7066C235.05 57.5111 234.269 56.7487 233.82 56.3773C233.371 56.0059 233.429 54.1879 233.566 53.7187C233.702 53.2495 234.698 53.621 234.894 53.1909C235.089 52.7608 234.854 50.1609 235.03 49.5745C235.206 48.988 235.499 48.8707 235.46 48.382C235.421 47.8933 235.03 47.8151 234.757 47.5219C234.484 47.2287 234.62 46.955 234.854 46.8182C235.089 46.6813 235.85 45.528 236.553 45.352C237.256 45.1761 238.779 45.4498 239.209 45.2543C239.638 45.0588 239.775 44.8829 240.068 44.3551C240.361 43.8273 241.064 44.1205 241.357 44.0227C241.649 43.925 241.981 43.0844 241.142 42.7912C240.302 42.498 239.502 42.9085 238.935 41.6574C238.369 40.4063 238.33 39.9176 238.096 39.2334C237.861 38.5492 237.94 37.6891 238.174 37.2199C238.408 36.7508 238.877 35.3628 239.404 35.2847C239.931 35.2065 239.482 35.9102 240.107 35.9884C240.732 36.0666 240.654 36.7703 241.259 36.9072C241.864 37.044 242.04 36.438 242.567 35.9884C243.094 35.5388 249.225 34.7373 249.225 34.7373L249.245 34.7764Z" fill="#F047F4"/>
<path d="M269.844 5.03301C269.844 5.03301 269.434 5.03301 269.297 5.28714C269.161 5.54127 268.184 5.52172 267.989 5.85404C267.794 6.18636 267.462 6.46004 267.228 6.14726C266.993 5.83449 265.724 5.65856 265.451 5.81494C265.177 5.97133 266.056 5.97133 265.841 6.2841C265.626 6.59687 263.752 7.20287 263.752 6.79236C263.752 6.38184 263.791 5.87359 263.752 5.97133C263.713 6.06907 262.991 6.61642 262.893 6.9292C262.795 7.24197 262.854 7.76977 262.307 7.88706C261.76 8.00435 261.428 7.88706 260.667 7.88706C259.905 7.88706 259.183 7.65248 258.597 7.94571C258.011 8.23893 257.055 9.29454 255.961 9.41183C254.868 9.52912 253.813 9.52912 254.321 9.66596C254.829 9.8028 255.688 9.90054 255.473 10.0765C255.258 10.2524 254.692 9.70505 254.692 10.0765C254.692 10.4479 254.848 10.1547 254.341 10.6043C253.833 11.0539 253.755 11.3667 253.755 11.3667C253.755 11.3667 254.321 11.2494 254.341 11.523C254.36 11.7967 254.77 11.9336 254.341 12.0508C253.911 12.1681 254.087 12.4614 253.501 12.735C252.915 13.0087 252.681 12.9892 252.486 13.0674C252.29 13.1456 251.588 14.6899 251.392 14.8463C251.197 15.0026 251.841 15.5304 251.763 15.9019C251.685 16.2733 250.709 16.4688 250.455 16.6642C250.201 16.8597 249.947 17.3484 250.025 17.368C250.104 17.3875 250.787 17.4657 250.943 17.0943C251.099 16.7229 251.627 16.0778 251.939 16.2146C252.251 16.3515 252.544 17.0943 253.052 17.0357C253.56 16.977 254.087 17.0748 253.833 16.8597C253.579 16.6447 253.325 16.4883 253.423 16.3319C253.521 16.1755 254.048 16.371 254.692 16.5665C255.336 16.762 255.571 16.9575 255.571 16.8011C255.571 16.6447 255.18 16.6642 254.887 16.1951C254.594 15.7259 254.653 15.8628 254.868 15.5891C255.083 15.3154 255.239 15.1981 255.395 15.0808C255.551 14.9635 255.61 14.944 255.688 14.8072C255.766 14.6703 256.352 14.8854 256.606 14.7876C256.859 14.6899 256.918 14.553 257.094 14.4944C257.269 14.4357 257.699 14.3771 257.855 14.5139C258.011 14.6508 258.343 14.6117 258.578 14.6312C258.812 14.6508 258.617 14.944 258.91 15.0417C259.203 15.1395 259.515 15.0613 259.73 15.0026C259.945 14.944 260.237 15.335 260.257 15.1004C260.276 14.8658 260.042 14.7681 260.237 14.6312C260.433 14.4944 260.647 14.6117 260.667 14.7485C260.686 14.8854 260.159 15.5695 260.179 15.8432C260.198 16.1169 260.491 16.0192 260.55 16.3124C260.608 16.6056 260.452 16.9184 260.843 17.0357C261.233 17.153 261.546 17.2311 261.565 17.6026C261.585 17.974 261.292 18.4822 261.487 18.3259C261.682 18.1695 261.917 18.0131 261.917 17.6612C261.917 17.3093 261.819 17.0357 262.131 16.7815C262.444 16.5274 262.717 16.5079 262.62 16.3515C262.522 16.1951 262.092 15.8432 262.092 15.6673C262.092 15.4914 262.268 15.4327 262.288 15.1981C262.307 14.9635 262.268 14.729 262.112 14.4944C261.956 14.2598 262.151 14.0252 262.307 14.0057C262.463 13.9861 262.932 14.0252 263.205 14.2207C263.479 14.4162 263.986 14.7485 264.377 14.6117C264.767 14.4748 264.709 14.6508 264.943 14.5335C265.177 14.4162 265.138 14.2989 265.119 14.1425C265.099 13.9861 264.982 13.8297 264.748 13.732C264.514 13.6343 264.416 13.4388 264.435 13.3019C264.455 13.1651 264.67 13.1651 264.806 13.1065C264.943 13.0478 265.197 13.5561 265.49 13.6147C265.783 13.6734 266.017 13.6147 266.154 13.6147C266.29 13.6147 266.368 13.6734 266.583 13.6734C266.798 13.6734 267.189 13.732 267.403 13.6147C267.618 13.4974 267.852 13.4583 267.54 13.3801C267.228 13.3019 267.169 13.341 266.935 13.2237C266.7 13.1065 266.661 12.7546 266.408 12.5396C266.154 12.3245 265.705 12.2268 265.705 12.0899C265.705 11.9531 265.822 11.7576 265.958 11.7772C266.095 11.7967 266.388 12.0118 266.564 11.914C266.739 11.8163 267.052 11.7185 267.071 11.6403C267.091 11.5621 266.974 11.4058 266.876 11.3276C266.779 11.2494 266.622 11.3276 266.778 11.2298C266.935 11.1321 267.364 11.1907 267.657 11.2298C267.95 11.2689 268.341 11.3276 268.458 11.2298C268.575 11.1321 269.004 11.1321 269.122 11.0734C269.239 11.0148 269.18 10.5652 268.907 10.4674C268.633 10.3697 268.575 10.3697 268.555 10.2524C268.536 10.1351 268.731 10.096 268.965 10.0569C269.2 10.0178 269.18 9.82234 269.414 9.84189C269.649 9.86144 270.352 10.1351 270.742 10.1156C271.133 10.096 270.723 9.84189 270.352 9.52912C269.981 9.21635 270.215 9.17725 269.785 9.1577C269.356 9.13815 269.083 9.27499 269.063 8.94267C269.043 8.61035 268.829 8.66899 268.829 8.39532C268.829 8.12164 268.575 8.23893 268.829 8.12164C269.083 8.00435 269.161 7.90661 269.219 7.84797C269.278 7.78932 269.551 8.00435 269.668 7.86751C269.785 7.73068 269.649 7.43745 269.883 7.39835C270.117 7.35926 270.527 7.4961 270.566 7.30061C270.606 7.10513 270.703 7.08558 270.469 6.73371C270.235 6.38184 270.078 6.42094 270.078 6.16681C270.078 5.91268 270.039 5.77585 270.215 5.61946C270.391 5.46307 270.566 5.24804 270.215 5.1112L269.864 4.97437L269.844 5.03301Z" fill="#6400C8"/>
</svg>
