<svg width="58" height="58" viewBox="0 0 58 58" fill="none" xmlns="http://www.w3.org/2000/svg">
<path d="M25.3553 9.2471L29.4018 0L33.192 9.35655L40.469 2.36103L40.3908 12.4556L49.7911 8.77802L45.854 18.072L55.9486 18.2753L48.7529 25.3553L58 29.4018L48.6434 33.192L55.639 40.469L45.5444 40.3908L49.222 49.7911L39.928 45.854L39.7247 55.9486L32.6447 48.7529L28.5982 58L24.808 48.6434L17.531 55.639L17.6092 45.5444L8.20887 49.222L12.146 39.928L2.05456 39.7247L9.2471 32.6447L0 28.5982L9.35655 24.808L2.36103 17.531L12.4556 17.6092L8.77802 8.20887L18.072 12.146L18.2753 2.05456L25.3553 9.2471Z" fill="#F03B14"/>
</svg>
