<svg width="37" height="37" viewBox="0 0 37 37" fill="none" xmlns="http://www.w3.org/2000/svg">
<path d="M16.1749 5.89901L18.7563 0L21.1742 5.96884L25.8164 1.50617L25.7665 7.94581L31.7633 5.59977L29.2517 11.5287L35.6913 11.6584L31.101 16.1749L37 18.7563L31.0312 21.1742L35.4938 25.8164L29.0542 25.7665L31.4002 31.7633L25.4713 29.2517L25.3416 35.6913L20.8251 31.101L18.2437 37L15.8258 31.0312L11.1836 35.4938L11.2335 29.0542L5.2367 31.4002L7.74832 25.4713L1.31067 25.3416L5.89901 20.8251L0 18.2437L5.96884 15.8258L1.50617 11.1836L7.94581 11.2335L5.59977 5.2367L11.5287 7.74832L11.6584 1.31067L16.1749 5.89901Z" fill="#B5B5B5"/>
<path d="M26.2563 17.8416C26.2563 21.9838 22.8985 25.3416 18.7563 25.3416C14.6142 25.3416 11.2563 21.9838 11.2563 17.8416C16.5926 16.2955 19.2666 12.605 18.7563 10.3416C19.5317 14.4604 23.2748 17.5856 26.2563 17.8416Z" fill="#FBF8FF"/>
<circle cx="22" cy="18" r="1" fill="#B5B5B5"/>
<circle cx="16" cy="18" r="1" fill="#B5B5B5"/>
</svg>
