<svg width="29" height="23" viewBox="0 0 29 23" fill="none" xmlns="http://www.w3.org/2000/svg">
<g clip-path="url(#clip0_184_95)">
<path d="M22.1123 8.48807H15.2248V10.9637C15.2248 12.7187 13.7612 14.1466 11.9623 14.1466C10.1634 14.1466 8.69981 12.7187 8.69981 10.9637V5.58807L5.75903 7.31215C4.8845 7.82054 4.34981 8.74447 4.34981 9.73472V11.8257L0.724813 13.8681C0.0315315 14.2571 -0.208625 15.1236 0.194657 15.8L3.81966 21.9271C4.21841 22.6035 5.10653 22.8333 5.79981 22.4443L10.4851 19.8051H16.6748C18.2743 19.8051 19.5748 18.5364 19.5748 16.9759H20.2998C21.1018 16.9759 21.7498 16.3437 21.7498 15.5612V12.732H22.1123C22.715 12.732 23.1998 12.259 23.1998 11.671V9.54904C23.1998 8.96109 22.715 8.48807 22.1123 8.48807ZM28.805 6.83472L25.18 0.707581C24.7812 0.0312095 23.8931 -0.198668 23.1998 0.190356L18.5145 2.82953H13.8836C13.3398 2.82953 12.8097 2.97984 12.3475 3.25834L10.8295 4.18228C10.4036 4.43868 10.1498 4.89401 10.1498 5.38029V10.9637C10.1498 11.9407 10.9609 12.732 11.9623 12.732C12.9637 12.732 13.7748 11.9407 13.7748 10.9637V7.07343H22.1123C23.5125 7.07343 24.6498 8.18304 24.6498 9.54904V10.809L28.2748 8.76657C28.9681 8.37313 29.2037 7.51109 28.805 6.83472Z" fill="#B5B5B5"/>
</g>
<defs>
<clipPath id="clip0_184_95">
<rect width="29" height="22.6341" fill="white"/>
</clipPath>
</defs>
</svg>
